 0
SECTION
 2
ENTITIES
  0
LINE
 8
Grouper#11
10
2227.14242204264
20
405.37873296546695
30
79.17763260034438
11
2226.6691085085918
21
405.2115690346447
31
79.1775081609068
  0
LINE
 8
Grouper#11
10
2114.525061223599
20
608.5796385574384
30
79.32889852393006
11
2114.1632897912514
21
608.4297879652013
31
79.32878697281177
  0
LINE
 8
Grouper#11
10
2117.605188242522
20
594.7348449812848
30
79.3185922436453
11
2118.104690355044
21
592.5299365926811
31
79.31695087544925
  0
LINE
 8
Grouper#11
10
2319.230984965551
20
498.26070931484134
30
79.24677539228229
11
2318.922939839621
21
497.864379136693
31
79.24648035791586
  0
LINE
 8
Grouper#11
10
2114.835721395379
20
610.939336181076
30
79.33065511964686
11
2115.0740993292757
21
610.6286760953728
31
79.33042385943355
  0
LINE
 8
Grouper#11
10
2114.1632897912514
20
608.4297879652013
30
79.32878697281177
11
2113.7750612235977
21
608.3786767187966
31
79.32874892480272
  0
LINE
 8
Grouper#11
10
2319.964851316605
20
511.8137428217363
30
79.2568644818207
11
2320.3822677062058
21
511.5349364168913
31
79.25665693398423
  0
LINE
 8
Grouper#11
10
2323.1632897912627
20
402.3276225502997
30
79.17536130616102
11
2323.5250612236077
21
402.17777195806303
31
79.17524975504273
  0
LINE
 8
Grouper#11
10
2321.326172484174
20
401.2669626724045
30
79.17457173440397
11
2321.4760231179307
21
401.6287340045123
31
79.17484104262641
  0
LINE
 8
Grouper#11
10
2318.4422252007425
20
496.984660298571
30
79.2458254814911
11
2318.275061223603
21
496.51134689566726
31
79.24547313961143
  0
LINE
 8
Grouper#11
10
2318.6590123471065
20
497.4373994247253
30
79.24616250755831
11
2318.4422252007425
21
496.984660298571
31
79.2458254814911
  0
LINE
 8
Grouper#11
10
2318.922939839621
20
497.864379136693
30
79.24648035791586
11
2318.6590123471065
21
497.4373994247253
31
79.24616250755831
  0
LINE
 8
Grouper#11
10
2319.5796197410705
20
498.621850862977
30
79.24704423168365
11
2319.230984965551
21
498.26070931484134
31
79.24677539228229
  0
LINE
 8
Grouper#11
10
2319.964851316606
20
498.9436676937744
30
79.24728379715211
11
2319.5796197410705
21
498.621850862977
31
79.24704423168365
  0
LINE
 8
Grouper#11
10
2320.382267706207
20
499.2224740986196
30
79.24749134498857
11
2319.964851316606
21
498.9436676937744
31
79.24728379715211
  0
LINE
 8
Grouper#11
10
2320.827088317201
20
499.4550769593472
30
79.2476644981862
11
2320.382267706207
21
499.2224740986196
31
79.24749134498857
  0
LINE
 8
Grouper#11
10
2321.29421870144
20
499.6388123184349
30
79.24780127365337
11
2320.827088317201
21
499.4550769593472
31
79.2476644981862
  0
LINE
 8
Grouper#11
10
2321.77830890107
20
499.77157588881266
30
79.2479001049259
11
2321.29421870144
21
499.6388123184349
31
79.24780127365337
  0
LINE
 8
Grouper#11
10
2322.2738147206123
20
499.8518471538764
30
79.24795986010768
11
2321.77830890107
21
499.77157588881266
31
79.2479001049259
  0
LINE
 8
Grouper#11
10
2322.7750612236036
20
499.87870678168
30
79.24797985483362
11
2322.2738147206123
21
499.8518471538764
31
79.24795986010768
  0
LINE
 8
Grouper#11
10
2322.7750612236036
20
499.87870678168
30
79.24797985483362
11
2324.198565971667
21
500.06611468516365
31
79.24811936420008
  0
LINE
 8
Grouper#11
10
2324.198565971667
20
500.06611468516365
30
79.24811936420008
11
2325.525061223603
21
500.6155668566983
31
79.24852838496676
  0
LINE
 8
Grouper#11
10
2325.525061223603
20
500.6155668566983
30
79.24852838496676
11
2326.664148520129
21
501.4896190388071
31
79.2491790430443
  0
LINE
 8
Grouper#11
10
2326.664148520129
20
501.4896190388071
30
79.2491790430443
11
2327.5382009444183
21
502.6287060197183
31
79.25002699715999
  0
LINE
 8
Grouper#11
10
2327.5382009444183
20
502.6287060197183
30
79.25002699715999
11
2328.0876532681923
21
503.9552009041125
31
79.25101446064218
  0
LINE
 8
Grouper#11
10
2328.0876532681923
20
503.9552009041125
30
79.25101446064218
11
2328.275061223603
21
505.378705257756
31
79.25207413948644
  0
LINE
 8
Grouper#11
10
2328.275061223603
20
505.378705257756
30
79.25207413948644
11
2328.0876532681923
21
506.8022096113991
31
79.25313381833062
  0
LINE
 8
Grouper#11
10
2328.0876532681923
20
506.8022096113991
30
79.25313381833062
11
2327.538200944417
21
508.1287044957936
31
79.25412128181283
  0
LINE
 8
Grouper#11
10
2327.538200944417
20
508.1287044957936
30
79.25412128181283
11
2326.6641485201285
21
509.2677914767045
31
79.25496923592851
  0
LINE
 8
Grouper#11
10
2326.6641485201285
20
509.2677914767045
30
79.25496923592851
11
2325.525061223603
21
510.1418436588126
31
79.25561989400606
  0
LINE
 8
Grouper#11
10
2325.525061223603
20
510.1418436588126
30
79.25561989400606
11
2324.198565971666
21
510.6912958303474
31
79.2560289147727
  0
LINE
 8
Grouper#11
10
2324.198565971666
20
510.6912958303474
30
79.2560289147727
11
2322.7750612236023
21
510.87870373383083
31
79.25616842413919
  0
LINE
 8
Grouper#11
10
2322.2738147206114
20
510.9055633616347
30
79.2561884188651
11
2322.7750612236023
21
510.87870373383083
31
79.25616842413919
  0
LINE
 8
Grouper#11
10
2321.778308901069
20
510.9858346266979
30
79.25624817404697
11
2322.2738147206114
21
510.9055633616347
31
79.2561884188651
  0
LINE
 8
Grouper#11
10
2321.294218701439
20
511.11859819707627
30
79.2563470053195
11
2321.778308901069
21
510.9858346266979
31
79.25624817404697
  0
LINE
 8
Grouper#11
10
2320.8270883171995
20
511.3023335561638
30
79.25648378078662
11
2321.294218701439
21
511.11859819707627
31
79.2563470053195
  0
LINE
 8
Grouper#11
10
2320.3822677062058
20
511.5349364168913
30
79.25665693398423
11
2320.8270883171995
21
511.3023335561638
31
79.25648378078662
  0
LINE
 8
Grouper#11
10
2319.5796197410696
20
512.1355596525336
30
79.25710404728918
11
2319.964851316605
21
511.8137428217363
31
79.2568644818207
  0
LINE
 8
Grouper#11
10
2319.23098496555
20
512.496701200669
30
79.25737288669053
11
2319.5796197410696
21
512.1355596525336
31
79.25710404728918
  0
LINE
 8
Grouper#11
10
2318.92293983962
20
512.8930313788176
30
79.25766792105702
11
2319.23098496555
21
512.496701200669
31
79.25737288669053
  0
LINE
 8
Grouper#11
10
2318.659012347106
20
513.3200110907854
30
79.25798577141451
11
2318.92293983962
21
512.8930313788176
31
79.25766792105702
  0
LINE
 8
Grouper#11
10
2318.4422252007425
20
513.7727502169399
30
79.25832279748167
11
2318.659012347106
21
513.3200110907854
31
79.25798577141451
  0
LINE
 8
Grouper#11
10
2318.2750612236023
20
514.2460636198427
30
79.25867513936139
11
2318.4422252007425
21
513.7727502169399
31
79.25832279748167
  0
LINE
 8
Grouper#11
10
2323.835721395383
20
504.31804537986034
30
79.25128456772946
11
2323.5250612236027
21
504.07966751201263
31
79.25110711552651
  0
LINE
 8
Grouper#11
10
2323.5250612236027
20
504.07966751201263
30
79.25110711552651
11
2323.163289791257
21
503.9298169197757
31
79.25099556440836
  0
LINE
 8
Grouper#11
10
2323.163289791257
20
503.9298169197757
30
79.25099556440836
11
2322.7750612236027
21
503.8787056733709
31
79.2509575163993
  0
LINE
 8
Grouper#11
10
2322.7750612236027
20
503.8787056733709
30
79.2509575163993
11
2322.386832655948
21
503.9298169197759
31
79.25099556440836
  0
LINE
 8
Grouper#11
10
2322.386832655948
20
503.9298169197759
30
79.25099556440836
11
2322.0250612236023
21
504.0796675120124
31
79.25110711552652
  0
LINE
 8
Grouper#11
10
2322.0250612236023
20
504.0796675120124
30
79.25110711552652
11
2321.7144010518236
21
504.3180453798598
31
79.25128456772946
  0
LINE
 8
Grouper#11
10
2321.7144010518236
20
504.3180453798598
30
79.25128456772946
11
2321.4760231179266
21
504.6287054655633
31
79.25151582794284
  0
LINE
 8
Grouper#11
10
2321.4760231179266
20
504.6287054655633
30
79.25151582794284
11
2321.326172484169
21
504.99047679767114
31
79.25178513616524
  0
LINE
 8
Grouper#11
10
2321.326172484169
20
504.99047679767114
30
79.25178513616524
11
2321.2750612236023
21
505.3787052577554
31
79.25207413948642
  0
LINE
 8
Grouper#11
10
2321.2750612236023
20
505.3787052577554
30
79.25207413948642
11
2321.326172484169
21
505.7669337178403
31
79.25236314280755
  0
LINE
 8
Grouper#11
10
2321.326172484169
20
505.7669337178403
30
79.25236314280755
11
2321.476023117927
21
506.1287050499477
31
79.25263245102994
  0
LINE
 8
Grouper#11
10
2321.476023117927
20
506.1287050499477
30
79.25263245102994
11
2321.714401051823
21
506.4393651356502
31
79.25286371124334
  0
LINE
 8
Grouper#11
10
2321.714401051823
20
506.4393651356502
30
79.25286371124334
11
2322.025061223603
21
506.6777430034983
31
79.2530411634463
  0
LINE
 8
Grouper#11
10
2322.025061223603
20
506.6777430034983
30
79.2530411634463
11
2322.386832655949
21
506.827593595735
31
79.25315271456446
  0
LINE
 8
Grouper#11
10
2322.386832655949
20
506.827593595735
30
79.25315271456446
11
2322.7750612236027
21
506.87870484213965
31
79.25319076257354
  0
LINE
 8
Grouper#11
10
2322.7750612236027
20
506.87870484213965
30
79.25319076257354
11
2323.163289791257
21
506.82759359573515
31
79.25315271456446
  0
LINE
 8
Grouper#11
10
2323.163289791257
20
506.82759359573515
30
79.25315271456446
11
2323.5250612236036
21
506.6777430034983
31
79.2530411634463
  0
LINE
 8
Grouper#11
10
2323.5250612236036
20
506.6777430034983
30
79.2530411634463
11
2323.8357213953827
21
506.4393651356507
31
79.25286371124335
  0
LINE
 8
Grouper#11
10
2323.8357213953827
20
506.4393651356507
30
79.25286371124335
11
2324.0740993292807
21
506.1287050499477
31
79.25263245102994
  0
LINE
 8
Grouper#11
10
2324.0740993292807
20
506.1287050499477
30
79.25263245102994
11
2324.2239499630364
21
505.7669337178401
31
79.25236314280757
  0
LINE
 8
Grouper#11
10
2324.2239499630364
20
505.7669337178401
30
79.25236314280757
11
2324.2750612236027
21
505.3787052577554
31
79.25207413948642
  0
LINE
 8
Grouper#11
10
2324.2750612236027
20
505.3787052577554
30
79.25207413948642
11
2324.2239499630364
21
504.9904767976708
31
79.25178513616524
  0
LINE
 8
Grouper#11
10
2324.2239499630364
20
504.9904767976708
30
79.25178513616524
11
2324.0740993292793
21
504.6287054655633
31
79.25151582794284
  0
LINE
 8
Grouper#11
10
2324.0740993292793
20
504.6287054655633
30
79.25151582794284
11
2323.835721395383
21
504.31804537986034
31
79.25128456772946
  0
LINE
 8
Grouper#11
10
2219.5740993292857
20
401.62873400450627
30
79.17484104262648
11
2219.7239499630423
21
401.2669626723988
31
79.17457173440404
  0
LINE
 8
Grouper#11
10
2213.511921502795
20
398.1287349742763
30
79.17223558875645
11
2214.385973927084
21
396.98964799336534
31
79.17138763464074
  0
LINE
 8
Grouper#11
10
2321.714401051828
20
401.9393940902147
30
79.17507230283972
11
2322.025061223608
21
402.17777195806275
31
79.17524975504273
  0
LINE
 8
Grouper#11
10
2212.962469179019
20
399.45522985867046
30
79.17322305223868
11
2213.511921502795
21
398.1287349742763
31
79.17223558875645
  0
LINE
 8
Grouper#11
10
2114.5250612235977
20
611.1777140489239
30
79.33083257184983
11
2114.835721395379
21
610.939336181076
31
79.33065511964686
  0
LINE
 8
Grouper#11
10
2219.7239499630423
20
401.2669626723988
30
79.17457173440404
11
2219.775061223609
21
400.87873421231393
31
79.1742827310829
  0
LINE
 8
Grouper#11
10
2109.4116178519957
20
613.2268632350218
30
79.33235799046591
11
2109.8859739270715
21
613.7677625221289
31
79.33276064433198
  0
LINE
 8
Grouper#11
10
2322.7750612236077
20
402.37873379670407
30
79.17539935417001
11
2323.1632897912627
21
402.3276225502997
31
79.17536130616102
  0
LINE
 8
Grouper#11
10
2328.275061223608
20
403.15690817414287
30
79.17597863931428
11
2323.2750612236077
21
408.1569067887566
31
79.17970071627147
  0
LINE
 8
Grouper#11
10
2115.0740993292757
20
610.6286760953728
30
79.33042385943355
11
2115.2239499630314
21
610.2669047632655
31
79.33015455121104
  0
LINE
 8
Grouper#11
10
2219.723949963043
20
400.4905057522297
30
79.17399372776174
11
2219.5740993292866
21
400.1287344201219
31
79.17372441953927
  0
LINE
 8
Grouper#11
10
2219.775061223609
20
400.87873421231393
30
79.1742827310829
11
2219.723949963043
21
400.4905057522297
31
79.17399372776174
  0
LINE
 8
Grouper#11
10
2322.386832655954
20
402.3276225502994
30
79.17536130616102
11
2322.7750612236077
21
402.37873379670407
31
79.17539935417001
  0
LINE
 8
Grouper#11
10
2153.741354744621
20
498.3558300771126
30
79.24684620166126
11
2183.741354744621
21
498.3558300771126
31
79.24684620166126
  0
LINE
 8
Grouper#11
10
2153.741354744621
20
473.3558370040416
30
79.2282358168757
11
2153.741354744621
21
498.3558300771126
31
79.24684620166126
  0
LINE
 8
Grouper#11
10
2183.741354744621
20
473.3558370040416
30
79.22823581687568
11
2153.741354744621
21
473.3558370040416
31
79.2282358168757
  0
LINE
 8
Grouper#11
10
2183.741354744621
20
498.3558300771126
30
79.24684620166126
11
2183.741354744621
21
473.3558370040416
31
79.22823581687568
  0
LINE
 8
Grouper#11
10
2110.4268733640506
20
614.2421184657718
30
79.33311376229528
11
2111.0250612235977
21
614.6418147042378
31
79.33341130240954
  0
LINE
 8
Grouper#11
10
2114.5691564491112
20
601.0654681336123
30
79.32330485826294
11
2115.7750612235986
21
599.1531612270174
31
79.32188130717412
  0
LINE
 8
Grouper#11
10
2315.496886630556
20
400.3787343508574
30
79.17391052338716
11
2320.496886630557
21
395.37873573624415
31
79.17018844643006
  0
POLYLINE
 8
Grouper#11
 66
     1
70
    8
 10
0.0
 20
 0.0
 30
0.0
  0
VERTEX
  8
MY3DLAYER
10
2206.1448424327596
20
586.125367228335
30
79.31218321411797
 70
     32
  0
VERTEX
  8
MY3DLAYER
10
2206.0793615873454
20
587.3289310883644
30
79.31307916582814
 70
     32
  0
VERTEX
  8
MY3DLAYER
10
2205.856201120634
20
588.5134365284546
30
79.3139609301533
 70
     32
  0
VERTEX
  8
MY3DLAYER
10
2205.7865682471897
20
588.7249183286274
30
79.31411836050401
 70
     32
  0
VERTEX
  8
MY3DLAYER
10
2206.1448424327596
20
586.125367228335
30
79.31218321411797
 70
     32
  0
SEQEND
  0
LINE
 8
Grouper#11
10
2115.275061223598
20
609.8786763031809
30
79.32986554788987
11
2115.2239499630314
21
609.4904478430967
31
79.32957654456885
  0
LINE
 8
Grouper#11
10
2116.81059512954
20
413.7635069530823
30
79.18387435688375
11
2115.775061223608
21
411.6042492884723
31
79.1822669717987
  0
LINE
 8
Grouper#11
10
2309.8902849127585
20
403.9142672771748
30
79.17654242924357
11
2312.0495431756485
21
402.878733658165
31
79.17577156186573
  0
LINE
 8
Grouper#11
10
2113.7750612235977
20
611.3786758875652
30
79.33098217097701
11
2114.1632897912514
21
611.3275646411606
31
79.33094412296796
  0
LINE
 8
Grouper#11
10
2153.741354744621
20
538.0558183113903
30
79.27639949213055
11
2183.741354744621
21
538.0558183113903
31
79.27639949213055
  0
LINE
 8
Grouper#11
10
2153.741354744621
20
514.878702625518
30
79.25914608570474
11
2153.741354744621
21
538.0558183113903
31
79.27639949213055
  0
LINE
 8
Grouper#11
10
2183.741354744621
20
514.878702625518
30
79.25914608570473
11
2153.741354744621
21
514.878702625518
31
79.25914608570474
  0
LINE
 8
Grouper#11
10
2183.741354744621
20
538.0558183113903
30
79.27639949213055
11
2183.741354744621
21
514.878702625518
31
79.25914608570473
  0
LINE
 8
Grouper#11
10
2118.2750612236073
20
420.2279712559939
30
79.1886866049415
11
2118.104690355054
21
418.2274739228091
31
79.18719740352353
  0
LINE
 8
Grouper#11
10
2118.104690355054
20
418.2274739228091
30
79.18719740352353
11
2117.605188242531
21
416.02256553420494
31
79.18555603532755
  0
LINE
 8
Grouper#11
10
2328.228007961164
20
400.16084035402224
30
79.1737483196972
11
2328.087653268198
21
399.45522985867706
31
79.17322305223863
  0
LINE
 8
Grouper#11
10
2328.275061223608
20
400.87873421232
30
79.17428273108284
11
2328.228007961164
21
400.16084035402224
31
79.1737483196972
  0
LINE
 8
Grouper#11
10
2327.856398652421
20
398.7739759174924
30
79.17271591617883
11
2327.5382009444224
21
398.12873497428274
31
79.17223558875641
  0
LINE
 8
Grouper#11
10
2328.087653268198
20
399.45522985867706
30
79.17322305223863
11
2327.856398652421
21
398.7739759174924
31
79.17271591617883
  0
LINE
 8
Grouper#11
10
2327.1385045952097
20
397.5305472804788
30
79.1717902885068
11
2326.664148520134
21
396.9896479933716
31
79.17138763464072
  0
LINE
 8
Grouper#11
10
2327.5382009444224
20
398.12873497428274
30
79.17223558875641
11
2327.1385045952097
21
397.5305472804788
31
79.1717902885068
  0
LINE
 8
Grouper#11
10
2126.659837534449
20
606.8431432383252
30
79.32760584972914
11
2124.500579271557
21
607.8786768573358
31
79.32837671710703
  0
LINE
 8
Grouper#11
10
2326.664148520134
20
396.9896479933716
30
79.17138763464072
11
2326.123249083157
21
396.51529204972826
31
79.17103451667742
  0
LINE
 8
Grouper#11
10
2131.12380574104
20
605.5490483713771
30
79.32664250532528
11
2128.918896741505
21
606.0485503455003
31
79.32701434238587
  0
LINE
 8
Grouper#11
10
2128.918896741505
20
606.0485503455003
30
79.32701434238587
11
2126.659837534449
21
606.8431432383252
31
79.32760584972914
  0
LINE
 8
Grouper#11
10
2118.104690355044
20
592.5299365926811
30
79.31695087544925
11
2118.2750612235986
21
590.529439259496
31
79.3154616740312
  0
LINE
 8
Grouper#11
10
2133.124303628517
20
605.3786775500292
30
79.32651567862841
11
2131.12380574104
21
605.5490483713771
31
79.32664250532528
  0
LINE
 8
Grouper#11
10
2116.0532358166492
20
615.3786747792557
30
79.33395983254269
11
2113.7750612235977
21
615.3786747792564
31
79.33395983254269
  0
LINE
 8
Grouper#11
10
2124.500579271557
20
607.8786768573358
30
79.32837671710703
11
2122.5882718351063
21
609.0845812976944
31
79.32927441118176
  0
LINE
 8
Grouper#11
10
2122.5882718351063
20
609.0845812976944
30
79.32927441118176
11
2121.053235816651
21
610.3786761646426
31
79.33023775558559
  0
LINE
 8
Grouper#11
10
2113.057167166387
20
615.3316215298494
30
79.33392480536992
11
2113.7750612235977
21
615.3786747792564
31
79.33395983254269
  0
LINE
 8
Grouper#11
10
2121.053235816651
20
610.3786761646426
30
79.33023775558559
11
2116.0532358166492
21
615.3786747792557
31
79.33395983254269
  0
LINE
 8
Grouper#11
10
2111.6703023456007
20
395.79739819141986
30
79.17050010529188
11
2112.3515564755444
21
395.56614363971744
31
79.1703279557966
  0
LINE
 8
Grouper#11
10
2109.885973927084
20
396.9896479933604
30
79.17138763464077
11
2110.426873364062
21
396.5152920497177
31
79.17103451667748
  0
LINE
 8
Grouper#11
10
2109.4116178520067
20
397.53054728046726
30
79.17179028850681
11
2109.885973927084
21
396.9896479933604
31
79.17138763464077
  0
LINE
 8
Grouper#11
10
2112.3515564755444
20
395.56614363971744
30
79.1703279557966
11
2113.057167166398
21
395.42578898563994
31
79.17022347360286
  0
LINE
 8
Grouper#11
10
2111.025061223609
20
396.11559581125186
30
79.17073697656326
11
2111.6703023456007
21
395.79739819141986
31
79.17050010529188
  0
LINE
 8
Grouper#11
10
2110.426873364062
20
396.5152920497177
30
79.17103451667748
11
2111.025061223609
21
396.11559581125186
31
79.17073697656326
  0
LINE
 8
Grouper#11
10
2109.011921502794
20
398.12873497427154
30
79.17223558875646
11
2109.4116178520067
21
397.53054728046726
31
79.17179028850681
  0
LINE
 8
Grouper#11
10
2216.8515564755453
20
395.5661436397228
30
79.17032795579655
11
2218.275061223609
21
395.37873573623847
31
79.17018844643007
  0
LINE
 8
Grouper#11
10
2108.6937237947977
20
398.77397591748115
30
79.17271591617889
11
2109.011921502794
21
398.12873497427154
31
79.17223558875646
  0
LINE
 8
Grouper#11
10
2114.163289791263
20
402.32762255028854
30
79.1753613061611
11
2114.52506122361
21
402.17777195805206
31
79.1752497550428
  0
LINE
 8
Grouper#11
10
2108.462469179019
20
399.45522985866586
30
79.17322305223867
11
2108.6937237947977
21
398.77397591748115
31
79.17271591617889
  0
LINE
 8
Grouper#11
10
2108.3221144860536
20
400.1608403540109
30
79.17374831969727
11
2108.462469179019
21
399.45522985866586
31
79.17322305223867
  0
LINE
 8
Grouper#11
10
2322.025061223608
20
399.5796964665772
30
79.17331570712294
11
2321.714401051828
21
399.81807433442384
31
79.17349315932594
  0
LINE
 8
Grouper#11
10
2322.3868326559545
20
399.4298458743401
30
79.17320415600472
11
2322.025061223608
21
399.5796964665772
31
79.17331570712294
  0
LINE
 8
Grouper#11
10
2219.025061223609
20
399.5796964665712
30
79.17331570712298
11
2218.6632897912623
21
399.4298458743348
31
79.17320415600477
  0
LINE
 8
Grouper#11
10
2112.3515564755335
20
615.1912668757724
30
79.33382032317623
11
2113.057167166387
21
615.3316215298494
31
79.33392480536992
  0
LINE
 8
Grouper#11
10
2111.67030234559
20
614.9600123240704
30
79.33364817368091
11
2112.3515564755335
21
615.1912668757724
31
79.33382032317623
  0
LINE
 8
Grouper#11
10
2111.0250612235977
20
614.6418147042378
30
79.33341130240954
11
2111.67030234559
21
614.9600123240704
31
79.33364817368091
  0
LINE
 8
Grouper#11
10
2109.8859739270715
20
613.7677625221289
30
79.33276064433198
11
2110.4268733640506
21
614.2421184657718
31
79.33311376229528
  0
LINE
 8
Grouper#11
10
2109.0119215027844
20
612.6286755412174
30
79.33191269021631
11
2109.4116178519957
21
613.2268632350218
31
79.33235799046591
  0
LINE
 8
Grouper#11
10
2108.6937237947855
20
611.9834345980082
30
79.33143236279389
11
2109.0119215027844
21
612.6286755412174
31
79.33191269021631
  0
LINE
 8
Grouper#11
10
2108.4624691790077
20
611.3021806568239
30
79.33092522673408
11
2108.6937237947855
21
611.9834345980082
31
79.33143236279389
  0
LINE
 8
Grouper#11
10
2108.3221144860427
20
610.596570161479
30
79.33039995927547
11
2108.4624691790077
21
611.3021806568239
31
79.33092522673408
  0
LINE
 8
Grouper#11
10
2108.2750612235977
20
609.8786763031806
30
79.32986554788987
11
2108.3221144860427
21
610.596570161479
31
79.33039995927547
  0
LINE
 8
Grouper#11
10
2108.2750612235977
20
609.8786763031806
30
79.32986554788987
11
2108.2750612235977
21
607.6005023413587
31
79.32816963965846
  0
LINE
 8
Grouper#11
10
2108.2750612235977
20
607.6005023413587
30
79.32816963965846
11
2113.275061223598
21
602.6005037267444
31
79.32444756270134
  0
LINE
 8
Grouper#11
10
2113.275061223598
20
602.6005037267444
30
79.32444756270134
11
2114.5691564491112
21
601.0654681336123
31
79.32330485826294
  0
LINE
 8
Grouper#11
10
2115.7750612235986
20
599.1531612270174
30
79.32188130717412
11
2116.8105951295315
21
596.9939035624072
31
79.320273922089
  0
LINE
 8
Grouper#11
10
2116.8105951295315
20
596.9939035624072
30
79.320273922089
11
2117.605188242522
21
594.7348449812848
31
79.3185922436453
  0
LINE
 8
Grouper#11
10
2113.3868326559436
20
611.3275646411603
30
79.33094412296796
11
2113.7750612235977
21
611.3786758875652
31
79.33098217097701
  0
LINE
 8
Grouper#11
10
2114.1632897912514
20
611.3275646411606
30
79.33094412296796
11
2114.5250612235977
21
611.1777140489239
31
79.33083257184983
  0
LINE
 8
Grouper#11
10
2115.2239499630314
20
610.2669047632655
30
79.33015455121104
11
2115.275061223598
21
609.8786763031809
31
79.32986554788987
  0
LINE
 8
Grouper#11
10
2115.2239499630314
20
609.4904478430967
30
79.32957654456885
11
2115.0740993292757
21
609.128676510989
31
79.32930723634631
  0
LINE
 8
Grouper#11
10
2115.0740993292757
20
609.128676510989
30
79.32930723634631
11
2114.835721395379
21
608.8180164252857
31
79.32907597613296
  0
LINE
 8
Grouper#11
10
2114.835721395379
20
608.8180164252857
30
79.32907597613296
11
2114.525061223599
21
608.5796385574384
31
79.32889852393006
  0
LINE
 8
Grouper#11
10
2113.7750612235977
20
608.3786767187966
30
79.32874892480272
11
2113.3868326559445
21
608.4297879652011
31
79.32878697281177
  0
LINE
 8
Grouper#11
10
2113.3868326559445
20
608.4297879652011
30
79.32878697281177
11
2113.025061223599
21
608.5796385574379
31
79.32889852393006
  0
LINE
 8
Grouper#11
10
2113.025061223599
20
608.5796385574379
30
79.32889852393006
11
2112.7144010518196
21
608.8180164252857
31
79.32907597613296
  0
LINE
 8
Grouper#11
10
2112.7144010518196
20
608.8180164252857
30
79.32907597613296
11
2112.4760231179225
21
609.1286765109879
31
79.32930723634632
  0
LINE
 8
Grouper#11
10
2112.4760231179225
20
609.1286765109879
30
79.32930723634632
11
2112.326172484164
21
609.4904478430964
31
79.32957654456885
  0
LINE
 8
Grouper#11
10
2112.326172484164
20
609.4904478430964
30
79.32957654456885
11
2112.275061223598
21
609.8786763031806
31
79.32986554788987
  0
LINE
 8
Grouper#11
10
2112.275061223598
20
609.8786763031806
30
79.32986554788987
11
2112.326172484164
21
610.2669047632655
31
79.33015455121104
  0
LINE
 8
Grouper#11
10
2112.326172484164
20
610.2669047632655
30
79.33015455121104
11
2112.476023117922
21
610.6286760953719
31
79.33042385943355
  0
LINE
 8
Grouper#11
10
2112.476023117922
20
610.6286760953719
30
79.33042385943355
11
2112.7144010518196
21
610.9393361810759
31
79.33065511964686
  0
LINE
 8
Grouper#11
10
2112.7144010518196
20
610.9393361810759
30
79.33065511964686
11
2113.0250612235977
21
611.1777140489235
31
79.33083257184983
  0
LINE
 8
Grouper#11
10
2113.0250612235977
20
611.1777140489235
30
79.33083257184983
11
2113.3868326559436
21
611.3275646411603
31
79.33094412296796
  0
LINE
 8
Grouper#11
10
2124.500579271568
20
402.8787336581547
30
79.17577156186576
11
2126.6598375344597
21
403.91426727716595
31
79.1765424292436
  0
LINE
 8
Grouper#11
10
2226.216369256994
20
404.99478194834796
30
79.17734678121838
11
2225.78938942672
21
404.73085452896225
31
79.17715030953077
  0
LINE
 8
Grouper#11
10
2209.881013938625
20
405.2115690346444
30
79.17750816090677
11
2209.4077004045785
21
405.3787329654659
31
79.17763260034434
  0
LINE
 8
Grouper#11
10
2211.51820495666
20
404.0741748094634
30
79.17666146690486
11
2211.1570633084602
21
404.4228094883834
31
79.17692099599785
  0
LINE
 8
Grouper#11
10
2114.525061223609
20
399.5796964665666
30
79.17331570712298
11
2114.1632897912623
21
399.4298458743298
31
79.17320415600477
  0
LINE
 8
Grouper#11
10
2303.425818818692
20
405.3787329654719
30
79.17763260034437
11
2305.426316706167
21
405.20836214412316
31
79.17750577364743
  0
LINE
 8
Grouper#11
10
2113.3868326559545
20
399.4298458743292
30
79.17320415600477
11
2113.0250612236086
21
399.57969646656557
31
79.17331570712298
  0
LINE
 8
Grouper#11
10
2326.123249083157
20
396.51529204972826
30
79.17103451667742
11
2325.5250612236086
21
396.115595811263
31
79.1707369765632
  0
LINE
 8
Grouper#11
10
2108.275061223608
20
400.8787342123093
30
79.17428273108291
11
2108.3221144860536
21
400.1608403540109
31
79.17374831969727
  0
LINE
 8
Grouper#11
10
2254.2274722949155
20
514.878702625518
30
79.25914608570474
11
2254.2274722949155
21
538.0558183113903
31
79.27639949213055
  0
LINE
 8
Grouper#11
10
2254.2274722949155
20
538.0558183113903
30
79.27639949213055
11
2284.227472294916
21
538.0558183113903
31
79.27639949213055
  0
LINE
 8
Grouper#11
10
2284.227472294916
20
473.3558370040416
30
79.22823581687568
11
2254.2274722949155
21
473.3558370040416
31
79.2282358168757
  0
LINE
 8
Grouper#11
10
2254.2274722949155
20
473.3558370040416
30
79.2282358168757
11
2254.2274722949155
21
498.3558300771126
31
79.24684620166126
  0
LINE
 8
Grouper#11
10
2217.8868326559555
20
402.32762255029377
30
79.1753613061611
11
2218.275061223609
21
402.3787337966982
31
79.17539935417005
  0
LINE
 8
Grouper#11
10
2218.275061223609
20
402.3787337966982
30
79.17539935417005
11
2218.663289791263
21
402.3276225502942
31
79.1753613061611
  0
LINE
 8
Grouper#11
10
2218.663289791263
20
402.3276225502942
30
79.1753613061611
11
2219.025061223609
21
402.17777195805706
31
79.17524975504278
  0
LINE
 8
Grouper#11
10
2219.025061223609
20
402.17777195805706
30
79.17524975504278
11
2219.3357213953896
21
401.93939409020936
31
79.1750723028398
  0
LINE
 8
Grouper#11
10
2219.3357213953896
20
401.93939409020936
30
79.1750723028398
11
2219.5740993292857
21
401.62873400450627
31
79.17484104262648
  0
LINE
 8
Grouper#11
10
2323.5250612236086
20
399.57969646657733
30
79.17331570712294
11
2323.1632897912627
21
399.4298458743406
31
79.17320415600472
  0
LINE
 8
Grouper#11
10
2321.4760231179307
20
401.6287340045123
30
79.17484104262641
11
2321.714401051828
21
401.9393940902147
31
79.17507230283972
  0
LINE
 8
Grouper#11
10
2318.4454320921623
20
418.2274739228194
30
79.18719740352348
11
2318.2750612236073
21
420.22797125600397
31
79.18868660494137
  0
LINE
 8
Grouper#11
10
2112.326172484175
20
401.26696267239373
30
79.17457173440404
11
2112.476023117932
21
401.62873400450155
31
79.17484104262644
  0
LINE
 8
Grouper#11
10
2112.275061223608
20
400.87873421230944
30
79.17428273108291
11
2112.326172484175
21
401.26696267239373
31
79.17457173440404
  0
LINE
 8
Grouper#11
10
2112.3261724841764
20
400.490505752225
30
79.17399372776174
11
2112.275061223608
21
400.87873421230944
31
79.17428273108291
  0
LINE
 8
Grouper#11
10
2112.476023117933
20
400.12873442011715
30
79.17372441953927
11
2112.3261724841764
21
400.490505752225
31
79.17399372776174
  0
LINE
 8
Grouper#11
10
2114.835721395389
20
401.93939409020425
30
79.17507230283981
11
2115.0740993292848
21
401.62873400450167
31
79.17484104262644
  0
LINE
 8
Grouper#11
10
2114.52506122361
20
402.17777195805206
30
79.1752497550428
11
2114.835721395389
21
401.93939409020425
31
79.17507230283981
  0
LINE
 8
Grouper#11
10
2328.275061223608
20
400.87873421232
30
79.17428273108284
11
2328.275061223608
21
403.15690817414287
31
79.17597863931428
  0
LINE
 8
Grouper#11
10
2218.6632897912623
20
399.4298458743348
30
79.17320415600477
11
2218.275061223609
21
399.37873462793004
31
79.17316610799578
  0
LINE
 8
Grouper#11
10
2218.275061223609
20
399.37873462793004
30
79.17316610799578
11
2217.8868326559545
21
399.4298458743347
31
79.17320415600477
  0
LINE
 8
Grouper#11
10
2305.426316706167
20
405.20836214412316
30
79.17750577364743
11
2307.6312257057016
21
404.7088601700007
31
79.17713393658684
  0
LINE
 8
Grouper#11
10
2307.6312257057016
20
404.7088601700007
30
79.17713393658684
11
2309.8902849127585
21
403.9142672771748
31
79.17654242924357
  0
LINE
 8
Grouper#11
10
2312.0495431756485
20
402.878733658165
30
79.17577156186573
11
2313.9618506121005
21
401.67282921780674
31
79.17487386779096
  0
LINE
 8
Grouper#11
10
2313.9618506121005
20
401.67282921780674
30
79.17487386779096
11
2315.496886630556
21
400.3787343508574
31
79.17391052338716
  0
LINE
 8
Grouper#11
10
2320.496886630557
20
395.37873573624415
30
79.17018844643006
11
2322.7750612236086
21
395.37873573624455
31
79.17018844643006
  0
LINE
 8
Grouper#11
10
2323.4929552808185
20
395.42578898565074
30
79.17022347360282
11
2322.7750612236086
21
395.37873573624455
31
79.17018844643006
  0
LINE
 8
Grouper#11
10
2324.1985659716725
20
395.5661436397277
30
79.17032795579651
11
2323.4929552808185
21
395.42578898565074
31
79.17022347360282
  0
LINE
 8
Grouper#11
10
2324.8798201016166
20
395.7973981914309
30
79.17050010529181
11
2324.1985659716725
21
395.5661436397277
31
79.17032795579651
  0
LINE
 8
Grouper#11
10
2325.5250612236086
20
396.115595811263
30
79.1707369765632
11
2324.8798201016166
21
395.7973981914309
31
79.17050010529181
  0
LINE
 8
Grouper#11
10
2323.2750612236077
20
408.1569067887566
30
79.17970071627147
11
2321.980965998095
21
409.69194238188834
31
79.18084342070986
  0
LINE
 8
Grouper#11
10
2321.980965998095
20
409.69194238188834
30
79.18084342070986
11
2320.7750612236077
21
411.6042492884832
31
79.18226697179868
  0
LINE
 8
Grouper#11
10
2320.7750612236077
20
411.6042492884832
30
79.18226697179868
11
2319.7395273176753
21
413.7635069530928
31
79.18387435688372
  0
LINE
 8
Grouper#11
10
2319.7395273176753
20
413.7635069530928
30
79.18387435688372
11
2318.9449342046864
21
416.02256553421614
31
79.18555603532748
  0
LINE
 8
Grouper#11
10
2318.9449342046864
20
416.02256553421614
30
79.18555603532748
11
2318.4454320921623
21
418.2274739228194
31
79.18719740352348
  0
LINE
 8
Grouper#11
10
2323.5250612236077
20
402.17777195806303
30
79.17524975504273
11
2323.8357213953877
21
401.93939409021533
31
79.17507230283972
  0
LINE
 8
Grouper#11
10
2323.8357213953877
20
401.93939409021533
30
79.17507230283972
11
2324.0740993292843
21
401.6287340045122
31
79.17484104262641
  0
LINE
 8
Grouper#11
10
2324.0740993292843
20
401.6287340045122
30
79.17484104262641
11
2324.223949963042
21
401.26696267240385
31
79.17457173440397
  0
LINE
 8
Grouper#11
10
2324.223949963042
20
401.26696267240385
30
79.17457173440397
11
2324.275061223608
21
400.8787342123199
31
79.17428273108284
  0
LINE
 8
Grouper#11
10
2324.275061223608
20
400.8787342123199
30
79.17428273108284
11
2324.2239499630423
21
400.49050575223526
31
79.1739937277617
  0
LINE
 8
Grouper#11
10
2324.2239499630423
20
400.49050575223526
30
79.1739937277617
11
2324.0740993292866
21
400.128734420128
31
79.17372441953924
  0
LINE
 8
Grouper#11
10
2324.0740993292866
20
400.128734420128
30
79.17372441953924
11
2323.8357213953877
21
399.81807433442464
31
79.17349315932591
  0
LINE
 8
Grouper#11
10
2323.8357213953877
20
399.81807433442464
30
79.17349315932591
11
2323.5250612236086
21
399.57969646657733
31
79.17331570712294
  0
LINE
 8
Grouper#11
10
2323.1632897912627
20
399.4298458743406
30
79.17320415600472
11
2322.7750612236077
21
399.3787346279355
31
79.17316610799574
  0
LINE
 8
Grouper#11
10
2322.7750612236077
20
399.3787346279355
30
79.17316610799574
11
2322.3868326559545
21
399.4298458743401
31
79.17320415600472
  0
LINE
 8
Grouper#11
10
2321.714401051828
20
399.81807433442384
30
79.17349315932594
11
2321.476023117933
21
400.12873442012756
31
79.17372441953924
  0
LINE
 8
Grouper#11
10
2321.476023117933
20
400.12873442012756
30
79.17372441953924
11
2321.326172484175
21
400.4905057522357
31
79.17399372776167
  0
LINE
 8
Grouper#11
10
2321.326172484175
20
400.4905057522357
30
79.17399372776167
11
2321.2750612236077
21
400.8787342123202
31
79.17428273108284
  0
LINE
 8
Grouper#11
10
2321.2750612236077
20
400.8787342123202
30
79.17428273108284
11
2321.326172484174
21
401.2669626724045
31
79.17457173440397
  0
LINE
 8
Grouper#11
10
2322.025061223608
20
402.17777195806275
30
79.17524975504273
11
2322.386832655954
21
402.3276225502994
31
79.17536130616102
  0
LINE
 8
Grouper#11
10
2210.3337531902234
20
404.9947819483475
30
79.17734678121836
11
2209.881013938625
21
405.2115690346444
31
79.17750816090677
  0
LINE
 8
Grouper#11
10
2210.7607330204974
20
404.7308545289614
30
79.17715030953075
11
2210.3337531902234
21
404.9947819483475
31
79.17734678121836
  0
LINE
 8
Grouper#11
10
2211.1570633084602
20
404.4228094883834
30
79.17692099599785
11
2210.7607330204974
21
404.7308545289614
31
79.17715030953075
  0
LINE
 8
Grouper#11
10
2211.8400218766265
20
403.6889433406664
30
79.17637469459079
11
2211.51820495666
21
404.0741748094634
31
79.17666146690486
  0
LINE
 8
Grouper#11
10
2212.118828358721
20
403.27152706672126
30
79.17606396340571
11
2211.8400218766265
21
403.6889433406664
31
79.17637469459079
  0
LINE
 8
Grouper#11
10
2212.351431283898
20
402.8267065789775
30
79.17573283209651
11
2212.118828358721
21
403.27152706672126
31
79.17606396340571
  0
LINE
 8
Grouper#11
10
2212.5351666938946
20
402.35957632416955
30
79.17538509304866
11
2212.351431283898
21
402.8267065789775
31
79.17573283209651
  0
LINE
 8
Grouper#11
10
2212.6679303010587
20
401.87548625866987
30
79.17502472885326
11
2212.5351666938946
21
402.35957632416955
31
79.17538509304866
  0
LINE
 8
Grouper#11
10
2212.7482015883634
20
401.37998057642096
30
79.1746558666946
11
2212.6679303010587
21
401.87548625866987
31
79.17502472885326
  0
LINE
 8
Grouper#11
10
2212.775061223609
20
400.87873421231393
30
79.17428273108291
11
2212.7482015883634
21
401.37998057642096
31
79.1746558666946
  0
LINE
 8
Grouper#11
10
2212.775061223609
20
400.87873421231393
30
79.17428273108291
11
2212.962469179019
21
399.45522985867046
31
79.17322305223868
  0
LINE
 8
Grouper#11
10
2214.385973927084
20
396.98964799336534
30
79.17138763464074
11
2215.525061223609
21
396.1155958112568
31
79.17073697656322
  0
LINE
 8
Grouper#11
10
2215.525061223609
20
396.1155958112568
30
79.17073697656322
11
2216.8515564755453
21
395.5661436397228
31
79.17032795579655
  0
LINE
 8
Grouper#11
10
2218.275061223609
20
395.37873573623847
30
79.17018844643007
11
2219.6985659716734
21
395.5661436397223
31
79.17032795579655
  0
LINE
 8
Grouper#11
10
2219.6985659716734
20
395.5661436397223
30
79.17032795579655
11
2221.0250612236096
21
396.1155958112578
31
79.17073697656322
  0
LINE
 8
Grouper#11
10
2221.0250612236096
20
396.1155958112578
30
79.17073697656322
11
2222.1641485201353
21
396.9896479933662
31
79.17138763464074
  0
LINE
 8
Grouper#11
10
2222.1641485201353
20
396.9896479933662
30
79.17138763464074
11
2223.0382009444234
21
398.1287349742764
31
79.17223558875645
  0
LINE
 8
Grouper#11
10
2223.0382009444234
20
398.1287349742764
30
79.17223558875645
11
2223.5876532681987
21
399.4552298586712
31
79.17322305223868
  0
LINE
 8
Grouper#11
10
2223.5876532681987
20
399.4552298586712
30
79.17322305223868
11
2223.7750612236086
21
400.87873421231495
31
79.1742827310829
  0
LINE
 8
Grouper#11
10
2223.801920858855
20
401.37998057642176
30
79.1746558666946
11
2223.7750612236086
21
400.87873421231495
31
79.1742827310829
  0
LINE
 8
Grouper#11
10
2223.8821921461604
20
401.87548625867066
30
79.17502472885326
11
2223.801920858855
21
401.37998057642176
31
79.1746558666946
  0
LINE
 8
Grouper#11
10
2224.014955753324
20
402.35957632417035
30
79.17538509304866
11
2223.8821921461604
21
401.87548625867066
31
79.17502472885326
  0
LINE
 8
Grouper#11
10
2224.19869116332
20
402.8267065789789
30
79.17573283209651
11
2224.014955753324
21
402.35957632417035
31
79.17538509304866
  0
LINE
 8
Grouper#11
10
2224.4312940884965
20
403.2715270667226
30
79.17606396340571
11
2224.19869116332
21
402.8267065789789
31
79.17573283209651
  0
LINE
 8
Grouper#11
10
2224.710100570593
20
403.6889433406672
30
79.17637469459079
11
2224.4312940884965
21
403.2715270667226
31
79.17606396340571
  0
LINE
 8
Grouper#11
10
2225.0319174905576
20
404.074174809464
30
79.17666146690487
11
2224.710100570593
21
403.6889433406672
31
79.17637469459079
  0
LINE
 8
Grouper#11
10
2225.393059138757
20
404.4228094883843
30
79.17692099599785
11
2225.0319174905576
21
404.074174809464
31
79.17666146690487
  0
LINE
 8
Grouper#11
10
2225.78938942672
20
404.73085452896225
30
79.17715030953077
11
2225.393059138757
21
404.4228094883843
31
79.17692099599785
  0
LINE
 8
Grouper#11
10
2226.6691085085918
20
405.2115690346447
30
79.1775081609068
11
2226.216369256994
21
404.99478194834796
31
79.17734678121838
  0
LINE
 8
Grouper#11
10
2217.214401051829
20
399.81807433441895
30
79.17349315932597
11
2216.976023117933
21
400.1287344201225
31
79.17372441953927
  0
LINE
 8
Grouper#11
10
2216.976023117933
20
400.1287344201225
30
79.17372441953927
11
2216.8261724841755
21
400.49050575223015
31
79.17399372776174
  0
LINE
 8
Grouper#11
10
2216.8261724841755
20
400.49050575223015
30
79.17399372776174
11
2216.7750612236086
21
400.87873421231455
31
79.1742827310829
  0
LINE
 8
Grouper#11
10
2216.7750612236086
20
400.87873421231455
30
79.1742827310829
11
2216.8261724841755
21
401.26696267239925
31
79.17457173440404
  0
LINE
 8
Grouper#11
10
2216.8261724841755
20
401.26696267239925
30
79.17457173440404
11
2216.976023117932
21
401.6287340045074
31
79.17484104262645
  0
LINE
 8
Grouper#11
10
2216.976023117932
20
401.6287340045074
30
79.17484104262645
11
2217.2144010518296
21
401.93939409020896
31
79.1750723028398
  0
LINE
 8
Grouper#11
10
2217.2144010518296
20
401.93939409020896
30
79.1750723028398
11
2217.5250612236086
21
402.1777719580571
31
79.17524975504278
  0
LINE
 8
Grouper#11
10
2217.5250612236086
20
402.1777719580571
30
79.17524975504278
11
2217.8868326559555
21
402.32762255029377
31
79.1753613061611
  0
LINE
 8
Grouper#11
10
2219.5740993292866
20
400.1287344201219
30
79.17372441953927
11
2219.3357213953886
21
399.81807433441924
31
79.17349315932597
  0
LINE
 8
Grouper#11
10
2219.3357213953886
20
399.81807433441924
30
79.17349315932597
11
2219.025061223609
21
399.5796964665712
31
79.17331570712298
  0
LINE
 8
Grouper#11
10
2217.8868326559545
20
399.4298458743347
30
79.17320415600477
11
2217.5250612236086
21
399.5796964665714
31
79.17331570712298
  0
LINE
 8
Grouper#11
10
2217.5250612236086
20
399.5796964665714
30
79.17331570712298
11
2217.214401051829
21
399.81807433441895
31
79.17349315932597
  0
LINE
 8
Grouper#11
10
2131.123805741049
20
405.2083621441143
30
79.17750577364751
11
2133.124303628527
21
405.3787329654631
31
79.17763260034427
  0
LINE
 8
Grouper#11
10
2117.605188242531
20
416.02256553420494
30
79.18555603532755
11
2116.81059512954
21
413.7635069530823
31
79.18387435688375
  0
LINE
 8
Grouper#11
10
2115.775061223608
20
411.6042492884723
30
79.1822669717987
11
2114.5691564491203
21
409.6919423818779
31
79.18084342070989
  0
LINE
 8
Grouper#11
10
2114.5691564491203
20
409.6919423818779
30
79.18084342070989
11
2113.2750612236077
21
408.15690678874523
31
79.1797007162715
  0
LINE
 8
Grouper#11
10
2113.2750612236077
20
408.15690678874523
30
79.1797007162715
11
2108.275061223608
21
403.156908174131
31
79.17597863931434
  0
LINE
 8
Grouper#11
10
2108.275061223608
20
403.156908174131
30
79.17597863931434
11
2108.275061223608
21
400.8787342123093
31
79.17428273108291
  0
LINE
 8
Grouper#11
10
2113.057167166398
20
395.42578898563994
30
79.17022347360286
11
2113.775061223609
21
395.37873573623386
31
79.17018844643007
  0
LINE
 8
Grouper#11
10
2113.775061223609
20
395.37873573623386
30
79.17018844643007
11
2116.0532358166606
21
395.37873573623443
31
79.17018844643007
  0
LINE
 8
Grouper#11
10
2116.0532358166606
20
395.37873573623443
30
79.17018844643007
11
2121.0532358166615
21
400.37873435084794
31
79.1739105233872
  0
LINE
 8
Grouper#11
10
2121.0532358166615
20
400.37873435084794
30
79.1739105233872
11
2122.5882718351163
21
401.6728292177966
31
79.174873867791
  0
LINE
 8
Grouper#11
10
2122.5882718351163
20
401.6728292177966
30
79.174873867791
11
2124.500579271568
21
402.8787336581547
31
79.17577156186576
  0
LINE
 8
Grouper#11
10
2126.6598375344597
20
403.91426727716595
30
79.1765424292436
11
2128.9188967415157
21
404.708860169991
31
79.17713393658684
  0
LINE
 8
Grouper#11
10
2128.9188967415157
20
404.708860169991
30
79.17713393658684
11
2131.123805741049
21
405.2083621441143
31
79.17750577364751
  0
LINE
 8
Grouper#11
10
2112.476023117932
20
401.62873400450155
30
79.17484104262644
11
2112.7144010518296
21
401.93939409020436
31
79.17507230283981
  0
LINE
 8
Grouper#11
10
2112.7144010518296
20
401.93939409020436
30
79.17507230283981
11
2113.0250612236096
21
402.17777195805144
31
79.17524975504276
  0
LINE
 8
Grouper#11
10
2113.0250612236096
20
402.17777195805144
30
79.17524975504276
11
2113.386832655956
21
402.3276225502888
31
79.1753613061611
  0
LINE
 8
Grouper#11
10
2113.386832655956
20
402.3276225502888
30
79.1753613061611
11
2113.7750612236086
21
402.37873379669304
31
79.1753993541701
  0
LINE
 8
Grouper#11
10
2113.7750612236086
20
402.37873379669304
30
79.1753993541701
11
2114.163289791263
21
402.32762255028854
31
79.1753613061611
  0
LINE
 8
Grouper#11
10
2115.0740993292848
20
401.62873400450167
30
79.17484104262644
11
2115.2239499630423
21
401.266962672394
31
79.17457173440404
  0
LINE
 8
Grouper#11
10
2115.2239499630423
20
401.266962672394
30
79.17457173440404
11
2115.2750612236086
21
400.8787342123097
31
79.17428273108291
  0
LINE
 8
Grouper#11
10
2115.2750612236086
20
400.8787342123097
30
79.17428273108291
11
2115.2239499630427
21
400.49050575222475
31
79.17399372776174
  0
LINE
 8
Grouper#11
10
2115.2239499630427
20
400.49050575222475
30
79.17399372776174
11
2115.0740993292866
21
400.1287344201169
31
79.17372441953927
  0
LINE
 8
Grouper#11
10
2115.0740993292866
20
400.1287344201169
30
79.17372441953927
11
2114.835721395388
21
399.8180743344139
31
79.173493159326
  0
LINE
 8
Grouper#11
10
2114.835721395388
20
399.8180743344139
30
79.173493159326
11
2114.525061223609
21
399.5796964665666
31
79.17331570712298
  0
LINE
 8
Grouper#11
10
2114.1632897912623
20
399.4298458743298
30
79.17320415600477
11
2113.7750612236086
21
399.37873462792487
31
79.17316610799581
  0
LINE
 8
Grouper#11
10
2113.7750612236086
20
399.37873462792487
30
79.17316610799581
11
2113.3868326559545
21
399.4298458743292
31
79.17320415600477
  0
LINE
 8
Grouper#11
10
2113.0250612236086
20
399.57969646656557
30
79.17331570712298
11
2112.7144010518286
21
399.81807433441435
31
79.173493159326
  0
LINE
 8
Grouper#11
10
2112.7144010518286
20
399.81807433441435
30
79.173493159326
11
2112.476023117933
21
400.12873442011715
31
79.17372441953927
  0
LINE
 8
Grouper#11
10
2254.2274722949155
20
498.3558300771126
30
79.24684620166126
11
2284.227472294916
21
498.3558300771126
31
79.24684620166126
  0
LINE
 8
Grouper#11
10
2284.227472294916
20
514.878702625518
30
79.25914608570473
11
2254.2274722949155
21
514.878702625518
31
79.25914608570474
  0
LINE
 8
Grouper#11
10
2284.227472294916
20
538.0558183113903
30
79.27639949213055
11
2284.227472294916
21
514.878702625518
31
79.25914608570473
  0
LINE
 8
Grouper#11
10
2284.227472294916
20
498.3558300771126
30
79.24684620166126
11
2284.227472294916
21
473.3558370040416
31
79.22823581687568
  0
LINE
 8
Grouper#11
10
2279.2274722949155
20
478.35567647280266
30
79.445744192703
11
2281.127472294915
21
478.3556764728229
31
79.44574419270302
  0
LINE
 8
Grouper#11
10
2259.227472294915
20
493.35567231664555
30
79.45691042357434
11
2259.227472294915
21
495.855671623953
31
79.45877146205292
  0
LINE
 8
Grouper#11
10
2279.2274722949155
20
493.35567231664555
30
79.45691042357434
11
2279.2274722949155
21
495.65567167936814
31
79.45862257897461
  0
LINE
 8
Grouper#11
10
2279.2274722949155
20
493.35567231664555
30
79.45691042357434
11
2281.127472294915
21
493.35567231664555
31
79.45691042357434
  0
LINE
 8
Grouper#11
10
2259.227472294915
20
478.35567647280266
30
79.445744192703
11
2259.227472294915
21
476.2556770546851
31
79.44418092038107
  0
LINE
 8
Grouper#11
10
2259.227472294915
20
478.35567647280266
30
79.445744192703
11
2256.9274722949153
21
478.3556764728229
31
79.44574419270302
  0
LINE
 8
Grouper#11
10
2178.741354744621
20
493.3556723166428
30
79.45691042357434
11
2178.741354744621
21
495.65567167936547
31
79.45862257897464
  0
LINE
 8
Grouper#11
10
2178.741354744621
20
478.3556764727999
30
79.445744192703
11
2178.741354744621
21
476.2556770546824
31
79.44418092038103
  0
LINE
 8
Grouper#11
10
2158.741354744621
20
493.3556723166428
30
79.45691042357434
11
2156.4413547446206
21
493.3556723166428
31
79.45691042357434
  0
LINE
 8
Grouper#11
10
2158.741354744621
20
493.3556723166428
30
79.45691042357434
11
2158.741354744621
21
495.85567162395034
31
79.45877146205288
  0
LINE
 8
Grouper#11
10
2178.741354744621
20
493.3556723166428
30
79.45691042357434
11
2180.641354744621
21
493.3556723166428
31
79.45691042357434
  0
LINE
 8
Grouper#11
10
2178.741354744621
20
478.3556764727999
30
79.445744192703
11
2180.641354744621
21
478.35567647282016
31
79.44574419270302
  0
LINE
 8
Grouper#11
10
2158.741354744621
20
478.3556764727999
30
79.445744192703
11
2158.741354744621
21
476.2556770546824
31
79.44418092038103
  0
LINE
 8
Grouper#11
10
2279.2274722949155
20
518.0556647069998
30
79.47529748317217
11
2281.127472294915
21
518.0556647069997
31
79.47529748317217
  0
LINE
 8
Grouper#11
10
2259.227472294915
20
493.35567231664555
30
79.45691042357434
11
2256.9274722949153
21
493.35567231664555
31
79.45691042357434
  0
LINE
 8
Grouper#11
10
2279.2274722949155
20
478.35567647280266
30
79.445744192703
11
2279.2274722949155
21
476.2556770546851
31
79.44418092038107
  0
LINE
 8
Grouper#11
10
2158.741354744621
20
478.3556764727999
30
79.445744192703
11
2156.4413547446206
21
478.35567647282016
31
79.44574419270302
  0
LINE
 8
Grouper#11
10
2279.2274722949155
20
533.0556605508225
30
79.4864637140435
11
2281.127472294915
21
533.0556605508225
31
79.4864637140435
  0
LINE
 8
Grouper#11
10
2259.227472294915
20
518.0556647069998
30
79.47529748317217
11
2256.9274722949153
21
518.0556647069997
31
79.47529748317217
  0
LINE
 8
Grouper#11
10
2279.2274722949155
20
533.0556605508225
30
79.4864637140435
11
2279.2274722949155
21
535.3556599135451
31
79.48817586944372
  0
LINE
 8
Grouper#11
10
2279.2274722949155
20
518.0556647069998
30
79.47529748317217
11
2279.2274722949155
21
515.9556652888616
31
79.47373421085015
  0
LINE
 8
Grouper#11
10
2259.227472294915
20
533.0556605508225
30
79.4864637140435
11
2259.227472294915
21
535.5556598581296
31
79.488324752522
  0
LINE
 8
Grouper#11
10
2259.227472294915
20
533.0556605508225
30
79.4864637140435
11
2256.9274722949153
21
533.0556605508225
31
79.4864637140435
  0
LINE
 8
Grouper#11
10
2259.227472294915
20
518.0556647069998
30
79.47529748317217
11
2259.227472294915
21
515.9556652888616
31
79.47373421085015
  0
LINE
 8
Grouper#11
10
2178.741354744621
20
533.0556605509207
30
79.48646371404355
11
2180.641354744621
21
533.0556605509207
31
79.48646371404355
  0
LINE
 8
Grouper#11
10
2178.741354744621
20
533.0556605509207
30
79.48646371404355
11
2178.741354744621
21
535.3556599136432
31
79.48817586944382
  0
LINE
 8
Grouper#11
10
2178.741354744621
20
518.055664707098
30
79.47529748317221
11
2180.641354744621
21
518.055664707098
31
79.47529748317221
  0
LINE
 8
Grouper#11
10
2178.741354744621
20
518.055664707098
30
79.47529748317221
11
2178.741354744621
21
515.9556652889598
31
79.47373421085025
  0
LINE
 8
Grouper#11
10
2158.741354744621
20
518.055664707098
30
79.47529748317221
11
2158.741354744621
21
515.9556652889598
31
79.47373421085025
  0
LINE
 8
Grouper#11
10
2158.741354744621
20
518.055664707098
30
79.47529748317221
11
2156.4413547446206
21
518.055664707098
31
79.47529748317221
  0
LINE
 8
Grouper#11
10
2158.741354744621
20
533.0556605509207
30
79.48646371404355
11
2156.4413547446206
21
533.0556605509207
31
79.48646371404355
  0
LINE
 8
Grouper#11
10
2158.741354744621
20
533.0556605509207
30
79.48646371404355
11
2158.741354744621
21
535.555659858228
31
79.4883247525221
  0
LINE
 8
Grouper#11
10
2305.426316706157
20
605.5490483713864
30
79.32664250532535
11
2303.425818818682
21
605.3786775500367
31
79.3265156786284
  0
LINE
 8
Grouper#11
10
2318.275061223598
20
590.5294392595063
30
79.31546167403121
11
2318.4454320921536
21
592.5299365926909
31
79.31695087544927
  0
LINE
 8
Grouper#11
10
2318.4454320921536
20
592.5299365926909
30
79.31695087544927
11
2318.944934204676
21
594.7348449812944
31
79.31859224364533
  0
LINE
 8
Grouper#11
10
2318.944934204676
20
594.7348449812944
30
79.31859224364533
11
2319.7395273176653
21
596.9939035624176
31
79.32027392208904
  0
LINE
 8
Grouper#11
10
2319.7395273176653
20
596.9939035624176
30
79.32027392208904
11
2320.775061223598
21
599.1531612270279
31
79.32188130717417
  0
LINE
 8
Grouper#11
10
2320.775061223598
20
599.1531612270279
30
79.32188130717417
11
2321.980965998085
21
601.0654681336223
31
79.32330485826299
  0
LINE
 8
Grouper#11
10
2321.980965998085
20
601.0654681336223
30
79.32330485826299
11
2323.2750612235977
21
602.6005037267552
31
79.32444756270138
  0
LINE
 8
Grouper#11
10
2323.2750612235977
20
602.6005037267552
30
79.32444756270138
11
2328.275061223598
21
607.6005023413687
31
79.32816963965851
  0
LINE
 8
Grouper#11
10
2328.275061223598
20
607.6005023413687
30
79.32816963965851
11
2328.2750612235973
21
609.8786763031906
31
79.32986554788995
  0
LINE
 8
Grouper#11
10
2328.2280079611533
20
610.596570161489
30
79.33039995927555
11
2328.2750612235973
21
609.8786763031906
31
79.32986554788995
  0
LINE
 8
Grouper#11
10
2328.0876532681873
20
611.3021806568346
30
79.33092522673415
11
2328.2280079611533
21
610.596570161489
31
79.33039995927555
  0
LINE
 8
Grouper#11
10
2327.8563986524096
20
611.983434598019
30
79.33143236279393
11
2328.0876532681873
21
611.3021806568346
31
79.33092522673415
  0
LINE
 8
Grouper#11
10
2327.538200944412
20
612.62867554123
30
79.33191269021637
11
2327.8563986524096
21
611.983434598019
31
79.33143236279393
  0
LINE
 8
Grouper#11
10
2327.138504595199
20
613.2268632350333
30
79.332357990466
11
2327.538200944412
21
612.62867554123
31
79.33191269021637
  0
LINE
 8
Grouper#11
10
2326.6641485201235
20
613.7677625221407
30
79.33276064433207
11
2327.138504595199
21
613.2268632350333
31
79.332357990466
  0
LINE
 8
Grouper#11
10
2326.1232490831458
20
614.2421184657834
30
79.33311376229534
11
2326.6641485201235
21
613.7677625221407
31
79.33276064433207
  0
LINE
 8
Grouper#11
10
2325.5250612235973
20
614.6418147042484
30
79.33341130240956
11
2326.1232490831458
21
614.2421184657834
31
79.33311376229534
  0
LINE
 8
Grouper#11
10
2324.8798201016057
20
614.9600123240815
30
79.33364817368097
11
2325.5250612235973
21
614.6418147042484
31
79.33341130240956
  0
LINE
 8
Grouper#11
10
2324.198565971661
20
615.1912668757834
30
79.3338203231763
11
2324.8798201016057
21
614.9600123240815
31
79.33364817368097
  0
LINE
 8
Grouper#11
10
2323.4929552808076
20
615.3316215298605
30
79.33392480536993
11
2324.198565971661
21
615.1912668757834
31
79.3338203231763
  0
LINE
 8
Grouper#11
10
2322.7750612235973
20
615.3786747792674
30
79.3339598325427
11
2323.4929552808076
21
615.3316215298605
31
79.33392480536993
  0
LINE
 8
Grouper#11
10
2322.7750612235973
20
615.3786747792674
30
79.3339598325427
11
2320.496886630545
21
615.3786747792673
31
79.3339598325427
  0
LINE
 8
Grouper#11
10
2320.496886630545
20
615.3786747792673
30
79.3339598325427
11
2315.496886630546
21
610.3786761646522
31
79.33023775558561
  0
LINE
 8
Grouper#11
10
2315.496886630546
20
610.3786761646522
30
79.33023775558561
11
2313.9618506120896
21
609.0845812977037
31
79.32927441118184
  0
LINE
 8
Grouper#11
10
2313.9618506120896
20
609.0845812977037
30
79.32927441118184
11
2312.0495431756376
21
607.8786768573451
31
79.32837671710708
  0
LINE
 8
Grouper#11
10
2312.0495431756376
20
607.8786768573451
30
79.32837671710708
11
2309.8902849127485
21
606.8431432383352
31
79.32760584972922
  0
LINE
 8
Grouper#11
10
2309.8902849127485
20
606.8431432383352
30
79.32760584972922
11
2307.6312257056907
21
606.0485503455087
31
79.32701434238592
  0
LINE
 8
Grouper#11
10
2307.6312257056907
20
606.0485503455087
30
79.32701434238592
11
2305.426316706157
21
605.5490483713864
31
79.32664250532535
  0
LINE
 8
Grouper#11
10
2323.525061223598
20
608.5796385574488
30
79.32889852393012
11
2323.163289791252
21
608.4297879652119
31
79.3287869728118
  0
LINE
 8
Grouper#11
10
2323.163289791252
20
608.4297879652119
30
79.3287869728118
11
2322.7750612235973
21
608.3786767188069
31
79.32874892480272
  0
LINE
 8
Grouper#11
10
2322.7750612235973
20
608.3786767188069
30
79.32874892480272
11
2322.386832655944
21
608.4297879652116
31
79.3287869728118
  0
LINE
 8
Grouper#11
10
2322.386832655944
20
608.4297879652116
30
79.3287869728118
11
2322.0250612235986
21
608.5796385574482
31
79.32889852393014
  0
LINE
 8
Grouper#11
10
2322.0250612235986
20
608.5796385574482
30
79.32889852393014
11
2321.714401051818
21
608.8180164252959
31
79.32907597613305
  0
LINE
 8
Grouper#11
10
2321.714401051818
20
608.8180164252959
30
79.32907597613305
11
2321.4760231179216
21
609.1286765109992
31
79.32930723634638
  0
LINE
 8
Grouper#11
10
2321.4760231179216
20
609.1286765109992
30
79.32930723634638
11
2321.326172484164
21
609.4904478431066
31
79.32957654456888
  0
LINE
 8
Grouper#11
10
2321.326172484164
20
609.4904478431066
30
79.32957654456888
11
2321.2750612235973
21
609.8786763031902
31
79.32986554788995
  0
LINE
 8
Grouper#11
10
2321.2750612235973
20
609.8786763031902
30
79.32986554788995
11
2321.326172484163
21
610.2669047632755
31
79.3301545512111
  0
LINE
 8
Grouper#11
10
2321.326172484163
20
610.2669047632755
30
79.3301545512111
11
2321.4760231179207
21
610.6286760953831
31
79.3304238594336
  0
LINE
 8
Grouper#11
10
2321.4760231179207
20
610.6286760953831
30
79.3304238594336
11
2321.714401051818
21
610.9393361810859
31
79.33065511964692
  0
LINE
 8
Grouper#11
10
2321.714401051818
20
610.9393361810859
30
79.33065511964692
11
2322.0250612235973
21
611.1777140489337
31
79.33083257184987
  0
LINE
 8
Grouper#11
10
2322.0250612235973
20
611.1777140489337
30
79.33083257184987
11
2322.386832655944
21
611.3275646411709
31
79.33094412296802
  0
LINE
 8
Grouper#11
10
2322.386832655944
20
611.3275646411709
30
79.33094412296802
11
2322.7750612235973
21
611.3786758875754
31
79.33098217097707
  0
LINE
 8
Grouper#11
10
2322.7750612235973
20
611.3786758875754
30
79.33098217097707
11
2323.163289791252
21
611.327564641171
31
79.33094412296802
  0
LINE
 8
Grouper#11
10
2323.163289791252
20
611.327564641171
30
79.33094412296802
11
2323.5250612235977
21
611.1777140489343
31
79.33083257184987
  0
LINE
 8
Grouper#11
10
2323.5250612235977
20
611.1777140489343
30
79.33083257184987
11
2323.835721395377
21
610.9393361810864
31
79.33065511964692
  0
LINE
 8
Grouper#11
10
2323.835721395377
20
610.9393361810864
30
79.33065511964692
11
2324.0740993292743
21
610.6286760953834
31
79.3304238594336
  0
LINE
 8
Grouper#11
10
2324.0740993292743
20
610.6286760953834
30
79.3304238594336
11
2324.2239499630314
21
610.2669047632761
31
79.3301545512111
  0
LINE
 8
Grouper#11
10
2324.2239499630314
20
610.2669047632761
30
79.3301545512111
11
2324.2750612235973
21
609.8786763031914
31
79.32986554788994
  0
LINE
 8
Grouper#11
10
2324.2750612235973
20
609.8786763031914
30
79.32986554788994
11
2324.2239499630314
21
609.4904478431071
31
79.32957654456888
  0
LINE
 8
Grouper#11
10
2324.2239499630314
20
609.4904478431071
30
79.32957654456888
11
2324.0740993292748
21
609.1286765109994
31
79.32930723634638
  0
LINE
 8
Grouper#11
10
2324.0740993292748
20
609.1286765109994
30
79.32930723634638
11
2323.835721395377
21
608.818016425296
31
79.32907597613305
  0
LINE
 8
Grouper#11
10
2323.835721395377
20
608.818016425296
30
79.32907597613305
11
2323.525061223598
21
608.5796385574488
31
79.32889852393012
  0
LINE
 8
Grouper#11
10
2303.425818818682
20
605.3786775500367
30
79.3265156786284
11
2133.124303628517
21
605.3786775500292
31
79.32651567862841
  0
LINE
 8
Grouper#11
10
2125.5199213056835
20
592.7712738620999
30
79.31713053067686
11
2123.8244941466696
21
591.8841240749553
31
79.3164701225378
  0
LINE
 8
Grouper#11
10
2123.8244941466696
20
591.8841240749553
30
79.3164701225378
11
2122.034159319242
21
591.2086913356165
31
79.31596731987143
  0
LINE
 8
Grouper#11
10
2122.034159319242
20
591.2086913356165
30
79.31596731987143
11
2120.175238375766
21
590.7549058749797
31
79.31562951489656
  0
LINE
 8
Grouper#11
10
2118.2750612235986
20
590.529439259496
30
79.3154616740312
11
2118.2750612236073
21
420.2279712559939
31
79.1886866049415
  0
LINE
 8
Grouper#11
10
2120.1752383757757
20
420.0025046405094
30
79.18851876407604
11
2118.2750612236073
21
420.2279712559939
31
79.1886866049415
  0
LINE
 8
Grouper#11
10
2122.0341593192506
20
419.548719179874
30
79.18818095910113
11
2120.1752383757757
21
420.0025046405094
31
79.18851876407604
  0
LINE
 8
Grouper#11
10
2123.8244941466787
20
418.8732864405351
30
79.18767815643479
11
2122.0341593192506
21
419.548719179874
31
79.18818095910113
  0
LINE
 8
Grouper#11
10
2125.519921305692
20
417.986136653391
30
79.18701774829577
11
2123.8244941466787
21
418.8732864405351
31
79.18767815643479
  0
LINE
 8
Grouper#11
10
2127.0955145790954
20
416.9003127192582
30
79.18620944402284
11
2125.519921305692
21
417.986136653391
31
79.18701774829577
  0
LINE
 8
Grouper#11
10
2128.5281095508126
20
415.6317784517821
30
79.18526512732794
11
2127.0955145790954
21
416.9003127192582
31
79.18620944402284
  0
LINE
 8
Grouper#11
10
2130.882468404762
20
412.62359104016076
30
79.18302578569799
11
2129.7966441697718
21
414.19918387700363
31
79.18419868158131
  0
LINE
 8
Grouper#11
10
2132.4450513642014
20
409.1378300195443
30
79.18043093082443
11
2131.7696184377155
21
410.92816435091277
31
79.18176368362579
  0
LINE
 8
Grouper#11
10
2132.898836950571
20
407.27890959113455
30
79.17904712146265
11
2132.4450513642014
21
409.1378300195443
31
79.18043093082443
  0
LINE
 8
Grouper#11
10
2133.124303628527
20
405.3787329654631
30
79.17763260034427
11
2132.898836950571
21
407.27890959113455
31
79.17904712146265
  0
LINE
 8
Grouper#11
10
2133.124303628527
20
405.3787329654631
30
79.17763260034427
11
2209.4077004045785
21
405.3787329654659
31
79.17763260034434
  0
LINE
 8
Grouper#11
10
2209.6148071857647
20
405.8787328269279
30
79.17800480803987
11
2209.4077004045785
21
405.3787329654659
31
79.17763260034434
  0
LINE
 8
Grouper#11
10
2225.346129035474
20
407.94980006494865
30
79.17954654279573
11
2223.275061223609
21
409.5389858506
31
79.18072955748214
  0
LINE
 8
Grouper#11
10
2226.935315261453
20
405.8787328269287
30
79.17800480803986
11
2225.346129035474
21
407.94980006494865
31
79.17954654279573
  0
LINE
 8
Grouper#11
10
2227.14242204264
20
405.37873296546695
30
79.17763260034438
11
2226.935315261453
21
405.8787328269287
31
79.17800480803986
  0
LINE
 8
Grouper#11
10
2227.14242204264
20
405.37873296546695
30
79.17763260034438
11
2303.425818818692
21
405.3787329654719
31
79.17763260034437
  0
LINE
 8
Grouper#11
10
2303.651285496647
20
407.2789095911434
30
79.17904712146265
11
2303.425818818692
21
405.3787329654719
31
79.17763260034437
  0
LINE
 8
Grouper#11
10
2304.1050710830164
20
409.13783001955335
30
79.18043093082443
11
2303.651285496647
21
407.2789095911434
31
79.17904712146265
  0
LINE
 8
Grouper#11
10
2304.7805040095027
20
410.9281643509207
30
79.18176368362579
11
2304.1050710830164
21
409.13783001955335
31
79.18043093082443
  0
LINE
 8
Grouper#11
10
2305.6676540424555
20
412.62359104016997
30
79.18302578569798
11
2304.7805040095027
21
410.9281643509207
31
79.18176368362579
  0
LINE
 8
Grouper#11
10
2306.753478277445
20
414.1991838770125
30
79.1841986815813
11
2305.6676540424555
21
412.62359104016997
31
79.18302578569798
  0
LINE
 8
Grouper#11
10
2308.0220128964024
20
415.6317784517913
30
79.18526512732792
11
2306.753478277445
21
414.1991838770125
31
79.1841986815813
  0
LINE
 8
Grouper#11
10
2309.4546078681205
20
416.9003127192678
30
79.18620944402284
11
2308.0220128964024
21
415.6317784517913
31
79.18526512732792
  0
LINE
 8
Grouper#11
10
2311.0302011415242
20
417.98613665340037
30
79.18701774829576
11
2309.4546078681205
21
416.9003127192678
31
79.18620944402284
  0
LINE
 8
Grouper#11
10
2312.7256283005368
20
418.8732864405452
30
79.18767815643476
11
2311.0302011415242
21
417.98613665340037
31
79.18701774829576
  0
LINE
 8
Grouper#11
10
2314.5159631279657
20
419.54871917988356
30
79.1881809591011
11
2312.7256283005368
21
418.8732864405452
31
79.18767815643476
  0
LINE
 8
Grouper#11
10
2316.37488407144
20
420.00250464052
30
79.18851876407602
11
2314.5159631279657
21
419.54871917988356
31
79.1881809591011
  0
LINE
 8
Grouper#11
10
2318.2750612236073
20
420.22797125600397
30
79.18868660494137
11
2316.37488407144
21
420.00250464052
31
79.18851876407602
  0
LINE
 8
Grouper#11
10
2318.2750612236073
20
420.22797125600397
30
79.18868660494137
11
2318.275061223603
21
496.51134689566726
31
79.24547313961143
  0
LINE
 8
Grouper#11
10
2314.1148071857588
20
500.378706643141
30
79.24835206252921
11
2315.703993411738
21
498.3076394051213
31
79.24681032777339
  0
LINE
 8
Grouper#11
10
2313.1158029607122
20
502.7905155238583
30
79.25014745067877
11
2314.1148071857588
21
500.378706643141
31
79.24835206252921
  0
LINE
 8
Grouper#11
10
2315.7039934117365
20
512.4497711103891
30
79.25733795119923
11
2314.1148071857583
21
510.3787038723694
31
79.2557962164434
  0
LINE
 8
Grouper#11
10
2317.7750612236027
20
514.0389568960413
30
79.25852096588582
11
2315.7039934117365
21
512.4497711103891
31
79.25733795119923
  0
LINE
 8
Grouper#11
10
2318.2750612236023
20
514.2460636198427
30
79.25867513936139
11
2317.7750612236027
21
514.0389568960413
31
79.25852096588582
  0
LINE
 8
Grouper#11
10
2318.2750612236023
20
514.2460636198427
30
79.25867513936139
11
2318.275061223598
21
590.5294392595063
31
79.31546167403121
  0
LINE
 8
Grouper#11
10
2318.275061223598
20
590.5294392595063
30
79.31546167403121
11
2316.3748840714306
21
590.7549058749902
31
79.31562951489656
  0
LINE
 8
Grouper#11
10
2316.3748840714306
20
590.7549058749902
30
79.31562951489656
11
2314.5159631279566
21
591.2086913356255
31
79.31596731987142
  0
LINE
 8
Grouper#11
10
2304.105071083007
20
601.6195804959557
30
79.32371734814812
11
2303.6512854966372
21
603.4785009243666
31
79.32510115750992
  0
LINE
 8
Grouper#11
10
2254.2274722949155
20
498.3558300771126
30
79.24684620166126
11
2231.0750612236034
21
503.9718215288833
31
79.25102683329469
  0
LINE
 8
Grouper#11
10
2231.0750612236034
20
503.9718215288833
30
79.25102683329469
11
2230.73095775026
21
504.09577185599363
31
79.25111910385155
  0
LINE
 8
Grouper#11
10
2230.73095775026
20
504.09577185599363
30
79.25111910385155
11
2230.421327765505
21
504.2904514491963
31
79.25126402637729
  0
LINE
 8
Grouper#11
10
2230.421327765505
20
504.2904514491963
30
79.25126402637729
11
2230.160501260669
21
504.5468503384616
31
79.2514548937097
  0
LINE
 8
Grouper#11
10
2230.160501260669
20
504.5468503384616
30
79.2514548937097
11
2229.960549552284
21
504.8531021218215
31
79.25168287231408
  0
LINE
 8
Grouper#11
10
2229.960549552284
20
504.8531021218215
30
79.25168287231408
11
2229.8307266092434
21
505.1950331545487
31
79.25193741110823
  0
LINE
 8
Grouper#11
10
2229.8307266092434
20
505.1950331545487
30
79.25193741110823
11
2229.777040769693
21
505.55681851988396
31
79.25220672977717
  0
LINE
 8
Grouper#11
10
2229.777040769693
20
505.55681851988396
30
79.25220672977717
11
2229.8019766690154
21
505.9217144223158
31
79.25247836397854
  0
LINE
 8
Grouper#11
10
2229.8019766690154
20
505.9217144223158
30
79.25247836397854
11
2229.9043802483693
21
506.27283310750437
31
79.2527397422044
  0
LINE
 8
Grouper#11
10
2229.9043802483693
20
506.27283310750437
30
79.2527397422044
11
2230.079512165712
21
506.5939244447685
31
79.25297876760415
  0
LINE
 8
Grouper#11
10
2230.079512165712
20
506.5939244447685
30
79.25297876760415
11
2230.3192671373804
21
506.87012799969955
31
79.25318437783858
  0
LINE
 8
Grouper#11
10
2230.3192671373804
20
506.87012799969955
30
79.25318437783858
11
2230.612549058878
21
507.088660790213
31
79.25334705705643
  0
LINE
 8
Grouper#11
10
2230.612549058878
20
507.088660790213
30
79.25334705705643
11
2230.945784543907
21
507.2394088959915
31
79.25345927629772
  0
LINE
 8
Grouper#11
10
2254.2274722949155
20
514.878702625518
30
79.25914608570474
11
2230.945784543907
21
507.2394088959915
31
79.25345927629772
  0
LINE
 8
Grouper#11
10
2230.549263633726
20
523.1809601730661
30
79.26532641571944
11
2254.2274722949155
21
538.0558183113903
31
79.27639949213055
  0
LINE
 8
Grouper#11
10
2229.9678941911498
20
522.9496840266594
30
79.26515425014873
11
2230.549263633726
21
523.1809601730661
31
79.26532641571944
  0
LINE
 8
Grouper#11
10
2229.3528171913836
20
522.8349696362548
30
79.26506885496727
11
2229.9678941911498
21
522.9496840266594
31
79.26515425014873
  0
LINE
 8
Grouper#11
10
2228.7271646126505
20
522.841131210938
30
79.2650734417396
11
2229.3528171913836
21
522.8349696362548
31
79.26506885496727
  0
LINE
 8
Grouper#11
10
2228.114466162338
20
522.9679370245815
30
79.2651678379652
11
2228.7271646126505
21
522.841131210938
31
79.2650734417396
  0
LINE
 8
Grouper#11
10
2227.537764365553
20
523.2106181306613
30
79.26534849356581
11
2228.114466162338
21
522.9679370245815
31
79.2651678379652
  0
LINE
 8
Grouper#11
10
2227.018747975751
20
523.5600477140588
30
79.26560861439805
11
2227.537764365553
21
523.2106181306613
31
79.26534849356581
  0
LINE
 8
Grouper#11
10
2226.5769362983697
20
524.0030843347326
30
79.26593841776885
11
2227.018747975751
21
523.5600477140588
31
79.26560861439805
  0
LINE
 8
Grouper#11
10
2226.2289451036336
20
524.5230661544656
30
79.26632550034597
11
2226.5769362983697
21
524.0030843347326
31
79.26593841776885
  0
LINE
 8
Grouper#11
10
2225.987861736285
20
525.1004375596766
30
79.26675530462572
11
2226.2289451036336
21
524.5230661544656
31
79.26632550034597
  0
LINE
 8
Grouper#11
10
2225.862752923262
20
525.7134846141003
30
79.26721166641511
11
2225.987861736285
21
525.1004375596766
31
79.26675530462572
  0
LINE
 8
Grouper#11
10
2225.8583237898415
20
526.3391516822343
30
79.26767742273957
11
2225.862752923262
21
525.7134846141003
31
79.26721166641511
  0
LINE
 8
Grouper#11
10
2225.8583237898415
20
526.3391516822343
30
79.26767742273957
11
2231.255944562212
21
586.1253672283361
31
79.31218321411798
  0
LINE
 8
Grouper#11
10
2231.3756767699215
20
587.0537372730656
30
79.31287430725965
11
2231.255944562212
21
586.1253672283361
31
79.31218321411798
  0
LINE
 8
Grouper#11
10
2231.565962933673
20
587.9702512825162
30
79.31355657458379
11
2231.3756767699215
21
587.0537372730656
31
79.31287430725965
  0
LINE
 8
Grouper#11
10
2231.8256914834005
20
588.8695553753614
30
79.31422603057759
11
2231.565962933673
21
587.9702512825162
31
79.31355657458379
  0
LINE
 8
Grouper#11
10
2232.1533451964347
20
589.7463962032186
30
79.31487876456652
11
2231.8256914834005
21
588.8695553753614
31
79.31422603057759
  0
LINE
 8
Grouper#11
10
2232.5470100604643
20
590.5956516384537
30
79.31551096355895
11
2232.1533451964347
21
589.7463962032186
31
79.31487876456652
  0
LINE
 8
Grouper#11
10
2233.0043864543804
20
591.4123606954519
30
79.31611893451976
11
2232.5470100604643
21
590.5956516384537
31
79.31551096355895
  0
LINE
 8
Grouper#11
10
2233.522802581669
20
592.1917525105669
30
79.31669912594361
11
2233.0043864543804
21
591.4123606954519
31
79.31611893451976
  0
LINE
 8
Grouper#11
10
2234.099230077904
20
592.929274211456
30
79.31724814860141
11
2233.522802581669
21
592.1917525105669
31
79.31669912594361
  0
LINE
 8
Grouper#11
10
2234.730301701147
20
593.6206175130069
30
79.31776279533845
11
2234.099230077904
21
592.929274211456
31
79.31724814860141
  0
LINE
 8
Grouper#11
10
2235.412331001934
20
594.261743884489
30
79.31824005980947
11
2234.730301701147
21
593.6206175130069
31
79.31776279533845
  0
LINE
 8
Grouper#11
10
2236.141333857928
20
594.848908140915
30
79.31867715404036
11
2235.412331001934
21
594.261743884489
31
79.31824005980947
  0
LINE
 8
Grouper#11
10
2236.9130517474514
20
595.3786803208055
30
79.3190715247143
11
2236.141333857928
21
594.848908140915
31
79.31867715404036
  0
LINE
 8
Grouper#11
10
2290.338548327366
20
595.3786803208083
30
79.31907152471413
11
2236.9130517474514
21
595.3786803208055
31
79.3190715247143
  0
LINE
 8
Grouper#11
10
2290.338548327366
20
595.3786803208083
30
79.31907152471413
11
2290.7047224741577
21
594.8141496472342
31
79.31865127927539
  0
LINE
 8
Grouper#11
10
2290.7047224741577
20
594.8141496472342
30
79.31865127927539
11
2291.009940455492
21
594.2144661070437
31
79.31820486549432
  0
LINE
 8
Grouper#11
10
2291.009940455492
20
594.2144661070437
30
79.31820486549432
11
2291.250864547434
21
593.5861875645413
31
79.31773716514766
  0
LINE
 8
Grouper#11
10
2291.250864547434
20
593.5861875645413
30
79.31773716514766
11
2291.4248601145528
21
592.9361845858701
31
79.31725329279179
  0
LINE
 8
Grouper#11
10
2291.4248601145528
20
592.9361845858701
30
79.31725329279179
11
2291.5300244210835
21
592.2715653056488
31
79.31675853983306
  0
LINE
 8
Grouper#11
10
2291.5300244210835
20
592.2715653056488
30
79.31675853983306
11
2291.565207438377
21
591.5995976956692
31
79.31625831666304
  0
LINE
 8
Grouper#11
10
2291.565207438377
20
591.5995976956692
30
79.31625831666304
11
2291.5300244210835
21
590.9276300856895
31
79.31575809349306
  0
LINE
 8
Grouper#11
10
2291.5300244210835
20
590.9276300856895
30
79.31575809349306
11
2291.4248601145528
21
590.2630108054682
31
79.31526334053437
  0
LINE
 8
Grouper#11
10
2291.4248601145528
20
590.2630108054682
30
79.31526334053437
11
2291.250864547435
21
589.613007826797
31
79.31477946817846
  0
LINE
 8
Grouper#11
10
2291.250864547435
20
589.613007826797
30
79.31477946817846
11
2291.0099404554926
21
588.9847292842945
31
79.31431176783174
  0
LINE
 8
Grouper#11
10
2291.0099404554926
20
588.9847292842945
30
79.31431176783174
11
2290.7047224741586
21
588.3850457441039
31
79.31386535405076
  0
LINE
 8
Grouper#11
10
2290.7047224741586
20
588.3850457441039
30
79.31386535405076
11
2290.3385483273664
21
587.82051507053
31
79.31344510861194
  0
LINE
 8
Grouper#11
10
2254.2274722949155
20
538.0558183113903
30
79.27639949213055
11
2290.3385483273664
21
587.82051507053
31
79.31344510861194
  0
LINE
 8
Grouper#11
10
2302.893055029547
20
572.88426778893
30
79.30232633316471
11
2284.227472294916
21
538.0558183113903
31
79.27639949213055
  0
LINE
 8
Grouper#11
10
2303.194352119312
20
573.342266567149
30
79.30266727459893
11
2302.893055029547
21
572.88426778893
31
79.30232633316471
  0
LINE
 8
Grouper#11
10
2303.572698712317
20
573.7389990988767
30
79.30296260848368
11
2303.194352119312
21
573.342266567149
31
79.30266727459893
  0
LINE
 8
Grouper#11
10
2304.0158960623758
20
574.0616738338576
30
79.30320281258936
11
2303.572698712317
21
573.7389990988767
31
79.30296260848368
  0
LINE
 8
Grouper#11
10
2304.509654488851
20
574.2998870119791
30
79.30338014219471
11
2304.0158960623758
21
574.0616738338576
31
79.30320281258936
  0
LINE
 8
Grouper#11
10
2305.0380541081404
20
574.4459581039274
30
79.30348887979392
11
2304.509654488851
21
574.2998870119791
31
79.30338014219471
  0
LINE
 8
Grouper#11
10
2305.5840581265734
20
574.4951774487496
30
79.30352551944192
11
2305.0380541081404
21
574.4459581039274
31
79.30348887979392
  0
LINE
 8
Grouper#11
10
2306.1300621450064
20
574.4459581039274
30
79.30348887979392
11
2305.5840581265734
21
574.4951774487496
31
79.30352551944192
  0
LINE
 8
Grouper#11
10
2306.658461764295
20
574.2998870119791
30
79.3033801421947
11
2306.1300621450064
21
574.4459581039274
31
79.30348887979392
  0
LINE
 8
Grouper#11
10
2307.1522201907705
20
574.0616738338576
30
79.30320281258933
11
2306.658461764295
21
574.2998870119791
31
79.3033801421947
  0
LINE
 8
Grouper#11
10
2307.595417540829
20
573.7389990988767
30
79.30296260848364
11
2307.1522201907705
21
574.0616738338576
31
79.30320281258933
  0
LINE
 8
Grouper#11
10
2307.9737641338343
20
573.342266567149
30
79.30266727459889
11
2307.595417540829
21
573.7389990988767
31
79.30296260848364
  0
LINE
 8
Grouper#11
10
2308.275061223599
20
572.88426778893
30
79.30232633316466
11
2307.9737641338343
21
573.342266567149
31
79.30266727459889
  0
LINE
 8
Grouper#11
10
2308.2750612236027
20
519.1949926377941
30
79.26235919931406
11
2308.275061223599
21
572.88426778893
31
79.30232633316466
  0
LINE
 8
Grouper#11
10
2305.379824157206
20
515.421847277927
30
79.25955041105587
11
2308.2750612236027
21
519.1949926377941
31
79.26235919931406
  0
LINE
 8
Grouper#11
10
2303.373195339039
20
510.5774181127358
30
79.25594414242342
11
2305.379824157206
21
515.421847277927
31
79.25955041105587
  0
LINE
 8
Grouper#11
10
2302.688771617801
20
505.37870525775645
30
79.25207413948631
11
2303.373195339039
21
510.5774181127358
31
79.25594414242342
  0
LINE
 8
Grouper#11
10
2303.3731953390384
20
500.1799924027736
30
79.2482041365493
11
2302.688771617801
21
505.37870525775645
31
79.25207413948631
  0
LINE
 8
Grouper#11
10
2305.379824157208
20
495.3355632375803
30
79.2445978679167
11
2303.3731953390384
21
500.1799924027736
31
79.2482041365493
  0
LINE
 8
Grouper#11
10
2308.275061223604
20
491.56241787771575
30
79.24178907965857
11
2305.379824157208
21
495.3355632375803
31
79.2445978679167
  0
LINE
 8
Grouper#11
10
2308.2750612236064
20
434.0270099868191
30
79.19895882460547
11
2308.275061223604
21
491.56241787771575
31
79.24178907965857
  0
LINE
 8
Grouper#11
10
2308.2750612236064
20
434.0270099868191
30
79.19895882460547
11
2308.0929392543976
21
433.7468225342769
31
79.1987502486955
  0
LINE
 8
Grouper#11
10
2308.0929392543976
20
433.7468225342769
30
79.1987502486955
11
2307.8634025549113
21
433.50395150958303
31
79.19856945171652
  0
LINE
 8
Grouper#11
10
2307.8634025549113
20
433.50395150958303
30
79.19856945171652
11
2307.593934264684
21
433.3063147654004
31
79.19842232784144
  0
LINE
 8
Grouper#11
10
2307.593934264684
20
433.3063147654004
30
79.19842232784144
11
2307.2933193354074
21
433.16035546893335
31
79.19831367346458
  0
LINE
 8
Grouper#11
10
2307.2933193354074
20
433.16035546893335
30
79.19831367346458
11
2306.9713581321994
21
433.07083204785226
31
79.19824703083353
  0
LINE
 8
Grouper#11
10
2306.9713581321994
20
433.07083204785226
30
79.19824703083353
11
2306.638546931317
21
433.0406630605106
31
79.1982245725688
  0
LINE
 8
Grouper#11
10
2306.638546931317
20
433.0406630605106
30
79.1982245725688
11
2306.3057357304338
21
433.07083204785226
31
79.19824703083353
  0
LINE
 8
Grouper#11
10
2306.3057357304338
20
433.07083204785226
30
79.19824703083353
11
2305.9837745272257
21
433.16035546893335
31
79.19831367346458
  0
LINE
 8
Grouper#11
10
2305.9837745272257
20
433.16035546893335
30
79.19831367346458
11
2305.6831595979497
21
433.30631476540026
31
79.19842232784146
  0
LINE
 8
Grouper#11
10
2305.6831595979497
20
433.30631476540026
30
79.19842232784146
11
2305.4136913077223
21
433.503951509583
31
79.19856945171652
  0
LINE
 8
Grouper#11
10
2305.4136913077223
20
433.503951509583
30
79.19856945171652
11
2305.184154608236
21
433.7468225342769
31
79.1987502486955
  0
LINE
 8
Grouper#11
10
2305.184154608236
20
433.7468225342769
30
79.1987502486955
11
2305.0020326390268
21
434.0270099868189
31
79.19895882460547
  0
LINE
 8
Grouper#11
10
2284.227472294916
20
473.3558370040416
30
79.22823581687568
11
2305.0020326390268
21
434.0270099868189
31
79.19895882460547
  0
LINE
 8
Grouper#11
10
2254.2274722949155
20
473.3558370040416
30
79.2282358168757
11
2290.338548327375
21
423.0231592869884
31
79.19076738650989
  0
LINE
 8
Grouper#11
10
2290.338548327375
20
423.0231592869884
30
79.19076738650989
11
2290.705658403815
21
422.4510194405693
31
79.19034147668417
  0
LINE
 8
Grouper#11
10
2290.705658403815
20
422.4510194405693
30
79.19034147668417
11
2291.0115575382215
21
421.8439448909256
31
79.18988956092045
  0
LINE
 8
Grouper#11
10
2291.0115575382215
20
421.8439448909256
30
79.18988956092045
11
2291.252957653713
21
421.2084610170673
31
79.18941649681267
  0
LINE
 8
Grouper#11
10
2291.252957653713
20
421.2084610170673
30
79.18941649681267
11
2291.427263966426
21
420.5513985667734
31
79.18892736927602
  0
LINE
 8
Grouper#11
10
2291.427263966426
20
420.5513985667734
30
79.18892736927602
11
2291.53260287656
21
419.87982023361945
31
79.18842743588972
  0
LINE
 8
Grouper#11
10
2291.53260287656
20
419.87982023361945
30
79.18842743588972
11
2291.5678421075054
21
419.2009447408438
31
79.18792207038405
  0
LINE
 8
Grouper#11
10
2291.5678421075054
20
419.2009447408438
30
79.18792207038405
11
2291.53260287656
21
418.52206924806814
31
79.18741670487834
  0
LINE
 8
Grouper#11
10
2291.53260287656
20
418.52206924806814
30
79.18741670487834
11
2291.427263966426
21
417.85049091491413
31
79.18691677149211
  0
LINE
 8
Grouper#11
10
2291.427263966426
20
417.85049091491413
30
79.18691677149211
11
2291.2529576537136
21
417.1934284646201
31
79.18642764395544
  0
LINE
 8
Grouper#11
10
2291.2529576537136
20
417.1934284646201
30
79.18642764395544
11
2291.0115575382215
21
416.5579445907618
31
79.18595457984763
  0
LINE
 8
Grouper#11
10
2291.0115575382215
20
416.5579445907618
30
79.18595457984763
11
2290.705658403816
21
415.95087004111815
31
79.18550266408394
  0
LINE
 8
Grouper#11
10
2290.705658403816
20
415.95087004111815
30
79.18550266408394
11
2290.3385483273755
21
415.378730194699
31
79.18507675425822
  0
LINE
 8
Grouper#11
10
2236.9130517474605
20
415.3787301946942
30
79.1850767542584
11
2290.3385483273755
21
415.378730194699
31
79.18507675425822
  0
LINE
 8
Grouper#11
10
2236.9130517474605
20
415.3787301946942
30
79.1850767542584
11
2236.1840109064997
21
415.6936817290896
31
79.18531120909316
  0
LINE
 8
Grouper#11
10
2236.1840109064997
20
415.6936817290896
30
79.18531120909316
11
2235.4874838036917
21
416.07518531514836
31
79.18559520631322
  0
LINE
 8
Grouper#11
10
2235.4874838036917
20
416.07518531514836
30
79.18559520631322
11
2234.829529423139
21
416.5199223107773
31
79.18592627546961
  0
LINE
 8
Grouper#11
10
2234.829529423139
20
416.5199223107773
30
79.18592627546961
11
2234.215871210657
21
417.0240240160002
31
79.1863015366418
  0
LINE
 8
Grouper#11
10
2234.215871210657
20
417.0240240160002
30
79.1863015366418
11
2233.6518472863822
21
417.58310532619475
31
79.18671772548952
  0
LINE
 8
Grouper#11
10
2233.6518472863822
20
417.58310532619475
30
79.18671772548952
11
2233.1423640092735
21
418.19230287745677
31
79.18717122164874
  0
LINE
 8
Grouper#11
10
2233.1423640092735
20
418.19230287745677
30
79.18717122164874
11
2232.691853297433
21
418.8463173522675
31
79.18765808022489
  0
LINE
 8
Grouper#11
10
2232.691853297433
20
418.8463173522675
30
79.18765808022489
11
2232.3042340755237
21
419.5394595774571
31
79.18817406610874
  0
LINE
 8
Grouper#11
10
2232.3042340755237
20
419.5394595774571
30
79.18817406610874
11
2231.9828781846313
21
420.2657000134628
31
79.18871469081701
  0
LINE
 8
Grouper#11
10
2231.9828781846313
20
420.2657000134628
30
79.18871469081701
11
2231.730581051131
21
421.0187212043833
31
79.18927525153688
  0
LINE
 8
Grouper#11
10
2231.730581051131
20
421.0187212043833
30
79.18927525153688
11
2231.5495373696945
21
421.79197273257375
31
79.18985087203541
  0
LINE
 8
Grouper#11
10
2231.5495373696945
20
421.79197273257375
30
79.18985087203541
11
2231.4413220119704
21
422.5787281997399
31
79.19043654507672
  0
LINE
 8
Grouper#11
10
2225.8846543331283
20
484.1266111605772
30
79.23625374915758
11
2231.4413220119704
21
422.5787281997399
31
79.19043654507672
  0
LINE
 8
Grouper#11
10
2225.885812605012
20
484.75580682396475
30
79.23672213222343
11
2225.8846543331283
21
484.1266111605772
31
79.23625374915758
  0
LINE
 8
Grouper#11
10
2226.0019212798866
20
485.3741977258289
30
79.23718247205616
11
2225.885812605012
21
484.75580682396475
31
79.23672213222343
  0
LINE
 8
Grouper#11
10
2226.2290707545762
20
485.9609614509853
30
79.2376192681253
11
2226.0019212798866
21
485.3741977258289
31
79.23718247205616
  0
LINE
 8
Grouper#11
10
2226.55961246786
20
486.496340532332
30
79.2380178126641
11
2226.2290707545762
21
485.9609614509853
31
79.2376192681253
  0
LINE
 8
Grouper#11
10
2226.9824164422944
20
486.9623077228977
30
79.23836468590872
11
2226.55961246786
21
486.496340532332
31
79.2380178126641
  0
LINE
 8
Grouper#11
10
2227.4832460520315
20
487.3431730080415
30
79.23864820796757
11
2226.9824164422944
21
486.9623077228977
31
79.23836468590872
  0
LINE
 8
Grouper#11
10
2228.0452373974917
20
487.62611191852824
30
79.23885883210572
11
2227.4832460520315
21
487.3431730080415
31
79.23864820796757
  0
LINE
 8
Grouper#11
10
2228.6494671454084
20
487.8015973551588
30
79.23898946620186
11
2228.0452373974917
21
487.62611191852824
31
79.23885883210572
  0
LINE
 8
Grouper#11
10
2229.2755897139828
20
487.8637203845885
30
79.23903571155391
11
2228.6494671454084
21
487.8015973551588
31
79.23898946620186
  0
LINE
 8
Grouper#11
10
2229.90252234789
20
487.8103892045158
30
79.23899601099157
11
2229.2755897139828
21
487.8637203845885
31
79.23903571155391
  0
LINE
 8
Grouper#11
10
2230.509155015343
20
487.6433995787057
30
79.23887170130945
11
2229.90252234789
21
487.8103892045158
31
79.23899601099157
  0
LINE
 8
Grouper#11
10
2231.0750612236043
20
487.36837437015544
30
79.23866696825445
11
2230.509155015343
21
487.6433995787057
31
79.23887170130945
  0
LINE
 8
Grouper#11
10
2231.0750612236043
20
487.36837437015544
30
79.23866696825445
11
2254.2274722949155
21
473.3558370040416
31
79.2282358168757
  0
LINE
 8
Grouper#11
10
2220.2750612236023
20
498.87870705875264
30
79.24723543944295
11
2219.8868326559486
21
498.82759581234814
31
79.24719739143401
  0
LINE
 8
Grouper#11
10
2220.6632897912564
20
498.8275958123478
30
79.24719739143401
11
2220.2750612236023
21
498.87870705875264
31
79.24723543944295
  0
LINE
 8
Grouper#11
10
2221.0250612236023
20
498.67774522011143
30
79.24708584031576
11
2220.6632897912564
21
498.8275958123478
31
79.24719739143401
  0
LINE
 8
Grouper#11
10
2221.3357213953827
20
498.43936735226373
30
79.24690838811287
11
2221.0250612236023
21
498.67774522011143
31
79.24708584031576
  0
LINE
 8
Grouper#11
10
2221.5740993292793
20
498.1287072665605
30
79.24667712789939
11
2221.3357213953827
21
498.43936735226373
31
79.24690838811287
  0
LINE
 8
Grouper#11
10
2221.723949963036
20
497.7669359344529
30
79.24640781967705
11
2221.5740993292793
21
498.1287072665605
31
79.24667712789939
  0
LINE
 8
Grouper#11
10
2221.775061223602
20
497.3787074743687
30
79.24611881635595
11
2221.723949963036
21
497.7669359344529
31
79.24640781967705
  0
LINE
 8
Grouper#11
10
2221.723949963036
20
496.9904790142839
30
79.24582981303476
11
2221.775061223602
21
497.3787074743687
31
79.24611881635595
  0
LINE
 8
Grouper#11
10
2221.57409932928
20
496.6287076821763
30
79.24556050481237
11
2221.723949963036
21
496.9904790142839
31
79.24582981303476
  0
LINE
 8
Grouper#11
10
2221.3357213953823
20
496.31804759647343
30
79.24532924459886
11
2221.57409932928
21
496.6287076821763
31
79.24556050481237
  0
LINE
 8
Grouper#11
10
2221.0250612236027
20
496.0796697286255
30
79.2451517923961
11
2221.3357213953823
21
496.31804759647343
31
79.24532924459886
  0
LINE
 8
Grouper#11
10
2220.6632897912564
20
495.92981913638886
30
79.2450402412778
11
2221.0250612236027
21
496.0796697286255
31
79.2451517923961
  0
LINE
 8
Grouper#11
10
2220.2750612236023
20
495.8787078899839
30
79.24500219326869
11
2220.6632897912564
21
495.92981913638886
31
79.2450402412778
  0
LINE
 8
Grouper#11
10
2219.8868326559486
20
495.929819136389
30
79.2450402412778
11
2220.2750612236023
21
495.8787078899839
31
79.24500219326869
  0
LINE
 8
Grouper#11
10
2219.5250612236027
20
496.0796697286254
30
79.2451517923961
11
2219.8868326559486
21
495.929819136389
31
79.2450402412778
  0
LINE
 8
Grouper#11
10
2219.2144010518227
20
496.3180475964732
30
79.24532924459886
11
2219.5250612236027
21
496.0796697286254
31
79.2451517923961
  0
LINE
 8
Grouper#11
10
2218.9760231179266
20
496.6287076821763
30
79.24556050481237
11
2219.2144010518227
21
496.3180475964732
31
79.24532924459886
  0
LINE
 8
Grouper#11
10
2218.8261724841695
20
496.9904790142841
30
79.24582981303476
11
2218.9760231179266
21
496.6287076821763
31
79.24556050481237
  0
LINE
 8
Grouper#11
10
2218.775061223602
20
497.3787074743683
30
79.24611881635595
11
2218.8261724841695
21
496.9904790142841
31
79.24582981303476
  0
LINE
 8
Grouper#11
10
2218.8261724841686
20
497.7669359344527
30
79.24640781967705
11
2218.775061223602
21
497.3787074743683
31
79.24611881635595
  0
LINE
 8
Grouper#11
10
2218.976023117926
20
498.1287072665605
30
79.24667712789939
11
2218.8261724841686
21
497.7669359344527
31
79.24640781967705
  0
LINE
 8
Grouper#11
10
2219.2144010518236
20
498.43936735226356
30
79.24690838811287
11
2218.976023117926
21
498.1287072665605
31
79.24667712789939
  0
LINE
 8
Grouper#11
10
2219.5250612236027
20
498.6777452201112
30
79.24708584031576
11
2219.2144010518236
21
498.43936735226356
31
79.24690838811287
  0
LINE
 8
Grouper#11
10
2219.8868326559486
20
498.82759581234814
30
79.24719739143401
11
2219.5250612236027
21
498.6777452201112
31
79.24708584031576
  0
LINE
 8
Grouper#11
10
2220.663289791256
20
514.8275913791133
30
79.25910803769638
11
2220.2750612236023
21
514.8787026255179
31
79.25914608570552
  0
LINE
 8
Grouper#11
10
2221.0250612236023
20
514.6777407868766
30
79.25899648657825
11
2220.663289791256
21
514.8275913791133
31
79.25910803769638
  0
LINE
 8
Grouper#11
10
2221.3357213953823
20
514.439362919029
30
79.25881903437522
11
2221.0250612236023
21
514.6777407868766
31
79.25899648657825
  0
LINE
 8
Grouper#11
10
2221.57409932928
20
514.1287028333262
30
79.25858777416194
11
2221.3357213953823
21
514.439362919029
31
79.25881903437522
  0
LINE
 8
Grouper#11
10
2221.723949963036
20
513.7669315012184
30
79.25831846593954
11
2221.57409932928
21
514.1287028333262
31
79.25858777416194
  0
LINE
 8
Grouper#11
10
2221.775061223602
20
513.3787030411336
30
79.2580294626183
11
2221.723949963036
21
513.7669315012184
31
79.25831846593954
  0
LINE
 8
Grouper#11
10
2221.723949963036
20
512.9904745810495
30
79.25774045929711
11
2221.775061223602
21
513.3787030411336
31
79.2580294626183
  0
LINE
 8
Grouper#11
10
2221.574099329279
20
512.628703248942
30
79.25747115107468
11
2221.723949963036
21
512.9904745810495
31
79.25774045929711
  0
LINE
 8
Grouper#11
10
2221.3357213953827
20
512.3180431632388
30
79.2572398908614
11
2221.574099329279
21
512.628703248942
31
79.25747115107468
  0
LINE
 8
Grouper#11
10
2221.0250612236027
20
512.0796652953911
30
79.25706243865838
11
2221.3357213953827
21
512.3180431632388
31
79.2572398908614
  0
LINE
 8
Grouper#11
10
2220.6632897912564
20
511.9298147031544
30
79.2569508875403
11
2221.0250612236027
21
512.0796652953911
31
79.25706243865838
  0
LINE
 8
Grouper#11
10
2220.2750612236023
20
511.87870345674946
30
79.25691283953125
11
2220.6632897912564
21
511.9298147031544
31
79.2569508875403
  0
LINE
 8
Grouper#11
10
2219.8868326559486
20
511.9298147031546
30
79.2569508875403
11
2220.2750612236023
21
511.87870345674946
31
79.25691283953125
  0
LINE
 8
Grouper#11
10
2219.5250612236027
20
512.079665295391
30
79.25706243865838
11
2219.8868326559486
21
511.9298147031546
31
79.2569508875403
  0
LINE
 8
Grouper#11
10
2219.214401051823
20
512.3180431632389
30
79.2572398908614
11
2219.5250612236027
21
512.079665295391
31
79.25706243865838
  0
LINE
 8
Grouper#11
10
2218.976023117926
20
512.6287032489419
30
79.25747115107468
11
2219.214401051823
21
512.3180431632389
31
79.2572398908614
  0
LINE
 8
Grouper#11
10
2218.8261724841686
20
512.9904745810495
30
79.25774045929711
11
2218.976023117926
21
512.6287032489419
31
79.25747115107468
  0
LINE
 8
Grouper#11
10
2218.775061223602
20
513.3787030411338
30
79.2580294626183
11
2218.8261724841686
21
512.9904745810495
31
79.25774045929711
  0
LINE
 8
Grouper#11
10
2218.8261724841686
20
513.7669315012183
30
79.25831846593954
11
2218.775061223602
21
513.3787030411338
31
79.2580294626183
  0
LINE
 8
Grouper#11
10
2218.9760231179266
20
514.1287028333261
30
79.25858777416194
11
2218.8261724841686
21
513.7669315012183
31
79.25831846593954
  0
LINE
 8
Grouper#11
10
2219.2144010518227
20
514.4393629190286
30
79.25881903437522
11
2218.9760231179266
21
514.1287028333261
31
79.25858777416194
  0
LINE
 8
Grouper#11
10
2219.5250612236027
20
514.6777407868767
30
79.25899648657825
11
2219.2144010518227
21
514.4393629190286
31
79.25881903437522
  0
LINE
 8
Grouper#11
10
2219.8868326559486
20
514.8275913791136
30
79.25910803769638
11
2219.5250612236027
21
514.6777407868767
31
79.25899648657825
  0
LINE
 8
Grouper#11
10
2220.2750612236023
20
514.8787026255179
30
79.25914608570552
11
2219.8868326559486
21
514.8275913791136
31
79.25910803769638
  0
LINE
 8
Grouper#11
10
2183.741354744621
20
473.3558370040416
30
79.22823581687568
11
2208.37915050985
21
487.046741006365
31
79.23842753936198
  0
LINE
 8
Grouper#11
10
2208.37915050985
20
487.046741006365
30
79.23842753936198
11
2208.9458834037146
21
487.30805203564836
31
79.23862206336807
  0
LINE
 8
Grouper#11
10
2208.9458834037146
20
487.30805203564836
30
79.23862206336807
11
2209.5453601710947
21
487.4815376360477
31
79.23875120875499
  0
LINE
 8
Grouper#11
10
2209.5453601710947
20
487.4815376360477
30
79.23875120875499
11
2210.164058100155
21
487.56328440189134
31
79.23881206232257
  0
LINE
 8
Grouper#11
10
2210.164058100155
20
487.56328440189134
30
79.23881206232257
11
2210.788020897237
21
487.55144832851016
31
79.23880325136493
  0
LINE
 8
Grouper#11
10
2210.788020897237
20
487.55144832851016
30
79.23880325136493
11
2211.4031735062913
21
487.44629640841856
31
79.23872497463552
  0
LINE
 8
Grouper#11
10
2211.4031735062913
20
487.44629640841856
30
79.23872497463552
11
2211.9956396073017
21
487.2502006086248
31
79.23857899786353
  0
LINE
 8
Grouper#11
10
2211.9956396073017
20
487.2502006086248
30
79.23857899786353
11
2212.5520546317116
21
486.96758436492644
31
79.23836861392356
  0
LINE
 8
Grouper#11
10
2212.5520546317116
20
486.96758436492644
30
79.23836861392356
11
2213.059867234006
21
486.60482280014935
31
79.23809856855651
  0
LINE
 8
Grouper#11
10
2213.059867234006
20
486.60482280014935
30
79.23809856855651
11
2213.5076224189943
21
486.17009891715935
31
79.23777495331731
  0
LINE
 8
Grouper#11
10
2213.5076224189943
20
486.17009891715935
30
79.23777495331731
11
2213.8852199381454
21
485.67321901057363
31
79.23740506816468
  0
LINE
 8
Grouper#11
10
2213.8852199381454
20
485.67321901057363
30
79.23740506816468
11
2214.18414212619
21
485.1253914610318
31
79.23699725679198
  0
LINE
 8
Grouper#11
10
2214.18414212619
20
485.1253914610318
30
79.23699725679198
11
2214.397646038565
21
484.53897390187507
31
79.23656071841422
  0
LINE
 8
Grouper#11
10
2205.822388989975
20
422.5787281997381
30
79.19043654507675
11
2214.397646038565
21
484.53897390187507
31
79.23656071841422
  0
LINE
 8
Grouper#11
10
2205.822388989975
20
422.5787281997381
30
79.19043654507675
11
2205.6151880291
21
421.5562246424374
31
79.18967537747997
  0
LINE
 8
Grouper#11
10
2205.6151880291
20
421.5562246424374
30
79.18967537747997
11
2205.2823056576026
21
420.56747031135114
31
79.18893933333365
  0
LINE
 8
Grouper#11
10
2205.2823056576026
20
420.56747031135114
30
79.18893933333365
11
2204.8289210978724
21
419.6278489546343
31
79.18823986453978
  0
LINE
 8
Grouper#11
10
2204.8289210978724
20
419.6278489546343
30
79.18823986453978
11
2204.262088431661
21
418.75197987443215
31
79.18758785393494
  0
LINE
 8
Grouper#11
10
2204.262088431661
20
418.75197987443215
30
79.18758785393494
11
2203.590626847628
21
417.9534904693031
31
79.18699344596719
  0
LINE
 8
Grouper#11
10
2203.590626847628
20
417.9534904693031
30
79.18699344596719
11
2202.824983426083
21
417.24480420939284
31
79.18646588886145
  0
LINE
 8
Grouper#11
10
2202.824983426083
20
417.24480420939284
30
79.18646588886145
11
2201.9770705958317
21
416.6369473431846
31
79.18601339072904
  0
LINE
 8
Grouper#11
10
2201.9770705958317
20
416.6369473431846
30
79.18601339072904
11
2201.060080792069
21
416.1393773432272
31
79.18564299186013
  0
LINE
 8
Grouper#11
10
2201.060080792069
20
416.1393773432272
30
79.18564299186013
11
2200.0882811990286
21
415.7598357600037
31
79.18536045518562
  0
LINE
 8
Grouper#11
10
2200.0882811990286
20
415.7598357600037
30
79.18536045518562
11
2199.0767917709054
21
415.5042277733419
31
79.18517017661343
  0
LINE
 8
Grouper#11
10
2199.0767917709054
20
415.5042277733419
30
79.18517017661343
11
2198.04134998478
21
415.37653031539736
31
79.18507511663391
  0
LINE
 8
Grouper#11
10
2144.903030103708
20
415.3787301946918
30
79.18507675425849
11
2198.04134998478
21
415.37653031539736
31
79.18507511663391
  0
LINE
 8
Grouper#11
10
2144.6256428558695
20
415.7974245297932
30
79.1853884368522
11
2144.903030103708
21
415.3787301946918
31
79.18507675425849
  0
LINE
 8
Grouper#11
10
2144.3942825484746
20
416.24320589626666
30
79.18572028345459
11
2144.6256428558695
21
415.7974245297932
31
79.1853884368522
  0
LINE
 8
Grouper#11
10
2144.211565182192
20
416.711033825563
30
79.18606854186218
11
2144.3942825484746
21
416.24320589626666
31
79.18572028345459
  0
LINE
 8
Grouper#11
10
2144.0795567499213
20
417.19561856772566
30
79.1864292743026
11
2144.211565182192
21
416.711033825563
31
79.18606854186218
  0
LINE
 8
Grouper#11
10
2143.9997498765265
20
417.69148090281334
30
79.18679840195917
11
2144.0795567499213
21
417.19561856772566
31
79.1864292743026
  0
LINE
 8
Grouper#11
10
2143.973046941661
20
418.19301409467107
30
79.18717175108993
11
2143.9997498765265
21
417.69148090281334
31
79.18679840195917
  0
LINE
 8
Grouper#11
10
2143.999749876526
20
418.69454728652886
30
79.18754510022072
11
2143.973046941661
21
418.19301409467107
31
79.18717175108993
  0
LINE
 8
Grouper#11
10
2144.079556749921
20
419.19040962161677
30
79.18791422787726
11
2143.999749876526
21
418.69454728652886
31
79.18754510022072
  0
LINE
 8
Grouper#11
10
2144.2115651821914
20
419.6749943637793
30
79.18827496031776
11
2144.079556749921
21
419.19040962161677
31
79.18791422787726
  0
LINE
 8
Grouper#11
10
2144.394282548474
20
420.1428222930758
30
79.18862321872533
11
2144.2115651821914
21
419.6749943637793
31
79.18827496031776
  0
LINE
 8
Grouper#11
10
2144.6256428558695
20
420.5886036595493
30
79.1889550653277
11
2144.394282548474
21
420.1428222930758
31
79.18862321872533
  0
LINE
 8
Grouper#11
10
2144.903030103707
20
421.0072979946507
30
79.1892667479214
11
2144.6256428558695
21
420.5886036595493
31
79.1889550653277
  0
LINE
 8
Grouper#11
10
2183.741354744621
20
473.3558370040416
30
79.22823581687568
11
2144.903030103707
21
421.0072979946507
31
79.1892667479214
  0
LINE
 8
Grouper#11
10
2153.741354744621
20
473.3558370040416
30
79.2282358168757
11
2131.741184454703
21
434.02700998681115
31
79.19895882460551
  0
LINE
 8
Grouper#11
10
2131.741184454703
20
434.02700998681115
30
79.19895882460551
11
2131.543665929713
21
433.73731800424287
31
79.19874317337515
  0
LINE
 8
Grouper#11
10
2131.543665929713
20
433.73731800424287
30
79.19874317337515
11
2131.298276424878
21
433.4868803570227
31
79.1985567436843
  0
LINE
 8
Grouper#11
10
2131.298276424878
20
433.4868803570227
30
79.1985567436843
11
2131.0126660257692
21
433.2835045079549
31
79.19840534753007
  0
LINE
 8
Grouper#11
10
2131.0126660257692
20
433.2835045079549
30
79.19840534753007
11
2130.6957387154416
21
433.13353075528994
31
79.19829370472934
  0
LINE
 8
Grouper#11
10
2130.6957387154416
20
433.13353075528994
30
79.19829370472934
11
2130.357374790305
21
433.04163457217834
31
79.19822529577726
  0
LINE
 8
Grouper#11
10
2130.357374790305
20
433.04163457217834
30
79.19822529577726
11
2130.008122839155
21
433.0106808475033
31
79.19820225334178
  0
LINE
 8
Grouper#11
10
2130.008122839155
20
433.0106808475033
30
79.19820225334178
11
2129.6588708880054
21
433.04163457217834
31
79.19822529577726
  0
LINE
 8
Grouper#11
10
2129.6588708880054
20
433.04163457217834
30
79.19822529577726
11
2129.3205069628684
21
433.13353075528994
31
79.19829370472934
  0
LINE
 8
Grouper#11
10
2129.3205069628684
20
433.13353075528994
30
79.19829370472934
11
2129.0035796525412
21
433.2835045079549
31
79.19840534753007
  0
LINE
 8
Grouper#11
10
2129.0035796525412
20
433.2835045079549
30
79.19840534753007
11
2128.7179692534323
21
433.4868803570227
31
79.1985567436843
  0
LINE
 8
Grouper#11
10
2128.7179692534323
20
433.4868803570227
30
79.1985567436843
11
2128.472579748597
21
433.7373180042427
31
79.19874317337514
  0
LINE
 8
Grouper#11
10
2128.472579748597
20
433.7373180042427
30
79.19874317337514
11
2128.2750612236073
21
434.027009986811
31
79.1989588246055
  0
LINE
 8
Grouper#11
10
2128.2750612236
20
572.8842677889216
30
79.30232633316474
11
2128.2750612236073
21
434.027009986811
31
79.1989588246055
  0
LINE
 8
Grouper#11
10
2128.2750612236
20
572.8842677889216
30
79.30232633316474
11
2128.6017802940464
21
573.3576585076078
31
79.3026787325995
  0
LINE
 8
Grouper#11
10
2128.6017802940464
20
573.3576585076078
30
79.3026787325995
11
2129.006242834524
21
573.7666257537076
31
79.30298317419647
  0
LINE
 8
Grouper#11
10
2129.006242834524
20
573.7666257537076
30
79.30298317419647
11
2129.475985982522
21
574.098567859452
31
79.30323027707752
  0
LINE
 8
Grouper#11
10
2129.475985982522
20
574.098567859452
30
79.30323027707752
11
2129.996535358627
21
574.3432565628596
31
79.30341242716494
  0
LINE
 8
Grouper#11
10
2129.996535358627
20
574.3432565628596
30
79.30341242716494
11
2130.55185107124
21
574.4931521751739
31
79.30352401179674
  0
LINE
 8
Grouper#11
10
2130.55185107124
20
574.4931521751739
30
79.30352401179674
11
2131.1248219600325
21
574.5436359042444
31
79.30356159267208
  0
LINE
 8
Grouper#11
10
2131.1248219600325
20
574.5436359042444
30
79.30356159267208
11
2131.6977928488254
21
574.4931521751739
31
79.30352401179674
  0
LINE
 8
Grouper#11
10
2131.6977928488254
20
574.4931521751739
30
79.30352401179674
11
2132.253108561438
21
574.3432565628597
31
79.30341242716493
  0
LINE
 8
Grouper#11
10
2132.253108561438
20
574.3432565628597
30
79.30341242716493
11
2132.773657937543
21
574.0985678594521
31
79.30323027707752
  0
LINE
 8
Grouper#11
10
2132.773657937543
20
574.0985678594521
30
79.30323027707752
11
2133.243401085541
21
573.7666257537078
31
79.30298317419647
  0
LINE
 8
Grouper#11
10
2133.243401085541
20
573.7666257537078
30
79.30298317419647
11
2133.647863626019
21
573.357658507608
31
79.3026787325995
  0
LINE
 8
Grouper#11
10
2133.647863626019
20
573.357658507608
30
79.3026787325995
11
2133.9745826964654
21
572.8842677889219
31
79.30232633316473
  0
LINE
 8
Grouper#11
10
2133.9745826964654
20
572.8842677889219
30
79.30232633316473
11
2153.741354744621
21
538.0558183113903
31
79.27639949213055
  0
LINE
 8
Grouper#11
10
2144.9030301036973
20
589.8136283017596
30
79.31492881318934
11
2183.741354744621
21
538.0558183113903
31
79.27639949213055
  0
LINE
 8
Grouper#11
10
2144.626384075563
20
590.2267154275321
30
79.31523632168899
11
2144.9030301036973
21
589.8136283017596
31
79.31492881318934
  0
LINE
 8
Grouper#11
10
2144.39556450107
20
590.66705201414
30
79.31556411511227
11
2144.626384075563
21
590.2267154275321
31
79.31523632168899
  0
LINE
 8
Grouper#11
10
2144.213225894331
20
591.1295740210404
30
79.31590842370849
11
2144.39556450107
21
590.66705201414
31
79.31556411511227
  0
LINE
 8
Grouper#11
10
2144.0814652196354
20
591.6089622668027
30
79.31626528779596
11
2144.213225894331
21
591.1295740210404
31
79.31590842370849
  0
LINE
 8
Grouper#11
10
2144.0017977755488
20
592.0997036017442
30
79.31663060330011
11
2144.0814652196354
21
591.6089622668027
31
79.31626528779596
  0
LINE
 8
Grouper#11
10
2143.9751397684
20
592.5961543112807
30
79.31700016895175
11
2144.0017977755488
21
592.0997036017442
31
79.31663060330011
  0
LINE
 8
Grouper#11
10
2144.0017977755488
20
593.092605020817
30
79.31736973460345
11
2143.9751397684
21
592.5961543112807
31
79.31700016895175
  0
LINE
 8
Grouper#11
10
2144.0814652196354
20
593.5833463557587
30
79.31773505010759
11
2144.0017977755488
21
593.092605020817
31
79.31736973460345
  0
LINE
 8
Grouper#11
10
2144.213225894331
20
594.0627346015208
30
79.31809191419508
11
2144.0814652196354
21
593.5833463557587
31
79.31773505010759
  0
LINE
 8
Grouper#11
10
2144.39556450107
20
594.5252566084213
30
79.31843622279128
11
2144.213225894331
21
594.0627346015208
31
79.31809191419508
  0
LINE
 8
Grouper#11
10
2144.626384075563
20
594.9655931950293
30
79.31876401621457
11
2144.39556450107
21
594.5252566084213
31
79.31843622279128
  0
LINE
 8
Grouper#11
10
2144.9030301036973
20
595.3786803208015
30
79.31907152471423
11
2144.626384075563
21
594.9655931950293
31
79.31876401621457
  0
LINE
 8
Grouper#11
10
2196.9980659856674
20
595.378680320804
30
79.31907152471416
11
2144.9030301036973
21
595.3786803208015
31
79.31907152471423
  0
LINE
 8
Grouper#11
10
2196.9980659856674
20
595.378680320804
30
79.31907152471416
11
2198.200791219201
21
595.2992667316569
31
79.31901240799972
  0
LINE
 8
Grouper#11
10
2198.200791219201
20
595.2992667316569
30
79.31901240799972
11
2199.382633390706
21
595.0624048318584
31
79.318836084307
  0
LINE
 8
Grouper#11
10
2199.382633390706
20
595.0624048318584
30
79.318836084307
11
2200.5230720332574
21
594.6722072828943
31
79.3185456151654
  0
LINE
 8
Grouper#11
10
2200.5230720332574
20
594.6722072828943
30
79.3185456151654
11
2201.602305574353
21
594.1354491314592
31
79.3181460440253
  0
LINE
 8
Grouper#11
10
2201.602305574353
20
594.1354491314592
30
79.3181460440253
11
2202.601595152985
21
593.4614501735116
31
79.31764430868819
  0
LINE
 8
Grouper#11
10
2202.601595152985
20
593.4614501735116
30
79.31764430868819
11
2203.5035899847235
21
592.6619131335425
31
79.31704912084471
  0
LINE
 8
Grouper#11
10
2203.5035899847235
20
592.6619131335425
30
79.31704912084471
11
2204.292628625462
21
591.7507204687693
31
79.31637081481257
  0
LINE
 8
Grouper#11
10
2204.292628625462
20
591.7507204687693
30
79.31637081481257
11
2204.9550109029447
21
590.7436933263737
31
79.31562116810049
  0
LINE
 8
Grouper#11
10
2204.9550109029447
20
590.7436933263737
30
79.31562116810049
11
2205.479235794491
21
589.6583168390295
31
79.31481319691396
  0
LINE
 8
Grouper#11
10
2205.479235794491
20
589.6583168390295
30
79.31481319691396
11
2205.7865682471897
21
588.7249183286274
31
79.31411836050401
  0
LINE
 8
Grouper#11
10
2206.1448424327596
20
586.125367228335
30
79.31218321411797
11
2214.3846718712653
21
526.3391516822338
31
79.26767742273957
  0
LINE
 8
Grouper#11
10
2214.3846718712653
20
526.3391516822338
30
79.26767742273957
11
2214.4107609148914
21
525.7467938418483
31
79.2672364623238
  0
LINE
 8
Grouper#11
10
2214.4107609148914
20
525.7467938418483
30
79.2672364623238
11
2214.3269207829026
21
525.1598191532547
31
79.26679950921016
  0
LINE
 8
Grouper#11
10
2214.3269207829026
20
525.1598191532547
30
79.26679950921016
11
2214.1360402119376
21
524.5984520036056
31
79.26638161874794
  0
LINE
 8
Grouper#11
10
2214.1360402119376
20
524.5984520036056
30
79.26638161874794
11
2213.8446960487354
21
524.0820344646978
31
79.26599718947706
  0
LINE
 8
Grouper#11
10
2213.8446960487354
20
524.0820344646978
30
79.26599718947706
11
2213.462926642932
21
523.6283598561448
31
79.26565946702219
  0
LINE
 8
Grouper#11
10
2213.462926642932
20
523.6283598561448
30
79.26565946702219
11
2213.003885972742
21
523.2530596712685
31
79.26538008771074
  0
LINE
 8
Grouper#11
10
2213.003885972742
20
523.2530596712685
30
79.26538008771074
11
2212.4833904207335
21
522.9690649893561
31
79.26516867763986
  0
LINE
 8
Grouper#11
10
2212.4833904207335
20
522.9690649893561
30
79.26516867763986
11
2211.9193738156723
21
522.7861609314829
31
79.26503252100633
  0
LINE
 8
Grouper#11
10
2211.9193738156723
20
522.7861609314829
30
79.26503252100633
11
2211.3312695171285
21
522.7106495112623
31
79.26497630912735
  0
LINE
 8
Grouper#11
10
2211.3312695171285
20
522.7106495112623
30
79.26497630912735
11
2210.7393408333005
21
522.745132497096
31
79.26500197879982
  0
LINE
 8
Grouper#11
10
2210.7393408333005
20
522.745132497096
30
79.26500197879982
11
2210.1639828427174
21
522.8884217674694
31
79.26510864556768
  0
LINE
 8
Grouper#11
10
2210.1639828427174
20
522.8884217674694
30
79.26510864556768
11
2209.625019675754
21
523.1355802480335
31
79.26529263419572
  0
LINE
 8
Grouper#11
10
2183.741354744621
20
538.0558183113903
30
79.27639949213055
11
2209.625019675754
21
523.1355802480335
31
79.26529263419572
  0
LINE
 8
Grouper#11
10
2183.741354744621
20
514.878702625518
30
79.25914608570473
11
2208.3791505098498
21
507.4562007679181
31
79.25362065954874
  0
LINE
 8
Grouper#11
10
2208.3791505098498
20
507.4562007679181
30
79.25362065954874
11
2208.758355244774
21
507.2948941836428
31
79.2535005804114
  0
LINE
 8
Grouper#11
10
2208.758355244774
20
507.2948941836428
30
79.2535005804114
11
2209.0934214816766
21
507.0550053666111
31
79.2533220034343
  0
LINE
 8
Grouper#11
10
2209.0934214816766
20
507.0550053666111
30
79.2533220034343
11
2209.3683208801535
21
506.74800971838624
31
79.25309347108535
  0
LINE
 8
Grouper#11
10
2209.3683208801535
20
506.74800971838624
30
79.25309347108535
11
2209.5699032607745
21
506.3885927853185
31
79.25282591551432
  0
LINE
 8
Grouper#11
10
2209.5699032607745
20
506.3885927853185
30
79.25282591551432
11
2209.688525661462
21
505.9939477558461
31
79.25253213559883
  0
LINE
 8
Grouper#11
10
2209.688525661462
20
505.9939477558461
30
79.25253213559883
11
2209.718513621443
21
505.58295300139184
31
79.25222618469304
  0
LINE
 8
Grouper#11
10
2209.718513621443
20
505.58295300139184
30
79.25222618469304
11
2209.6584326266484
21
505.1752690042822
31
79.25192269836667
  0
LINE
 8
Grouper#11
10
2209.6584326266484
20
505.1752690042822
30
79.25192269836667
11
2209.51115673161
21
504.7903978723496
31
79.25163619429297
  0
LINE
 8
Grouper#11
10
2209.51115673161
20
504.7903978723496
30
79.25163619429297
11
2209.2837310752257
21
504.44675042959074
31
79.25138037777644
  0
LINE
 8
Grouper#11
10
2209.2837310752257
20
504.44675042959074
30
79.25138037777644
11
2208.987034867144
21
504.1607655098387
31
79.2511674861415
  0
LINE
 8
Grouper#11
10
2208.987034867144
20
504.1607655098387
30
79.2511674861415
11
2208.6352609662563
21
503.94612358322
31
79.25100770334338
  0
LINE
 8
Grouper#11
10
2208.6352609662563
20
503.94612358322
30
79.25100770334338
11
2208.2452369463617
21
503.8130923326164
31
79.25090867280545
  0
LINE
 8
Grouper#11
10
2183.741354744621
20
498.3558300771126
30
79.24684620166126
11
2208.2452369463617
21
503.8130923326164
31
79.25090867280545
  0
LINE
 8
Grouper#11
10
2304.780504009493
20
599.8292461645882
30
79.32238459534683
11
2304.105071083007
21
601.6195804959557
31
79.32371734814812
  0
LINE
 8
Grouper#11
10
2305.667654042446
20
598.1338194753389
30
79.32112249327457
11
2304.780504009493
21
599.8292461645882
31
79.32238459534683
  0
LINE
 8
Grouper#11
10
2133.124303628517
20
605.3786775500292
30
79.32651567862841
11
2132.898836950561
21
603.4785009243578
31
79.3251011575099
  0
LINE
 8
Grouper#11
10
2129.796644169763
20
596.5582266384873
30
79.31994959739129
11
2128.528109550804
21
595.1256320637079
31
79.31888315164461
  0
LINE
 8
Grouper#11
10
2220.8632516746334
20
410.53798979884454
30
79.18147323160338
11
2218.275061223609
21
410.87873144154213
31
79.18172688499693
  0
LINE
 8
Grouper#11
10
2223.275061223609
20
409.5389858506
30
79.18072955748214
11
2220.8632516746334
21
410.53798979884454
31
79.18147323160338
  0
LINE
 8
Grouper#11
10
2131.7696184377155
20
410.92816435091277
30
79.18176368362579
11
2130.882468404762
21
412.62359104016076
31
79.18302578569799
  0
LINE
 8
Grouper#11
10
2129.7966441697718
20
414.19918387700363
30
79.18419868158131
11
2128.5281095508126
21
415.6317784517821
31
79.18526512732794
  0
LINE
 8
Grouper#11
10
2215.6868707725835
20
410.5379897988447
30
79.18147323160338
11
2213.275061223608
21
409.5389858505996
31
79.18072955748214
  0
LINE
 8
Grouper#11
10
2213.275061223608
20
409.5389858505996
30
79.18072955748214
11
2211.203993411743
21
407.94980006494796
31
79.17954654279573
  0
LINE
 8
Grouper#11
10
2211.203993411743
20
407.94980006494796
30
79.17954654279573
11
2209.6148071857647
21
405.8787328269279
31
79.17800480803987
  0
LINE
 8
Grouper#11
10
2218.275061223609
20
410.87873144154213
30
79.18172688499693
11
2215.6868707725835
21
410.5379897988447
31
79.18147323160338
  0
LINE
 8
Grouper#11
10
2130.882468404752
20
598.13381947533
30
79.32112249327457
11
2129.796644169763
21
596.5582266384873
31
79.31994959739129
  0
LINE
 8
Grouper#11
10
2306.753478277436
20
596.5582266384962
30
79.31994959739129
11
2305.667654042446
21
598.1338194753389
31
79.32112249327457
  0
LINE
 8
Grouper#11
10
2308.0220128963933
20
595.1256320637177
30
79.3188831516446
11
2306.753478277436
21
596.5582266384962
31
79.31994959739129
  0
LINE
 8
Grouper#11
10
2309.4546078681105
20
593.857097796242
30
79.3179388349497
11
2308.0220128963933
21
595.1256320637177
31
79.3188831516446
  0
LINE
 8
Grouper#11
10
2311.0302011415156
20
592.7712738621084
30
79.31713053067685
11
2309.4546078681105
21
593.857097796242
31
79.3179388349497
  0
LINE
 8
Grouper#11
10
2312.7256283005277
20
591.8841240749651
30
79.31647012253778
11
2311.0302011415156
21
592.7712738621084
31
79.31713053067685
  0
LINE
 8
Grouper#11
10
2314.5159631279566
20
591.2086913356255
30
79.31596731987142
11
2312.7256283005277
21
591.8841240749651
31
79.31647012253778
  0
LINE
 8
Grouper#11
10
2303.6512854966372
20
603.4785009243666
30
79.32510115750992
11
2303.425818818682
21
605.3786775500367
31
79.3265156786284
  0
LINE
 8
Grouper#11
10
2131.7696184377055
20
599.8292461645794
30
79.32238459534685
11
2130.882468404752
21
598.13381947533
31
79.32112249327457
  0
LINE
 8
Grouper#11
10
2132.898836950561
20
603.4785009243578
30
79.3251011575099
11
2132.4450513641914
21
601.6195804959474
31
79.32371734814812
  0
LINE
 8
Grouper#11
10
2127.095514579086
20
593.8570977962326
30
79.31793883494969
11
2125.5199213056835
21
592.7712738620999
31
79.31713053067686
  0
LINE
 8
Grouper#11
10
2128.528109550804
20
595.1256320637079
30
79.31888315164461
11
2127.095514579086
21
593.8570977962326
31
79.31793883494969
  0
LINE
 8
Grouper#11
10
2314.1148071857583
20
510.3787038723694
30
79.2557962164434
11
2313.115802960713
21
507.96689499165154
31
79.25400082829397
  0
LINE
 8
Grouper#11
10
2313.115802960713
20
507.96689499165154
30
79.25400082829397
11
2312.775061223603
21
505.378705257755
31
79.2520741394863
  0
LINE
 8
Grouper#11
10
2315.703993411738
20
498.3076394051213
30
79.24681032777339
11
2317.775061223603
21
496.7184536194699
31
79.2456273130869
  0
LINE
 8
Grouper#11
10
2312.775061223603
20
505.378705257755
30
79.2520741394863
11
2313.1158029607122
21
502.7905155238583
31
79.25014745067877
  0
LINE
 8
Grouper#11
10
2317.775061223603
20
496.7184536194699
30
79.2456273130869
11
2318.275061223603
21
496.51134689566726
31
79.24547313961143
  0
LINE
 8
Grouper#11
10
2120.175238375766
20
590.7549058749797
30
79.31562951489656
11
2118.2750612235986
21
590.529439259496
31
79.3154616740312
  0
LINE
 8
Grouper#11
10
2132.4450513641914
20
601.6195804959474
30
79.32371734814812
11
2131.7696184377055
21
599.8292461645794
31
79.32238459534685
 0
ENDSEC
 0
EOF
