 0
SECTION
 2
ENTITIES
  0
POLYLINE
 8
feet#1
 66
     1
70
    8
 10
0.0
 20
 0.0
 30
0.0
  0
VERTEX
  8
MY3DLAYER
10
1753.4951404071164
20
539.2016297928058
30
83.81402547225528
 70
     32
  0
VERTEX
  8
MY3DLAYER
10
1761.4951405734544
20
539.2016297928062
30
83.81402547225555
 70
     32
  0
VERTEX
  8
MY3DLAYER
10
1761.4951405701995
20
450.92681353755256
30
83.81402547225558
 70
     32
  0
VERTEX
  8
MY3DLAYER
10
1800.9951404071205
20
450.9268135375546
30
83.81402547225703
 70
     32
  0
VERTEX
  8
MY3DLAYER
10
1800.9951404071144
20
549.2016297928083
30
83.81402547225703
 70
     32
  0
VERTEX
  8
MY3DLAYER
10
1801.0806917933771
20
550.5068917150088
30
83.81402547225707
 70
     32
  0
VERTEX
  8
MY3DLAYER
10
1801.3358821442243
20
551.7898202438336
30
83.81402547225709
 70
     32
  0
VERTEX
  8
MY3DLAYER
10
1801.756345082002
20
553.0284641164592
30
83.81402547225707
 70
     32
  0
VERTEX
  8
MY3DLAYER
10
1802.3348863692697
20
554.2016297928085
30
83.81402547225709
 70
     32
  0
VERTEX
  8
MY3DLAYER
10
1803.0616070042015
20
555.2892440828957
30
83.81402547225711
 70
     32
  0
VERTEX
  8
MY3DLAYER
10
1803.924072595249
20
556.2726976046737
30
83.81402547225714
 70
     32
  0
VERTEX
  8
MY3DLAYER
10
1804.9075261170278
20
557.1351631957209
30
83.81402547225719
 70
     32
  0
VERTEX
  8
MY3DLAYER
10
1805.9951404071146
20
557.8618838306529
30
83.81402547225723
 70
     32
  0
VERTEX
  8
MY3DLAYER
10
1807.168306083464
20
558.4404251179216
30
83.81402547225727
 70
     32
  0
VERTEX
  8
MY3DLAYER
10
1808.4069499560896
20
558.8608880556997
30
83.81402547225731
 70
     32
  0
VERTEX
  8
MY3DLAYER
10
1809.6898784849143
20
559.1160784065471
30
83.81402547225736
 70
     32
  0
VERTEX
  8
MY3DLAYER
10
1812.3004023293151
20
559.2871811790706
30
83.81402547225747
 70
     32
  0
VERTEX
  8
MY3DLAYER
10
1813.58333085814
20
559.5423715299182
30
83.81402547225751
 70
     32
  0
VERTEX
  8
MY3DLAYER
10
1814.8219747307655
20
559.9628344676963
30
83.81402547225755
 70
     32
  0
VERTEX
  8
MY3DLAYER
10
1815.9951404071148
20
560.5413757549647
30
83.8140254722576
 70
     32
  0
VERTEX
  8
MY3DLAYER
10
1817.0827546972012
20
561.2680963898968
30
83.81402547225764
 70
     32
  0
VERTEX
  8
MY3DLAYER
10
1818.0662082189795
20
562.1305619809439
30
83.81402547225768
 70
     32
  0
VERTEX
  8
MY3DLAYER
10
1818.9286738100268
20
563.1140155027219
30
83.81402547225771
 70
     32
  0
VERTEX
  8
MY3DLAYER
10
1819.6553944449588
20
564.2016297928093
30
83.81402547225774
 70
     32
  0
VERTEX
  8
MY3DLAYER
10
1820.233935732227
20
565.3747954691586
30
83.81402547225775
 70
     32
  0
VERTEX
  8
MY3DLAYER
10
1820.654398670005
20
566.6134393417842
30
83.8140254722578
 70
     32
  0
VERTEX
  8
MY3DLAYER
10
1820.9095890208516
20
567.896367870609
30
83.81402547225781
 70
     32
  0
VERTEX
  8
MY3DLAYER
10
1820.9951404071135
20
569.2016297928092
30
83.8140254722578
 70
     32
  0
VERTEX
  8
MY3DLAYER
10
1820.9951404071119
20
589.2016297928093
30
83.8140254722578
 70
     32
  0
VERTEX
  8
MY3DLAYER
10
1820.909589020851
20
590.5068917150099
30
83.81402547225781
 70
     32
  0
VERTEX
  8
MY3DLAYER
10
1820.6543986700037
20
591.7898202438347
30
83.8140254722578
 70
     32
  0
VERTEX
  8
MY3DLAYER
10
1820.2339357322257
20
593.0284641164603
30
83.81402547225775
 70
     32
  0
VERTEX
  8
MY3DLAYER
10
1819.6553944449574
20
594.2016297928093
30
83.81402547225774
 70
     32
  0
VERTEX
  8
MY3DLAYER
10
1818.9286738100243
20
595.2892440828965
30
83.81402547225771
 70
     32
  0
VERTEX
  8
MY3DLAYER
10
1818.0662082189776
20
596.2726976046748
30
83.81402547225768
 70
     32
  0
VERTEX
  8
MY3DLAYER
10
1817.0827546972
20
597.1351631957215
30
83.81402547225764
 70
     32
  0
VERTEX
  8
MY3DLAYER
10
1815.9951404071128
20
597.8618838306534
30
83.8140254722576
 70
     32
  0
VERTEX
  8
MY3DLAYER
10
1814.8219747307635
20
598.440425117922
30
83.81402547225755
 70
     32
  0
VERTEX
  8
MY3DLAYER
10
1813.5833308581377
20
598.8608880556995
30
83.81402547225751
 70
     32
  0
VERTEX
  8
MY3DLAYER
10
1812.300402329313
20
599.1160784065469
30
83.81402547225747
 70
     32
  0
VERTEX
  8
MY3DLAYER
10
1810.9951404071123
20
599.2016297928087
30
83.81402547225744
 70
     32
  0
VERTEX
  8
MY3DLAYER
10
1761.495140572348
20
599.2016297928066
30
83.81402547225555
 70
     32
  0
VERTEX
  8
MY3DLAYER
10
1761.4951405723498
20
559.2016297928066
30
83.81402547225555
 70
     32
  0
VERTEX
  8
MY3DLAYER
10
1753.4951404071157
20
559.201629792806
30
83.81402547225528
 70
     32
  0
VERTEX
  8
MY3DLAYER
10
1753.4951404071164
20
539.2016297928058
30
83.81402547225528
 70
     32
  0
SEQEND
  0
POLYLINE
 8
feet#1
 66
     1
70
    8
 10
0.0
 20
 0.0
 30
0.0
  0
VERTEX
  8
MY3DLAYER
10
1753.4951404071273
20
289.1695663801924
30
83.81402547225525
 70
     32
  0
VERTEX
  8
MY3DLAYER
10
1761.4951405734676
20
289.16956638019275
30
83.81402547225558
 70
     32
  0
VERTEX
  8
MY3DLAYER
10
1761.4951405734705
20
249.16956638019283
30
83.81402547225558
 70
     32
  0
VERTEX
  8
MY3DLAYER
10
1810.9951404071312
20
249.1695663801955
30
83.81402547225741
 70
     32
  0
VERTEX
  8
MY3DLAYER
10
1812.3004023293317
20
249.25511776645743
30
83.81402547225746
 70
     32
  0
VERTEX
  8
MY3DLAYER
10
1813.5833308581566
20
249.51030811730496
30
83.8140254722575
 70
     32
  0
VERTEX
  8
MY3DLAYER
10
1814.8219747307821
20
249.93077105508286
30
83.81402547225758
 70
     32
  0
VERTEX
  8
MY3DLAYER
10
1815.9951404071312
20
250.50931234235122
30
83.81402547225758
 70
     32
  0
VERTEX
  8
MY3DLAYER
10
1817.082754697218
20
251.23603297728332
30
83.81402547225763
 70
     32
  0
VERTEX
  8
MY3DLAYER
10
1818.0662082189965
20
252.0984985683304
30
83.81402547225767
 70
     32
  0
VERTEX
  8
MY3DLAYER
10
1818.9286738100432
20
253.0819520901088
30
83.8140254722577
 70
     32
  0
VERTEX
  8
MY3DLAYER
10
1819.6553944449743
20
254.1695663801958
30
83.81402547225775
 70
     32
  0
VERTEX
  8
MY3DLAYER
10
1820.233935732243
20
255.34273205654506
30
83.81402547225778
 70
     32
  0
VERTEX
  8
MY3DLAYER
10
1820.6543986700215
20
256.58137592917075
30
83.81402547225777
 70
     32
  0
VERTEX
  8
MY3DLAYER
10
1820.9095890208685
20
257.8643044579955
30
83.81402547225778
 70
     32
  0
VERTEX
  8
MY3DLAYER
10
1820.9951404071303
20
259.16956638019593
30
83.81402547225778
 70
     32
  0
VERTEX
  8
MY3DLAYER
10
1820.9951404071296
20
279.16956638019604
30
83.81402547225778
 70
     32
  0
VERTEX
  8
MY3DLAYER
10
1820.9095890208675
20
280.47482830239653
30
83.81402547225778
 70
     32
  0
VERTEX
  8
MY3DLAYER
10
1820.6543986700192
20
281.75775683122123
30
83.81402547225777
 70
     32
  0
VERTEX
  8
MY3DLAYER
10
1820.2339357322417
20
282.99640070384686
30
83.81402547225778
 70
     32
  0
VERTEX
  8
MY3DLAYER
10
1819.6553944449736
20
284.16956638019565
30
83.81402547225775
 70
     32
  0
VERTEX
  8
MY3DLAYER
10
1818.9286738100418
20
285.257180670283
30
83.8140254722577
 70
     32
  0
VERTEX
  8
MY3DLAYER
10
1818.0662082189947
20
286.24063419206135
30
83.81402547225767
 70
     32
  0
VERTEX
  8
MY3DLAYER
10
1817.0827546972162
20
287.10309978310795
30
83.81402547225763
 70
     32
  0
VERTEX
  8
MY3DLAYER
10
1815.995140407129
20
287.8298204180401
30
83.81402547225763
 70
     32
  0
VERTEX
  8
MY3DLAYER
10
1814.821974730779
20
288.4083617053085
30
83.81402547225758
 70
     32
  0
VERTEX
  8
MY3DLAYER
10
1813.5833308581532
20
288.82882464308625
30
83.81402547225753
 70
     32
  0
VERTEX
  8
MY3DLAYER
10
1812.3004023293286
20
289.08401499393364
30
83.81402547225746
 70
     32
  0
VERTEX
  8
MY3DLAYER
10
1809.6898784849277
20
289.25511776645726
30
83.81402547225738
 70
     32
  0
VERTEX
  8
MY3DLAYER
10
1808.406949956103
20
289.5103081173044
30
83.8140254722573
 70
     32
  0
VERTEX
  8
MY3DLAYER
10
1807.1683060834773
20
289.9307710550824
30
83.81402547225726
 70
     32
  0
VERTEX
  8
MY3DLAYER
10
1805.9951404071292
20
290.5093123423508
30
83.81402547225721
 70
     32
  0
VERTEX
  8
MY3DLAYER
10
1804.907526117042
20
291.2360329772829
30
83.8140254722572
 70
     32
  0
VERTEX
  8
MY3DLAYER
10
1803.9240725952632
20
292.09849856832955
30
83.81402547225714
 70
     32
  0
VERTEX
  8
MY3DLAYER
10
1803.061607004216
20
293.0819520901079
30
83.81402547225714
 70
     32
  0
VERTEX
  8
MY3DLAYER
10
1802.3348863692845
20
294.1695663801951
30
83.81402547225709
 70
     32
  0
VERTEX
  8
MY3DLAYER
10
1801.756345082015
20
295.34273205654415
30
83.81402547225706
 70
     32
  0
VERTEX
  8
MY3DLAYER
10
1801.3358821442373
20
296.58137592916984
30
83.81402547225704
 70
     32
  0
VERTEX
  8
MY3DLAYER
10
1801.0806917933905
20
297.86430445799454
30
83.81402547225703
 70
     32
  0
VERTEX
  8
MY3DLAYER
10
1800.9951404071285
20
299.169566380195
30
83.81402547225703
 70
     32
  0
VERTEX
  8
MY3DLAYER
10
1800.9951404071226
20
398.95594228717334
30
83.81402547225703
 70
     32
  0
VERTEX
  8
MY3DLAYER
10
1761.4951405393933
20
398.95594228717124
30
83.81402547225558
 70
     32
  0
VERTEX
  8
MY3DLAYER
10
1761.4951405734664
20
309.169566380193
30
83.81402547225558
 70
     32
  0
VERTEX
  8
MY3DLAYER
10
1753.4951404071262
20
309.16956638019235
30
83.81402547225525
 70
     32
  0
VERTEX
  8
MY3DLAYER
10
1753.4951404071273
20
289.1695663801924
30
83.81402547225525
 70
     32
  0
SEQEND
  0
POLYLINE
 8
feet#1
 66
     1
70
    8
 10
0.0
 20
 0.0
 30
0.0
  0
VERTEX
  8
MY3DLAYER
10
1800.9951404071226
20
398.95594228717334
30
83.81402547225703
 70
     32
  0
VERTEX
  8
MY3DLAYER
10
1800.9951404071205
20
450.9268135375546
30
83.81402547225703
 70
     32
  0
VERTEX
  8
MY3DLAYER
10
1761.4951405701995
20
450.92681353755256
30
83.81402547225558
 70
     32
  0
VERTEX
  8
MY3DLAYER
10
1761.495140573459
20
439.6796522998028
30
83.81402547225558
 70
     32
  0
VERTEX
  8
MY3DLAYER
10
1753.495140407119
20
439.67965229980234
30
83.81402547225528
 70
     32
  0
VERTEX
  8
MY3DLAYER
10
1753.4951404071207
20
419.6796522998024
30
83.81402547225528
 70
     32
  0
VERTEX
  8
MY3DLAYER
10
1761.4951405734614
20
419.67965229980285
30
83.81402547225558
 70
     32
  0
VERTEX
  8
MY3DLAYER
10
1761.4951405393933
20
398.95594228717124
30
83.81402547225558
 70
     32
  0
VERTEX
  8
MY3DLAYER
10
1800.9951404071226
20
398.95594228717334
30
83.81402547225703
 70
     32
  0
SEQEND
 0
ENDSEC
 0
EOF
