 0
SECTION
 2
ENTITIES
  0
POLYLINE
 8
pied#1
 66
     1
70
    8
 10
0.0
 20
 0.0
 30
0.0
  0
VERTEX
  8
MY3DLAYER
10
1817.9630769945109
20
296.3323348375989
30
78.9994480936433
 70
     32
  0
VERTEX
  8
MY3DLAYER
10
1867.4630770866922
20
296.332334837601
30
78.99944809364506
 70
     32
  0
VERTEX
  8
MY3DLAYER
10
1867.46307708669
20
336.33233483760097
30
78.9994480936451
 70
     32
  0
VERTEX
  8
MY3DLAYER
10
1875.463076994507
20
336.3323348376013
30
78.99944809364537
 70
     32
  0
VERTEX
  8
MY3DLAYER
10
1875.463076994506
20
356.3323348376014
30
78.9994480936454
 70
     32
  0
VERTEX
  8
MY3DLAYER
10
1867.4630771977525
20
356.33233483760074
30
78.99944809364511
 70
     32
  0
VERTEX
  8
MY3DLAYER
10
1867.463077197747
20
455.8543123306045
30
78.99944809364514
 70
     32
  0
VERTEX
  8
MY3DLAYER
10
1875.4630769945009
20
455.85431233060524
30
78.99944809364548
 70
     32
  0
VERTEX
  8
MY3DLAYER
10
1875.4630769944997
20
475.85431233060535
30
78.99944809364547
 70
     32
  0
VERTEX
  8
MY3DLAYER
10
1867.4630771977459
20
475.8543123306043
30
78.99944809364517
 70
     32
  0
VERTEX
  8
MY3DLAYER
10
1867.4630771977409
20
586.3643982502141
30
78.9994480936452
 70
     32
  0
VERTEX
  8
MY3DLAYER
10
1875.463076994494
20
586.3643982502152
30
78.99944809364541
 70
     32
  0
VERTEX
  8
MY3DLAYER
10
1875.4630769944924
20
606.364398250215
30
78.99944809364541
 70
     32
  0
VERTEX
  8
MY3DLAYER
10
1867.4630774541895
20
606.3643982502144
30
78.99944809364516
 70
     32
  0
VERTEX
  8
MY3DLAYER
10
1867.4630774541872
20
646.3643982502143
30
78.99944809364517
 70
     32
  0
VERTEX
  8
MY3DLAYER
10
1817.9630769944922
20
646.3643982502116
30
78.99944809364334
 70
     32
  0
VERTEX
  8
MY3DLAYER
10
1816.657815072292
20
646.2788468639499
30
78.99944809364331
 70
     32
  0
VERTEX
  8
MY3DLAYER
10
1815.3748865434673
20
646.0236565131021
30
78.99944809364321
 70
     32
  0
VERTEX
  8
MY3DLAYER
10
1814.1362426708415
20
645.6031935753244
30
78.99944809364315
 70
     32
  0
VERTEX
  8
MY3DLAYER
10
1812.9630769944922
20
645.0246522880564
30
78.9994480936431
 70
     32
  0
VERTEX
  8
MY3DLAYER
10
1811.8754627044054
20
644.297931653124
30
78.99944809364311
 70
     32
  0
VERTEX
  8
MY3DLAYER
10
1810.892009182627
20
643.4354660620772
30
78.99944809364307
 70
     32
  0
VERTEX
  8
MY3DLAYER
10
1810.029543591581
20
642.4520125402988
30
78.99944809364305
 70
     32
  0
VERTEX
  8
MY3DLAYER
10
1809.3028229566482
20
641.3643982502116
30
78.99944809364301
 70
     32
  0
VERTEX
  8
MY3DLAYER
10
1808.7242816693797
20
640.1912325738623
30
78.99944809364297
 70
     32
  0
VERTEX
  8
MY3DLAYER
10
1808.303818731602
20
638.9525887012369
30
78.99944809364293
 70
     32
  0
VERTEX
  8
MY3DLAYER
10
1808.048628380755
20
637.6696601724121
30
78.99944809364291
 70
     32
  0
VERTEX
  8
MY3DLAYER
10
1807.9630769944931
20
636.3643982502115
30
78.99944809364297
 70
     32
  0
VERTEX
  8
MY3DLAYER
10
1807.9630769944938
20
616.3643982502114
30
78.99944809364294
 70
     32
  0
VERTEX
  8
MY3DLAYER
10
1808.0486283807566
20
615.059136328011
30
78.99944809364294
 70
     32
  0
VERTEX
  8
MY3DLAYER
10
1808.3038187316035
20
613.7762077991864
30
78.99944809364295
 70
     32
  0
VERTEX
  8
MY3DLAYER
10
1808.724281669381
20
612.5375639265606
30
78.99944809364297
 70
     32
  0
VERTEX
  8
MY3DLAYER
10
1809.3028229566498
20
611.3643982502118
30
78.99944809364304
 70
     32
  0
VERTEX
  8
MY3DLAYER
10
1810.0295435915816
20
610.2767839601246
30
78.99944809364303
 70
     32
  0
VERTEX
  8
MY3DLAYER
10
1810.8920091826285
20
609.2933304383463
30
78.99944809364304
 70
     32
  0
VERTEX
  8
MY3DLAYER
10
1811.875462704408
20
608.4308648472996
30
78.9994480936431
 70
     32
  0
VERTEX
  8
MY3DLAYER
10
1812.9630769944952
20
607.7041442123674
30
78.99944809364312
 70
     32
  0
VERTEX
  8
MY3DLAYER
10
1814.1362426708438
20
607.1256029250987
30
78.99944809364318
 70
     32
  0
VERTEX
  8
MY3DLAYER
10
1815.3748865434693
20
606.7051399873208
30
78.99944809364322
 70
     32
  0
VERTEX
  8
MY3DLAYER
10
1816.6578150722942
20
606.4499496364735
30
78.99944809364327
 70
     32
  0
VERTEX
  8
MY3DLAYER
10
1819.268338916695
20
606.2788468639501
30
78.9994480936434
 70
     32
  0
VERTEX
  8
MY3DLAYER
10
1820.5512674455197
20
606.0236565131031
30
78.99944809364341
 70
     32
  0
VERTEX
  8
MY3DLAYER
10
1821.7899113181454
20
605.6031935753252
30
78.99944809364342
 70
     32
  0
VERTEX
  8
MY3DLAYER
10
1822.9630769944947
20
605.0246522880566
30
78.9994480936435
 70
     32
  0
VERTEX
  8
MY3DLAYER
10
1824.050691284582
20
604.2979316531247
30
78.99944809364355
 70
     32
  0
VERTEX
  8
MY3DLAYER
10
1825.0341448063602
20
603.435466062078
30
78.9994480936436
 70
     32
  0
VERTEX
  8
MY3DLAYER
10
1825.8966103974074
20
602.4520125402995
30
78.9994480936436
 70
     32
  0
VERTEX
  8
MY3DLAYER
10
1826.6233310323396
20
601.3643982502125
30
78.99944809364366
 70
     32
  0
VERTEX
  8
MY3DLAYER
10
1827.2018723196077
20
600.1912325738632
30
78.9994480936437
 70
     32
  0
VERTEX
  8
MY3DLAYER
10
1827.6223352573852
20
598.9525887012373
30
78.99944809364366
 70
     32
  0
VERTEX
  8
MY3DLAYER
10
1827.8775256082329
20
597.6696601724129
30
78.99944809364366
 70
     32
  0
VERTEX
  8
MY3DLAYER
10
1827.963076994495
20
596.3643982502126
30
78.99944809364366
 70
     32
  0
VERTEX
  8
MY3DLAYER
10
1827.9630769945084
20
346.3323348375992
30
78.99944809364364
 70
     32
  0
VERTEX
  8
MY3DLAYER
10
1827.8775256082463
20
345.0270729153986
30
78.99944809364362
 70
     32
  0
VERTEX
  8
MY3DLAYER
10
1827.622335257399
20
343.74414438657385
30
78.99944809364368
 70
     32
  0
VERTEX
  8
MY3DLAYER
10
1827.2018723196213
20
342.50550051394805
30
78.99944809364362
 70
     32
  0
VERTEX
  8
MY3DLAYER
10
1826.6233310323528
20
341.3323348375992
30
78.99944809364357
 70
     32
  0
VERTEX
  8
MY3DLAYER
10
1825.896610397422
20
340.2447205475119
30
78.99944809364358
 70
     32
  0
VERTEX
  8
MY3DLAYER
10
1825.0341448063743
20
339.26126702573384
30
78.99944809364355
 70
     32
  0
VERTEX
  8
MY3DLAYER
10
1824.0506912845956
20
338.39880143468673
30
78.99944809364351
 70
     32
  0
VERTEX
  8
MY3DLAYER
10
1822.9630769945084
20
337.6720807997546
30
78.99944809364345
 70
     32
  0
VERTEX
  8
MY3DLAYER
10
1821.7899113181597
20
337.09353951248596
30
78.9994480936434
 70
     32
  0
VERTEX
  8
MY3DLAYER
10
1820.5512674455342
20
336.6730765747079
30
78.99944809364334
 70
     32
  0
VERTEX
  8
MY3DLAYER
10
1819.2683389167091
20
336.41788622386053
30
78.99944809364332
 70
     32
  0
VERTEX
  8
MY3DLAYER
10
1816.6578150723083
20
336.2467834513367
30
78.99944809364321
 70
     32
  0
VERTEX
  8
MY3DLAYER
10
1815.3748865434834
20
335.991593100489
30
78.99944809364314
 70
     32
  0
VERTEX
  8
MY3DLAYER
10
1814.1362426708579
20
335.5711301627109
30
78.99944809364312
 70
     32
  0
VERTEX
  8
MY3DLAYER
10
1812.9630769945081
20
334.9925888754429
30
78.99944809364307
 70
     32
  0
VERTEX
  8
MY3DLAYER
10
1811.875462704421
20
334.26586824051094
30
78.99944809364301
 70
     32
  0
VERTEX
  8
MY3DLAYER
10
1810.892009182644
20
333.4034026494633
30
78.99944809364301
 70
     32
  0
VERTEX
  8
MY3DLAYER
10
1810.0295435915964
20
332.41994912768524
30
78.99944809364295
 70
     32
  0
VERTEX
  8
MY3DLAYER
10
1809.3028229566646
20
331.33233483759807
30
78.99944809364295
 70
     32
  0
VERTEX
  8
MY3DLAYER
10
1808.7242816693963
20
330.1591691612491
30
78.99944809364297
 70
     32
  0
VERTEX
  8
MY3DLAYER
10
1808.3038187316183
20
328.92052528862325
30
78.9994480936429
 70
     32
  0
VERTEX
  8
MY3DLAYER
10
1808.0486283807709
20
327.63759675979867
30
78.99944809364288
 70
     32
  0
VERTEX
  8
MY3DLAYER
10
1807.96307699451
20
326.3323348375984
30
78.99944809364285
 70
     32
  0
VERTEX
  8
MY3DLAYER
10
1807.9630769945115
20
306.3323348375979
30
78.99944809364285
 70
     32
  0
VERTEX
  8
MY3DLAYER
10
1808.0486283807725
20
305.02707291539764
30
78.99944809364288
 70
     32
  0
VERTEX
  8
MY3DLAYER
10
1808.3038187316197
20
303.7441443865728
30
78.9994480936429
 70
     32
  0
VERTEX
  8
MY3DLAYER
10
1808.7242816693977
20
302.50550051394725
30
78.99944809364291
 70
     32
  0
VERTEX
  8
MY3DLAYER
10
1809.302822956666
20
301.3323348375984
30
78.99944809364291
 70
     32
  0
VERTEX
  8
MY3DLAYER
10
1810.029543591598
20
300.24472054751106
30
78.99944809364298
 70
     32
  0
VERTEX
  8
MY3DLAYER
10
1810.8920091826458
20
299.26126702573237
30
78.999448093643
 70
     32
  0
VERTEX
  8
MY3DLAYER
10
1811.8754627044234
20
298.39880143468616
30
78.99944809364303
 70
     32
  0
VERTEX
  8
MY3DLAYER
10
1812.9630769945106
20
297.67208079975427
30
78.99944809364305
 70
     32
  0
VERTEX
  8
MY3DLAYER
10
1814.1362426708597
20
297.0935395124853
30
78.99944809364308
 70
     32
  0
VERTEX
  8
MY3DLAYER
10
1815.3748865434852
20
296.67307657470775
30
78.99944809364312
 70
     32
  0
VERTEX
  8
MY3DLAYER
10
1816.6578150723103
20
296.4178862238605
30
78.99944809364321
 70
     32
  0
VERTEX
  8
MY3DLAYER
10
1817.9630769945109
20
296.3323348375989
30
78.9994480936433
 70
     32
  0
SEQEND
 0
ENDSEC
 0
EOF
