 0
SECTION
 2
ENTITIES
  0
POLYLINE
 8
Z angle bracket#1
 66
     1
70
    8
 10
0.0
 20
 0.0
 30
0.0
  0
VERTEX
  8
MY3DLAYER
10
2388.5631743432314
20
317.1266618419916
30
78.99944809363848
 70
     32
  0
VERTEX
  8
MY3DLAYER
10
2396.5631743432464
20
317.1266618419909
30
78.99944809363883
 70
     32
  0
VERTEX
  8
MY3DLAYER
10
2396.5631743432464
20
258.3516906289389
30
78.99944809363886
 70
     32
  0
VERTEX
  8
MY3DLAYER
10
2461.5631737631666
20
258.35169062894056
30
78.9994480936388
 70
     32
  0
VERTEX
  8
MY3DLAYER
10
2461.5631737631643
20
242.3516906289393
30
78.9994480936388
 70
     32
  0
VERTEX
  8
MY3DLAYER
10
2481.5631737631643
20
242.35169062893934
30
78.99944809363916
 70
     32
  0
VERTEX
  8
MY3DLAYER
10
2481.5631737631666
20
258.35169062894056
30
78.99944809363913
 70
     32
  0
VERTEX
  8
MY3DLAYER
10
2508.4744693202015
20
258.3516906289525
30
78.99944809363912
 70
     32
  0
VERTEX
  8
MY3DLAYER
10
2461.084074084708
20
544.8266618419914
30
78.99944809363907
 70
     32
  0
VERTEX
  8
MY3DLAYER
10
2459.708577908703
20
550.619567300099
30
78.99944809363903
 70
     32
  0
VERTEX
  8
MY3DLAYER
10
2457.6700699782355
20
556.2136917887211
30
78.99944809363903
 70
     32
  0
VERTEX
  8
MY3DLAYER
10
2454.9961004507386
20
561.5334314762246
30
78.99944809363902
 70
     32
  0
VERTEX
  8
MY3DLAYER
10
2451.722807660703
20
566.5068908042455
30
78.99944809363903
 70
     32
  0
VERTEX
  8
MY3DLAYER
10
2447.894429715
20
571.0668541463825
30
78.99944809363907
 70
     32
  0
VERTEX
  8
MY3DLAYER
10
2443.5627066208863
20
575.151694218246
30
78.99944809363905
 70
     32
  0
VERTEX
  8
MY3DLAYER
10
2438.7861810268414
20
578.7062049618244
30
78.99944809363905
 70
     32
  0
VERTEX
  8
MY3DLAYER
10
2433.6294070266367
20
581.6823476478507
30
78.99944809363905
 70
     32
  0
VERTEX
  8
MY3DLAYER
10
2428.1620777195353
20
584.0399001126946
30
78.99944809363907
 70
     32
  0
VERTEX
  8
MY3DLAYER
10
2422.458083317538
20
585.747000355433
30
78.99944809363906
 70
     32
  0
VERTEX
  8
MY3DLAYER
10
2416.594512529213
20
586.7805771484605
30
78.99944809363906
 70
     32
  0
VERTEX
  8
MY3DLAYER
10
2410.650610716289
20
587.1266618419905
30
78.99944809363907
 70
     32
  0
VERTEX
  8
MY3DLAYER
10
2388.5631743431995
20
587.1266618419902
30
78.99944809363835
 70
     32
  0
VERTEX
  8
MY3DLAYER
10
2388.5631743432036
20
567.1266618419904
30
78.99944809363873
 70
     32
  0
VERTEX
  8
MY3DLAYER
10
2396.563174343202
20
567.1266618419911
30
78.99944809363912
 70
     32
  0
VERTEX
  8
MY3DLAYER
10
2396.5631743432223
20
437.1266618419906
30
78.99944809363915
 70
     32
  0
VERTEX
  8
MY3DLAYER
10
2388.563174343207
20
437.1266618419897
30
78.99944809363913
 70
     32
  0
VERTEX
  8
MY3DLAYER
10
2388.5631743432073
20
417.1266618419897
30
78.99944809363916
 70
     32
  0
VERTEX
  8
MY3DLAYER
10
2396.5631743432227
20
417.1266618419906
30
78.99944809363915
 70
     32
  0
VERTEX
  8
MY3DLAYER
10
2396.5631743432414
20
337.12666184199253
30
78.99944809363922
 70
     32
  0
VERTEX
  8
MY3DLAYER
10
2388.563174343225
20
337.12666184199185
30
78.99944809363848
 70
     32
  0
VERTEX
  8
MY3DLAYER
10
2388.5631743432314
20
317.1266618419916
30
78.99944809363848
 70
     32
  0
SEQEND
  0
POLYLINE
 8
Z angle bracket#1
 66
     1
70
    8
 10
0.0
 20
 0.0
 30
0.0
  0
VERTEX
  8
MY3DLAYER
10
2471.877031261387
20
334.1865897063094
30
78.99944809363949
 70
     32
  0
VERTEX
  8
MY3DLAYER
10
2471.1286471173166
20
334.15388387099637
30
78.99944809363949
 70
     32
  0
VERTEX
  8
MY3DLAYER
10
2470.3972986515087
20
334.3159885295353
30
78.99944809363949
 70
     32
  0
VERTEX
  8
MY3DLAYER
10
2469.7328260532977
20
334.66185651733736
30
78.99944809363949
 70
     32
  0
VERTEX
  8
MY3DLAYER
10
2469.1805120321583
20
335.16791750260785
30
78.99944809363947
 70
     32
  0
VERTEX
  8
MY3DLAYER
10
2418.654391005711
20
443.5303265003435
30
78.99944809363876
 70
     32
  0
VERTEX
  8
MY3DLAYER
10
2418.0224834010282
20
445.02517038993153
30
78.99944809363876
 70
     32
  0
VERTEX
  8
MY3DLAYER
10
2417.500850111777
20
446.56197362608117
30
78.99944809363876
 70
     32
  0
VERTEX
  8
MY3DLAYER
10
2417.092248174351
20
448.13261360132276
30
78.99944809363876
 70
     32
  0
VERTEX
  8
MY3DLAYER
10
2416.7988372101454
20
449.7287888677579
30
78.99944809363879
 70
     32
  0
VERTEX
  8
MY3DLAYER
10
2416.622168011112
20
451.3420630134651
30
78.99944809363879
 70
     32
  0
VERTEX
  8
MY3DLAYER
10
2416.5631743432145
20
452.96390925224466
30
78.99944809363879
 70
     32
  0
VERTEX
  8
MY3DLAYER
10
2416.5631743432
20
559.0223773941977
30
78.99944809363872
 70
     32
  0
VERTEX
  8
MY3DLAYER
10
2416.644467786214
20
559.959217511775
30
78.99944809363872
 70
     32
  0
VERTEX
  8
MY3DLAYER
10
2416.885917939359
20
560.8680518494438
30
78.99944809363944
 70
     32
  0
VERTEX
  8
MY3DLAYER
10
2417.2803069223155
20
561.7217118285353
30
78.99944809363943
 70
     32
  0
VERTEX
  8
MY3DLAYER
10
2417.81584492074
20
562.4946782456731
30
78.99944809363943
 70
     32
  0
VERTEX
  8
MY3DLAYER
10
2418.4765226294853
20
563.1638441406099
30
78.99944809363943
 70
     32
  0
VERTEX
  8
MY3DLAYER
10
2419.242589832741
20
563.7092055527719
30
78.99944809363943
 70
     32
  0
VERTEX
  8
MY3DLAYER
10
2420.0911458144865
20
564.1144595171246
30
78.99944809363943
 70
     32
  0
VERTEX
  8
MY3DLAYER
10
2420.996823949596
20
564.3674914229464
30
78.99944809363943
 70
     32
  0
VERTEX
  8
MY3DLAYER
10
2421.9325500105215
20
564.4607371664679
30
78.99944809363943
 70
     32
  0
VERTEX
  8
MY3DLAYER
10
2422.870351520822
20
564.3914092712338
30
78.99944809363946
 70
     32
  0
VERTEX
  8
MY3DLAYER
10
2423.782193960836
20
564.1615802165703
30
78.99944809363946
 70
     32
  0
VERTEX
  8
MY3DLAYER
10
2424.640818828066
20
563.7781204831499
30
78.99944809363946
 70
     32
  0
VERTEX
  8
MY3DLAYER
10
2427.78042372616
20
561.9661519628883
30
78.99944809363942
 70
     32
  0
VERTEX
  8
MY3DLAYER
10
2430.688521531171
20
559.8020549246191
30
78.99944809363942
 70
     32
  0
VERTEX
  8
MY3DLAYER
10
2433.325809696781
20
557.3150768454859
30
78.99944809363942
 70
     32
  0
VERTEX
  8
MY3DLAYER
10
2435.6566456321166
20
554.5388288959867
30
78.99944809363942
 70
     32
  0
VERTEX
  8
MY3DLAYER
10
2437.6495284065186
20
551.5108316895734
30
78.99944809363942
 70
     32
  0
VERTEX
  8
MY3DLAYER
10
2439.2775244803333
20
548.2720081966675
30
78.99944809363942
 70
     32
  0
VERTEX
  8
MY3DLAYER
10
2440.518631708039
20
544.8661306762788
30
78.99944809363942
 70
     32
  0
VERTEX
  8
MY3DLAYER
10
2441.489791496182
20
540.7760888894915
30
78.99944809363906
 70
     32
  0
VERTEX
  8
MY3DLAYER
10
2468.517179351591
20
369.757848008391
30
78.99944809363875
 70
     32
  0
VERTEX
  8
MY3DLAYER
10
2474.2045445002614
20
337.5109125723436
30
78.99944809363949
 70
     32
  0
VERTEX
  8
MY3DLAYER
10
2474.237250335574
20
336.7625284282732
30
78.99944809363949
 70
     32
  0
VERTEX
  8
MY3DLAYER
10
2474.0751456770354
20
336.0311799624652
30
78.99944809363949
 70
     32
  0
VERTEX
  8
MY3DLAYER
10
2473.729277689233
20
335.36670736425407
30
78.99944809363949
 70
     32
  0
VERTEX
  8
MY3DLAYER
10
2473.223216703963
20
334.8143933431153
30
78.99944809363949
 70
     32
  0
VERTEX
  8
MY3DLAYER
10
2472.5914499410646
20
334.4118771868468
30
78.99944809363949
 70
     32
  0
VERTEX
  8
MY3DLAYER
10
2471.877031261387
20
334.1865897063094
30
78.99944809363949
 70
     32
  0
SEQEND
  0
POLYLINE
 8
Z angle bracket#1
 66
     1
70
    8
 10
0.0
 20
 0.0
 30
0.0
  0
VERTEX
  8
MY3DLAYER
10
2466.961686367572
20
278.5522574594879
30
78.99944809363954
 70
     32
  0
VERTEX
  8
MY3DLAYER
10
2466.1705857670845
20
278.3516906289411
30
78.99944809363951
 70
     32
  0
VERTEX
  8
MY3DLAYER
10
2416.563174343244
20
278.3516906289394
30
78.99944809363848
 70
     32
  0
VERTEX
  8
MY3DLAYER
10
2416.578958063364
20
392.74949388748206
30
78.99944809363915
 70
     32
  0
VERTEX
  8
MY3DLAYER
10
2416.80551508584
20
393.92608988521954
30
78.99944809363915
 70
     32
  0
VERTEX
  8
MY3DLAYER
10
2416.905903440331
20
394.1231212995342
30
78.99944809363915
 70
     32
  0
VERTEX
  8
MY3DLAYER
10
2417.1937366475436
20
394.45703391083373
30
78.99944809363915
 70
     32
  0
VERTEX
  8
MY3DLAYER
10
2417.572055736541
20
394.68335283195944
30
78.99944809363915
 70
     32
  0
VERTEX
  8
MY3DLAYER
10
2418.0023873091413
20
394.77906241759536
30
78.99944809363915
 70
     32
  0
VERTEX
  8
MY3DLAYER
10
2418.440968524864
20
394.73442942111166
30
78.99944809363915
 70
     32
  0
VERTEX
  8
MY3DLAYER
10
2418.892986096343
20
394.53681216220343
30
78.99944809363915
 70
     32
  0
VERTEX
  8
MY3DLAYER
10
2419.336218978246
20
394.2185405542205
30
78.99944809363917
 70
     32
  0
VERTEX
  8
MY3DLAYER
10
2419.705502510193
20
393.81681692150676
30
78.99944809363917
 70
     32
  0
VERTEX
  8
MY3DLAYER
10
2419.9854171299303
20
393.348415374001
30
78.99944809363917
 70
     32
  0
VERTEX
  8
MY3DLAYER
10
2470.098399351152
20
285.87180315630485
30
78.99944809363951
 70
     32
  0
VERTEX
  8
MY3DLAYER
10
2470.3857714604046
20
285.10794159526716
30
78.99944809363951
 70
     32
  0
VERTEX
  8
MY3DLAYER
10
2470.5534198526957
20
284.30921684282146
30
78.99944809363951
 70
     32
  0
VERTEX
  8
MY3DLAYER
10
2470.5974308086716
20
283.4942749741207
30
78.99944809363951
 70
     32
  0
VERTEX
  8
MY3DLAYER
10
2470.5167769010613
20
282.6821406497664
30
78.99944809363951
 70
     32
  0
VERTEX
  8
MY3DLAYER
10
2470.313340979768
20
281.8917729887788
30
78.99944809363951
 70
     32
  0
VERTEX
  8
MY3DLAYER
10
2469.991872217101
20
281.14162297162454
30
78.99944809363951
 70
     32
  0
VERTEX
  8
MY3DLAYER
10
2469.5598752392657
20
280.44920270563836
30
78.99944809363951
 70
     32
  0
VERTEX
  8
MY3DLAYER
10
2469.027434932313
20
279.83067660825884
30
78.99944809363951
 70
     32
  0
VERTEX
  8
MY3DLAYER
10
2468.406981012422
20
279.3004840518236
30
78.99944809363951
 70
     32
  0
VERTEX
  8
MY3DLAYER
10
2467.712997856575
20
278.8710022792098
30
78.99944809363954
 70
     32
  0
VERTEX
  8
MY3DLAYER
10
2466.961686367572
20
278.5522574594879
30
78.99944809363954
 70
     32
  0
SEQEND
 0
ENDSEC
 0
EOF
