 0
SECTION
 2
ENTITIES
  0
POLYLINE
 8
Différence
 66
     1
70
    8
 10
0.0
 20
 0.0
 30
0.0
  0
VERTEX
  8
MY3DLAYER
10
1762.2237088078639
20
731.7923761049212
30
79.98483835337338
 70
     32
  0
VERTEX
  8
MY3DLAYER
10
1762.223708807865
20
718.9556868798965
30
79.9848383533687
 70
     32
  0
VERTEX
  8
MY3DLAYER
10
1762.180933114734
20
718.303055918796
30
79.98483835336843
 70
     32
  0
VERTEX
  8
MY3DLAYER
10
1762.0533379393098
20
717.6615916543835
30
79.98483835336818
 70
     32
  0
VERTEX
  8
MY3DLAYER
10
1761.843106470421
20
717.0422697180705
30
79.98483835336798
 70
     32
  0
VERTEX
  8
MY3DLAYER
10
1761.5538358267877
20
716.4556868798959
30
79.98483835336775
 70
     32
  0
VERTEX
  8
MY3DLAYER
10
1761.1904755093215
20
715.9118797348523
30
79.98483835336752
 70
     32
  0
VERTEX
  8
MY3DLAYER
10
1760.7592427137981
20
715.4201529739629
30
79.98483835336735
 70
     32
  0
VERTEX
  8
MY3DLAYER
10
1760.2675159529083
20
714.9889201784393
30
79.98483835336714
 70
     32
  0
VERTEX
  8
MY3DLAYER
10
1759.7237088078648
20
714.6255598609731
30
79.98483835336698
 70
     32
  0
VERTEX
  8
MY3DLAYER
10
1759.1371259696903
20
714.3362892173386
30
79.98483835336687
 70
     32
  0
VERTEX
  8
MY3DLAYER
10
1758.5178040333774
20
714.1260577484494
30
79.98483835336675
 70
     32
  0
VERTEX
  8
MY3DLAYER
10
1757.8763397689652
20
713.9984625730256
30
79.98483835336671
 70
     32
  0
VERTEX
  8
MY3DLAYER
10
1757.223708807865
20
713.9556868798943
30
79.9848383533667
 70
     32
  0
VERTEX
  8
MY3DLAYER
10
1762.223708807865
20
713.9556868798965
30
79.98483835336687
 70
     32
  0
VERTEX
  8
MY3DLAYER
10
1762.2237088078682
20
684.792376104921
30
79.98483835335551
 70
     32
  0
VERTEX
  8
MY3DLAYER
10
1807.5372819756253
20
684.792376104926
30
79.9848383533553
 70
     32
  0
VERTEX
  8
MY3DLAYER
10
1807.537281975621
20
731.7923761049261
30
79.98483835337292
 70
     32
  0
VERTEX
  8
MY3DLAYER
10
1807.4945062824897
20
732.4450070660264
30
79.98483835337316
 70
     32
  0
VERTEX
  8
MY3DLAYER
10
1807.3669111070653
20
733.0864713304386
30
79.9848383533734
 70
     32
  0
VERTEX
  8
MY3DLAYER
10
1807.1566796381767
20
733.7057932667515
30
79.98483835337368
 70
     32
  0
VERTEX
  8
MY3DLAYER
10
1806.8674089945428
20
734.292376104926
30
79.98483835337392
 70
     32
  0
VERTEX
  8
MY3DLAYER
10
1806.504048677077
20
734.8361832499694
30
79.9848383533741
 70
     32
  0
VERTEX
  8
MY3DLAYER
10
1806.0728158815532
20
735.3279100108588
30
79.98483835337431
 70
     32
  0
VERTEX
  8
MY3DLAYER
10
1805.5810891206634
20
735.759142806382
30
79.98483835337456
 70
     32
  0
VERTEX
  8
MY3DLAYER
10
1805.0372819756199
20
736.122503123848
30
79.98483835337468
 70
     32
  0
VERTEX
  8
MY3DLAYER
10
1804.4506991374453
20
736.4117737674821
30
79.9848383533748
 70
     32
  0
VERTEX
  8
MY3DLAYER
10
1803.8313772011325
20
736.6220052363711
30
79.98483835337488
 70
     32
  0
VERTEX
  8
MY3DLAYER
10
1803.18991293672
20
736.7496004117946
30
79.98483835337495
 70
     32
  0
VERTEX
  8
MY3DLAYER
10
1802.5372819756196
20
736.7923761049254
30
79.98483835337497
 70
     32
  0
VERTEX
  8
MY3DLAYER
10
1767.2237088078623
20
736.7923761049216
30
79.98483835337532
 70
     32
  0
VERTEX
  8
MY3DLAYER
10
1766.5710778467621
20
736.7496004117905
30
79.98483835337532
 70
     32
  0
VERTEX
  8
MY3DLAYER
10
1765.92961358235
20
736.6220052363669
30
79.98483835337525
 70
     32
  0
VERTEX
  8
MY3DLAYER
10
1765.310291646037
20
736.4117737674778
30
79.98483835337515
 70
     32
  0
VERTEX
  8
MY3DLAYER
10
1764.7237088078625
20
736.1225031238436
30
79.98483835337504
 70
     32
  0
VERTEX
  8
MY3DLAYER
10
1764.1799016628192
20
735.7591428063774
30
79.98483835337491
 70
     32
  0
VERTEX
  8
MY3DLAYER
10
1763.6881749019306
20
735.327910010854
30
79.98483835337477
 70
     32
  0
VERTEX
  8
MY3DLAYER
10
1763.2569421064072
20
734.8361832499647
30
79.98483835337456
 70
     32
  0
VERTEX
  8
MY3DLAYER
10
1762.8935817889412
20
734.2923761049212
30
79.98483835337437
 70
     32
  0
VERTEX
  8
MY3DLAYER
10
1762.6043111453064
20
733.7057932667465
30
79.98483835337413
 70
     32
  0
VERTEX
  8
MY3DLAYER
10
1762.3940796764175
20
733.0864713304336
30
79.98483835337386
 70
     32
  0
VERTEX
  8
MY3DLAYER
10
1762.2664845009947
20
732.4450070660215
30
79.98483835337362
 70
     32
  0
VERTEX
  8
MY3DLAYER
10
1762.2237088078639
20
731.7923761049212
30
79.98483835337338
 70
     32
  0
SEQEND
  0
POLYLINE
 8
Différence
 66
     1
70
    8
 10
0.0
 20
 0.0
 30
0.0
  0
VERTEX
  8
MY3DLAYER
10
1789.5411051707767
20
723.7233719781087
30
79.98483835337004
 70
     32
  0
VERTEX
  8
MY3DLAYER
10
1792.2402693328143
20
722.1334427799602
30
79.98483835336944
 70
     32
  0
VERTEX
  8
MY3DLAYER
10
1792.7385117698805
20
721.7311724620548
30
79.9848383533693
 70
     32
  0
VERTEX
  8
MY3DLAYER
10
1793.223629635409
20
721.3131681662576
30
79.98483835336913
 70
     32
  0
VERTEX
  8
MY3DLAYER
10
1793.6951262823998
20
720.8798578310038
30
79.98483835336903
 70
     32
  0
VERTEX
  8
MY3DLAYER
10
1794.1525190087839
20
720.4316850645272
30
79.98483835336887
 70
     32
  0
VERTEX
  8
MY3DLAYER
10
1794.5953395516042
20
719.9691086907068
30
79.9848383533687
 70
     32
  0
VERTEX
  8
MY3DLAYER
10
1795.023134566405
20
719.4926022793408
30
79.98483835336852
 70
     32
  0
VERTEX
  8
MY3DLAYER
10
1795.4354660913466
20
719.0026536613203
30
79.98483835336829
 70
     32
  0
VERTEX
  8
MY3DLAYER
10
1795.831911995582
20
718.499764429207
30
79.98483835336813
 70
     32
  0
VERTEX
  8
MY3DLAYER
10
1796.2120664114154
20
717.9844494237177
30
79.98483835336793
 70
     32
  0
VERTEX
  8
MY3DLAYER
10
1796.5755401498188
20
717.4572362066492
30
79.98483835336772
 70
     32
  0
VERTEX
  8
MY3DLAYER
10
1796.9219610988669
20
716.9186645207787
30
79.98483835336752
 70
     32
  0
VERTEX
  8
MY3DLAYER
10
1797.250974604696
20
716.3692857372938
30
79.98483835336728
 70
     32
  0
VERTEX
  8
MY3DLAYER
10
1798.4497796747505
20
713.475114278524
30
79.98483835336619
 70
     32
  0
VERTEX
  8
MY3DLAYER
10
1798.8586697592823
20
710.3692857372939
30
79.98483835336498
 70
     32
  0
VERTEX
  8
MY3DLAYER
10
1798.4497796747514
20
707.2634571960635
30
79.98483835336387
 70
     32
  0
VERTEX
  8
MY3DLAYER
10
1798.4006185733494
20
707.1447717983175
30
79.98483835336391
 70
     32
  0
VERTEX
  8
MY3DLAYER
10
1797.2509746046962
20
704.3692857372936
30
79.98483835336278
 70
     32
  0
VERTEX
  8
MY3DLAYER
10
1795.343951133522
20
701.8840043630548
30
79.9848383533618
 70
     32
  0
VERTEX
  8
MY3DLAYER
10
1792.8586697592843
20
699.9769808918797
30
79.98483835336107
 70
     32
  0
VERTEX
  8
MY3DLAYER
10
1789.964498300514
20
698.7781758218241
30
79.98483835336067
 70
     32
  0
VERTEX
  8
MY3DLAYER
10
1786.8586697592837
20
698.3692857372926
30
79.98483835336052
 70
     32
  0
VERTEX
  8
MY3DLAYER
10
1783.7528412180536
20
698.7781758218234
30
79.98483835336067
 70
     32
  0
VERTEX
  8
MY3DLAYER
10
1780.8586697592846
20
699.9769808918786
30
79.98483835336116
 70
     32
  0
VERTEX
  8
MY3DLAYER
10
1778.3733883850448
20
701.8840043630529
30
79.98483835336188
 70
     32
  0
VERTEX
  8
MY3DLAYER
10
1778.0704977833877
20
702.1394447808556
30
79.98483835336191
 70
     32
  0
VERTEX
  8
MY3DLAYER
10
1777.7749058562565
20
702.4032968913906
30
79.98483835336198
 70
     32
  0
VERTEX
  8
MY3DLAYER
10
1777.4868461271674
20
702.6753522462299
30
79.98483835336212
 70
     32
  0
VERTEX
  8
MY3DLAYER
10
1777.2065461690518
20
702.9553959162166
30
79.98483835336222
 70
     32
  0
VERTEX
  8
MY3DLAYER
10
1776.9342274244661
20
703.2432066612675
30
79.98483835336233
 70
     32
  0
VERTEX
  8
MY3DLAYER
10
1776.6701050306497
20
703.5385571051544
30
79.98483835336245
 70
     32
  0
VERTEX
  8
MY3DLAYER
10
1776.4143876495593
20
703.841213915136
30
79.98483835336256
 70
     32
  0
VERTEX
  8
MY3DLAYER
10
1776.1672773030282
20
704.1509379862972
30
79.98483835336266
 70
     32
  0
VERTEX
  8
MY3DLAYER
10
1775.9289692131567
20
704.467484630445
30
79.9848383533628
 70
     32
  0
VERTEX
  8
MY3DLAYER
10
1775.6996516480888
20
704.7906037694179
30
79.9848383533629
 70
     32
  0
VERTEX
  8
MY3DLAYER
10
1775.479505773273
20
705.1200401326523
30
79.98483835336306
 70
     32
  0
VERTEX
  8
MY3DLAYER
10
1775.2687055083406
20
705.4555334588536
30
79.98483835336317
 70
     32
  0
VERTEX
  8
MY3DLAYER
10
1773.7261253741058
20
708.182034615687
30
79.98483835336413
 70
     32
  0
VERTEX
  8
MY3DLAYER
10
1772.9417778092113
20
711.214881615816
30
79.9848383533653
 70
     32
  0
VERTEX
  8
MY3DLAYER
10
1772.9691148040079
20
714.3473909481985
30
79.98483835336653
 70
     32
  0
VERTEX
  8
MY3DLAYER
10
1773.8062733874772
20
717.366087278549
30
79.98483835336756
 70
     32
  0
VERTEX
  8
MY3DLAYER
10
1775.3962025856254
20
720.0652514405858
30
79.98483835336863
 70
     32
  0
VERTEX
  8
MY3DLAYER
10
1777.630551351082
20
722.2609398572457
30
79.98483835336947
 70
     32
  0
VERTEX
  8
MY3DLAYER
10
1778.6469255815803
20
722.8359767293133
30
79.9848383533698
 70
     32
  0
VERTEX
  8
MY3DLAYER
10
1779.0431533521844
20
723.0601516158838
30
79.9848383533699
 70
     32
  0
VERTEX
  8
MY3DLAYER
10
1780.3570525079147
20
723.8035199914799
30
79.98483835337007
 70
     32
  0
VERTEX
  8
MY3DLAYER
10
1783.3898995080435
20
724.5878675563746
30
79.98483835337039
 70
     32
  0
VERTEX
  8
MY3DLAYER
10
1786.5224088404261
20
724.5605305615778
30
79.98483835337036
 70
     32
  0
VERTEX
  8
MY3DLAYER
10
1789.5411051707767
20
723.7233719781087
30
79.98483835337004
 70
     32
  0
SEQEND
  0
POLYLINE
 8
Différence
 66
     1
70
    8
 10
0.0
 20
 0.0
 30
0.0
  0
VERTEX
  8
MY3DLAYER
10
1801.9704411916262
20
727.3181744767277
30
79.98483835337137
 70
     32
  0
VERTEX
  8
MY3DLAYER
10
1802.35866975928
20
727.369285737294
30
79.9848383533714
 70
     32
  0
VERTEX
  8
MY3DLAYER
10
1802.746898326934
20
727.3181744767277
30
79.98483835337137
 70
     32
  0
VERTEX
  8
MY3DLAYER
10
1803.10866975928
20
727.1683238429707
30
79.98483835337133
 70
     32
  0
VERTEX
  8
MY3DLAYER
10
1803.4193299310598
20
726.929945909074
30
79.98483835337126
 70
     32
  0
VERTEX
  8
MY3DLAYER
10
1803.6577078649568
20
726.6192857372944
30
79.98483835337113
 70
     32
  0
VERTEX
  8
MY3DLAYER
10
1803.807558498714
20
726.2575143049481
30
79.98483835337098
 70
     32
  0
VERTEX
  8
MY3DLAYER
10
1803.8586697592812
20
725.8692857372944
30
79.98483835337083
 70
     32
  0
VERTEX
  8
MY3DLAYER
10
1803.8472245882685
20
725.7823510325044
30
79.98483835337095
 70
     32
  0
VERTEX
  8
MY3DLAYER
10
1803.8075584987148
20
725.4810571696405
30
79.98483835337066
 70
     32
  0
VERTEX
  8
MY3DLAYER
10
1803.657707864958
20
725.1192857372943
30
79.98483835337056
 70
     32
  0
VERTEX
  8
MY3DLAYER
10
1803.419329931061
20
724.8086255655144
30
79.98483835337044
 70
     32
  0
VERTEX
  8
MY3DLAYER
10
1803.1086697592802
20
724.5702476316173
30
79.98483835337044
 70
     32
  0
VERTEX
  8
MY3DLAYER
10
1802.7468983269343
20
724.4203969978605
30
79.9848383533703
 70
     32
  0
VERTEX
  8
MY3DLAYER
10
1802.3586697592805
20
724.369285737294
30
79.98483835337024
 70
     32
  0
VERTEX
  8
MY3DLAYER
10
1801.9704411916266
20
724.4203969978604
30
79.9848383533703
 70
     32
  0
VERTEX
  8
MY3DLAYER
10
1801.6086697592802
20
724.5702476316172
30
79.98483835337044
 70
     32
  0
VERTEX
  8
MY3DLAYER
10
1801.2980095875014
20
724.8086255655144
30
79.98483835337044
 70
     32
  0
VERTEX
  8
MY3DLAYER
10
1801.0596316536044
20
725.1192857372938
30
79.98483835337056
 70
     32
  0
VERTEX
  8
MY3DLAYER
10
1800.9097810198475
20
725.4810571696399
30
79.98483835337066
 70
     32
  0
VERTEX
  8
MY3DLAYER
10
1800.8701149302938
20
725.7823510325038
30
79.98483835337095
 70
     32
  0
VERTEX
  8
MY3DLAYER
10
1800.8586697592812
20
725.8692857372938
30
79.98483835337083
 70
     32
  0
VERTEX
  8
MY3DLAYER
10
1800.9097810198464
20
726.2575143049476
30
79.98483835337098
 70
     32
  0
VERTEX
  8
MY3DLAYER
10
1801.0596316536032
20
726.6192857372939
30
79.98483835337113
 70
     32
  0
VERTEX
  8
MY3DLAYER
10
1801.2980095875002
20
726.9299459090739
30
79.98483835337126
 70
     32
  0
VERTEX
  8
MY3DLAYER
10
1801.6086697592798
20
727.1683238429705
30
79.98483835337133
 70
     32
  0
VERTEX
  8
MY3DLAYER
10
1801.9704411916262
20
727.3181744767277
30
79.98483835337137
 70
     32
  0
SEQEND
  0
POLYLINE
 8
Différence
 66
     1
70
    8
 10
0.0
 20
 0.0
 30
0.0
  0
VERTEX
  8
MY3DLAYER
10
1772.9085790902784
20
727.5845581901486
30
79.98483835337134
 70
     32
  0
VERTEX
  8
MY3DLAYER
10
1772.8990011118956
20
727.4017994754332
30
79.98483835337133
 70
     32
  0
VERTEX
  8
MY3DLAYER
10
1772.8906149747943
20
727.2417824471228
30
79.9848383533712
 70
     32
  0
VERTEX
  8
MY3DLAYER
10
1772.8766403622174
20
726.8988208900129
30
79.98483835337109
 70
     32
  0
VERTEX
  8
MY3DLAYER
10
1772.866657144487
20
726.5557199503235
30
79.98483835337095
 70
     32
  0
VERTEX
  8
MY3DLAYER
10
1772.8606666731698
20
726.2125260784298
30
79.98483835337083
 70
     32
  0
VERTEX
  8
MY3DLAYER
10
1772.8586697592818
20
725.8692857372906
30
79.9848383533707
 70
     32
  0
VERTEX
  8
MY3DLAYER
10
1772.8075584987155
20
725.4810571696368
30
79.98483835337053
 70
     32
  0
VERTEX
  8
MY3DLAYER
10
1772.6577078649584
20
725.1192857372907
30
79.98483835337042
 70
     32
  0
VERTEX
  8
MY3DLAYER
10
1772.4193299310616
20
724.8086255655109
30
79.9848383533703
 70
     32
  0
VERTEX
  8
MY3DLAYER
10
1772.1086697592812
20
724.5702476316137
30
79.98483835337025
 70
     32
  0
VERTEX
  8
MY3DLAYER
10
1771.7468983269348
20
724.420396997857
30
79.9848383533702
 70
     32
  0
VERTEX
  8
MY3DLAYER
10
1771.358669759281
20
724.3692857372904
30
79.98483835337011
 70
     32
  0
VERTEX
  8
MY3DLAYER
10
1770.9704411916275
20
724.4203969978569
30
79.9848383533702
 70
     32
  0
VERTEX
  8
MY3DLAYER
10
1770.6086697592807
20
724.5702476316137
30
79.98483835337025
 70
     32
  0
VERTEX
  8
MY3DLAYER
10
1770.2980095875018
20
724.8086255655107
30
79.9848383533703
 70
     32
  0
VERTEX
  8
MY3DLAYER
10
1770.059631653605
20
725.1192857372904
30
79.98483835337042
 70
     32
  0
VERTEX
  8
MY3DLAYER
10
1769.909781019848
20
725.4810571696365
30
79.98483835337053
 70
     32
  0
VERTEX
  8
MY3DLAYER
10
1769.8586697592816
20
725.8692857372903
30
79.9848383533707
 70
     32
  0
VERTEX
  8
MY3DLAYER
10
1769.8608697491584
20
726.2474318758343
30
79.98483835337082
 70
     32
  0
VERTEX
  8
MY3DLAYER
10
1769.867469420948
20
726.6255268194458
30
79.984838353371
 70
     32
  0
VERTEX
  8
MY3DLAYER
10
1769.87846788116
20
727.0035193801203
30
79.98483835337112
 70
     32
  0
VERTEX
  8
MY3DLAYER
10
1769.8938636407788
20
727.3813583837161
30
79.98483835337129
 70
     32
  0
VERTEX
  8
MY3DLAYER
10
1769.9136546154643
20
727.7589926768801
30
79.98483835337142
 70
     32
  0
VERTEX
  8
MY3DLAYER
10
1769.937838125837
20
728.1363711339737
30
79.98483835337152
 70
     32
  0
VERTEX
  8
MY3DLAYER
10
1769.9664108978347
20
728.5134426639954
30
79.98483835337166
 70
     32
  0
VERTEX
  8
MY3DLAYER
10
1769.9993690631627
20
728.8901562174955
30
79.98483835337181
 70
     32
  0
VERTEX
  8
MY3DLAYER
10
1770.0367081598124
20
729.266460793489
30
79.98483835337198
 70
     32
  0
VERTEX
  8
MY3DLAYER
10
1770.0784231326675
20
729.6423054463604
30
79.98483835337208
 70
     32
  0
VERTEX
  8
MY3DLAYER
10
1770.1245083341894
20
730.0176392927602
30
79.98483835337225
 70
     32
  0
VERTEX
  8
MY3DLAYER
10
1770.1749575251795
20
730.3924115184931
30
79.98483835337238
 70
     32
  0
VERTEX
  8
MY3DLAYER
10
1770.279602348113
20
730.7697485597869
30
79.98483835337255
 70
     32
  0
VERTEX
  8
MY3DLAYER
10
1770.4783434978822
20
731.1071440800413
30
79.98483835337267
 70
     32
  0
VERTEX
  8
MY3DLAYER
10
1770.7576370935644
20
731.3816051321238
30
79.98483835337277
 70
     32
  0
VERTEX
  8
MY3DLAYER
10
1771.0984497381685
20
731.5744276489033
30
79.98483835337285
 70
     32
  0
VERTEX
  8
MY3DLAYER
10
1771.4775556131847
20
731.672471094515
30
79.98483835337288
 70
     32
  0
VERTEX
  8
MY3DLAYER
10
1771.8691192797326
20
731.6690539701657
30
79.98483835337288
 70
     32
  0
VERTEX
  8
MY3DLAYER
10
1772.2464563210262
20
731.5644091472317
30
79.98483835337284
 70
     32
  0
VERTEX
  8
MY3DLAYER
10
1772.5838518412809
20
731.3656679974634
30
79.98483835337278
 70
     32
  0
VERTEX
  8
MY3DLAYER
10
1772.8583128933633
20
731.0863744017811
30
79.98483835337265
 70
     32
  0
VERTEX
  8
MY3DLAYER
10
1773.051135410142
20
730.7455617571769
30
79.98483835337252
 70
     32
  0
VERTEX
  8
MY3DLAYER
10
1773.149178855754
20
730.366455882161
30
79.9848383533724
 70
     32
  0
VERTEX
  8
MY3DLAYER
10
1773.1457617314043
20
729.9748922156132
30
79.98483835337223
 70
     32
  0
VERTEX
  8
MY3DLAYER
10
1773.0999693888134
20
729.6347143491787
30
79.9848383533721
 70
     32
  0
VERTEX
  8
MY3DLAYER
10
1773.0581382058942
20
729.2940267039849
30
79.98483835337197
 70
     32
  0
VERTEX
  8
MY3DLAYER
10
1773.0202738459172
20
728.9528754036862
30
79.98483835337183
 70
     32
  0
VERTEX
  8
MY3DLAYER
10
1772.9863814351122
20
728.6113066347073
30
79.98483835337171
 70
     32
  0
VERTEX
  8
MY3DLAYER
10
1772.9564655619686
20
728.2693666399917
30
79.98483835337159
 70
     32
  0
VERTEX
  8
MY3DLAYER
10
1772.9305302766165
20
727.9271017127415
30
79.98483835337146
 70
     32
  0
VERTEX
  8
MY3DLAYER
10
1772.9085790902784
20
727.5845581901486
30
79.98483835337134
 70
     32
  0
SEQEND
  0
POLYLINE
 8
Différence
 66
     1
70
    8
 10
0.0
 20
 0.0
 30
0.0
  0
VERTEX
  8
MY3DLAYER
10
1772.657707864961
20
695.6192857372909
30
79.98483835335918
 70
     32
  0
VERTEX
  8
MY3DLAYER
10
1772.807558498718
20
695.2575143049444
30
79.98483835335917
 70
     32
  0
VERTEX
  8
MY3DLAYER
10
1772.8586697592843
20
694.8692857372906
30
79.98483835335897
 70
     32
  0
VERTEX
  8
MY3DLAYER
10
1772.807558498718
20
694.4810571696368
30
79.98483835335885
 70
     32
  0
VERTEX
  8
MY3DLAYER
10
1772.6577078649618
20
694.1192857372907
30
79.9848383533587
 70
     32
  0
VERTEX
  8
MY3DLAYER
10
1772.4193299310648
20
693.8086255655109
30
79.98483835335858
 70
     32
  0
VERTEX
  8
MY3DLAYER
10
1772.1086697592852
20
693.5702476316138
30
79.98483835335848
 70
     32
  0
VERTEX
  8
MY3DLAYER
10
1771.746898326939
20
693.4203969978569
30
79.98483835335843
 70
     32
  0
VERTEX
  8
MY3DLAYER
10
1771.358669759285
20
693.3692857372904
30
79.98483835335843
 70
     32
  0
VERTEX
  8
MY3DLAYER
10
1770.9704411916312
20
693.4203969978569
30
79.98483835335843
 70
     32
  0
VERTEX
  8
MY3DLAYER
10
1770.6086697592852
20
693.5702476316136
30
79.98483835335848
 70
     32
  0
VERTEX
  8
MY3DLAYER
10
1770.2980095875052
20
693.8086255655107
30
79.98483835335858
 70
     32
  0
VERTEX
  8
MY3DLAYER
10
1769.9271455347284
20
694.183830118462
30
79.98483835335874
 70
     32
  0
VERTEX
  8
MY3DLAYER
10
1769.5606721911804
20
694.5633243749021
30
79.98483835335887
 70
     32
  0
VERTEX
  8
MY3DLAYER
10
1769.1986391714884
20
694.9470569573797
30
79.98483835335904
 70
     32
  0
VERTEX
  8
MY3DLAYER
10
1768.841095489128
20
695.3349759146456
30
79.98483835335915
 70
     32
  0
VERTEX
  8
MY3DLAYER
10
1768.4880895497904
20
695.727028728683
30
79.98483835335932
 70
     32
  0
VERTEX
  8
MY3DLAYER
10
1768.13966914483
20
696.1231623218162
30
79.98483835335949
 70
     32
  0
VERTEX
  8
MY3DLAYER
10
1767.79588144479
20
696.5233230638983
30
79.98483835335965
 70
     32
  0
VERTEX
  8
MY3DLAYER
10
1767.4567729930238
20
696.9274567795701
30
79.98483835335979
 70
     32
  0
VERTEX
  8
MY3DLAYER
10
1767.1223896993865
20
697.3355087555956
30
79.98483835335995
 70
     32
  0
VERTEX
  8
MY3DLAYER
10
1766.7927768340226
20
697.7474237482694
30
79.9848383533601
 70
     32
  0
VERTEX
  8
MY3DLAYER
10
1766.46797902124
20
698.1631459908949
30
79.98483835336027
 70
     32
  0
VERTEX
  8
MY3DLAYER
10
1766.1480402334623
20
698.5826192013357
30
79.98483835336044
 70
     32
  0
VERTEX
  8
MY3DLAYER
10
1765.955217716683
20
698.92343184594
30
79.98483835336057
 70
     32
  0
VERTEX
  8
MY3DLAYER
10
1765.857174271072
20
699.3025377209559
30
79.9848383533607
 70
     32
  0
VERTEX
  8
MY3DLAYER
10
1765.8605913954214
20
699.6941013875037
30
79.98483835336089
 70
     32
  0
VERTEX
  8
MY3DLAYER
10
1765.965236218355
20
700.0714384287977
30
79.98483835336098
 70
     32
  0
VERTEX
  8
MY3DLAYER
10
1766.1639773681238
20
700.4088339490523
30
79.98483835336113
 70
     32
  0
VERTEX
  8
MY3DLAYER
10
1766.443270963805
20
700.6832950011346
30
79.98483835336125
 70
     32
  0
VERTEX
  8
MY3DLAYER
10
1766.7840836084092
20
700.876117517914
30
79.98483835336131
 70
     32
  0
VERTEX
  8
MY3DLAYER
10
1767.1631894834252
20
700.9741609635258
30
79.98483835336137
 70
     32
  0
VERTEX
  8
MY3DLAYER
10
1767.5547531499728
20
700.9707438391763
30
79.98483835336137
 70
     32
  0
VERTEX
  8
MY3DLAYER
10
1767.932090191267
20
700.8660990162426
30
79.98483835336133
 70
     32
  0
VERTEX
  8
MY3DLAYER
10
1768.2694857115214
20
700.6673578664742
30
79.98483835336123
 70
     32
  0
VERTEX
  8
MY3DLAYER
10
1768.5439467636047
20
700.3880642707921
30
79.98483835336114
 70
     32
  0
VERTEX
  8
MY3DLAYER
10
1768.8427165344142
20
699.9963458554839
30
79.98483835336097
 70
     32
  0
VERTEX
  8
MY3DLAYER
10
1769.1460238287823
20
699.608130222074
30
79.98483835336083
 70
     32
  0
VERTEX
  8
MY3DLAYER
10
1769.4538275837572
20
699.223469928745
30
79.98483835336069
 70
     32
  0
VERTEX
  8
MY3DLAYER
10
1769.7660861276377
20
698.8424170523425
30
79.9848383533605
 70
     32
  0
VERTEX
  8
MY3DLAYER
10
1770.0827571856155
20
698.4650231813268
30
79.98483835336039
 70
     32
  0
VERTEX
  8
MY3DLAYER
10
1770.4037978854983
20
698.091339408787
30
79.98483835336023
 70
     32
  0
VERTEX
  8
MY3DLAYER
10
1770.7291647635145
20
697.7214163255237
30
79.98483835336009
 70
     32
  0
VERTEX
  8
MY3DLAYER
10
1771.0588137701968
20
697.3553040132015
30
79.98483835335996
 70
     32
  0
VERTEX
  8
MY3DLAYER
10
1771.3927002763478
20
696.9930520375657
30
79.98483835335983
 70
     32
  0
VERTEX
  8
MY3DLAYER
10
1771.7307790790778
20
696.6347094417364
30
79.98483835335968
 70
     32
  0
VERTEX
  8
MY3DLAYER
10
1772.0730044079285
20
696.2803247395641
30
79.98483835335954
 70
     32
  0
VERTEX
  8
MY3DLAYER
10
1772.4193299310643
20
695.9299459090704
30
79.98483835335941
 70
     32
  0
VERTEX
  8
MY3DLAYER
10
1772.657707864961
20
695.6192857372909
30
79.98483835335918
 70
     32
  0
SEQEND
  0
POLYLINE
 8
Différence
 66
     1
70
    8
 10
0.0
 20
 0.0
 30
0.0
  0
VERTEX
  8
MY3DLAYER
10
1803.8075584987182
20
695.2575143049479
30
79.98483835335948
 70
     32
  0
VERTEX
  8
MY3DLAYER
10
1803.8586697592843
20
694.8692857372943
30
79.9848383533593
 70
     32
  0
VERTEX
  8
MY3DLAYER
10
1803.8075584987182
20
694.4810571696404
30
79.98483835335918
 70
     32
  0
VERTEX
  8
MY3DLAYER
10
1803.707214115792
20
694.2388043994721
30
79.98483835335915
 70
     32
  0
VERTEX
  8
MY3DLAYER
10
1803.6577078649618
20
694.1192857372941
30
79.98483835335902
 70
     32
  0
VERTEX
  8
MY3DLAYER
10
1803.419329931065
20
693.8086255655143
30
79.9848383533589
 70
     32
  0
VERTEX
  8
MY3DLAYER
10
1803.108669759285
20
693.5702476316172
30
79.9848383533588
 70
     32
  0
VERTEX
  8
MY3DLAYER
10
1802.7468983269391
20
693.4203969978604
30
79.98483835335874
 70
     32
  0
VERTEX
  8
MY3DLAYER
10
1802.3586697592852
20
693.3692857372938
30
79.98483835335884
 70
     32
  0
VERTEX
  8
MY3DLAYER
10
1801.9805236207458
20
693.3714857271716
30
79.98483835335892
 70
     32
  0
VERTEX
  8
MY3DLAYER
10
1801.6024286771337
20
693.3780853989614
30
79.98483835335892
 70
     32
  0
VERTEX
  8
MY3DLAYER
10
1801.224436116459
20
693.3890838591734
30
79.98483835335901
 70
     32
  0
VERTEX
  8
MY3DLAYER
10
1800.846597112863
20
693.4044796187917
30
79.98483835335908
 70
     32
  0
VERTEX
  8
MY3DLAYER
10
1800.4689628196988
20
693.4242705934778
30
79.98483835335912
 70
     32
  0
VERTEX
  8
MY3DLAYER
10
1800.0915843626046
20
693.4484541038496
30
79.98483835335921
 70
     32
  0
VERTEX
  8
MY3DLAYER
10
1799.7145128325826
20
693.4770268758474
30
79.98483835335922
 70
     32
  0
VERTEX
  8
MY3DLAYER
10
1799.3377992790824
20
693.509985041175
30
79.98483835335932
 70
     32
  0
VERTEX
  8
MY3DLAYER
10
1798.9614947030882
20
693.5473241378252
30
79.98483835335935
 70
     32
  0
VERTEX
  8
MY3DLAYER
10
1798.5856500502166
20
693.5890391106807
30
79.98483835335935
 70
     32
  0
VERTEX
  8
MY3DLAYER
10
1798.2103162038165
20
693.635124312203
30
79.98483835335936
 70
     32
  0
VERTEX
  8
MY3DLAYER
10
1797.8355439780833
20
693.6855735031928
30
79.9848383533594
 70
     32
  0
VERTEX
  8
MY3DLAYER
10
1797.4582069367898
20
693.7902183261267
30
79.98483835335945
 70
     32
  0
VERTEX
  8
MY3DLAYER
10
1797.120811416535
20
693.9889594758952
30
79.98483835335949
 70
     32
  0
VERTEX
  8
MY3DLAYER
10
1796.8463503644518
20
694.268253071577
30
79.98483835335962
 70
     32
  0
VERTEX
  8
MY3DLAYER
10
1796.6535278476726
20
694.6090657161814
30
79.98483835335976
 70
     32
  0
VERTEX
  8
MY3DLAYER
10
1796.555484402061
20
694.9881715911977
30
79.98483835335989
 70
     32
  0
VERTEX
  8
MY3DLAYER
10
1796.5561622205264
20
695.0658418941963
30
79.98483835335976
 70
     32
  0
VERTEX
  8
MY3DLAYER
10
1796.5589015264106
20
695.3797352577454
30
79.98483835336005
 70
     32
  0
VERTEX
  8
MY3DLAYER
10
1796.6635463493442
20
695.7570722990391
30
79.98483835336019
 70
     32
  0
VERTEX
  8
MY3DLAYER
10
1796.862287499113
20
696.0944678192936
30
79.9848383533603
 70
     32
  0
VERTEX
  8
MY3DLAYER
10
1797.141581094795
20
696.3689288713763
30
79.98483835336043
 70
     32
  0
VERTEX
  8
MY3DLAYER
10
1797.4823937393994
20
696.5617513881555
30
79.98483835336049
 70
     32
  0
VERTEX
  8
MY3DLAYER
10
1797.8614996144156
20
696.6597948337673
30
79.98483835336056
 70
     32
  0
VERTEX
  8
MY3DLAYER
10
1798.2530632809635
20
696.6563777094177
30
79.98483835336056
 70
     32
  0
VERTEX
  8
MY3DLAYER
10
1798.593241147398
20
696.6105853668266
30
79.98483835336052
 70
     32
  0
VERTEX
  8
MY3DLAYER
10
1798.9339287925918
20
696.5687541839067
30
79.9848383533605
 70
     32
  0
VERTEX
  8
MY3DLAYER
10
1799.2750800928907
20
696.5308898239297
30
79.9848383533605
 70
     32
  0
VERTEX
  8
MY3DLAYER
10
1799.6166488618696
20
696.4969974131247
30
79.98483835336039
 70
     32
  0
VERTEX
  8
MY3DLAYER
10
1799.9585888565853
20
696.4670815399808
30
79.98483835336039
 70
     32
  0
VERTEX
  8
MY3DLAYER
10
1800.3008537838357
20
696.4411462546291
30
79.98483835336036
 70
     32
  0
VERTEX
  8
MY3DLAYER
10
1800.4689628196984
20
696.4303733381153
30
79.98483835336027
 70
     32
  0
VERTEX
  8
MY3DLAYER
10
1800.6433973064288
20
696.4191950682915
30
79.98483835336027
 70
     32
  0
VERTEX
  8
MY3DLAYER
10
1800.986173049455
20
696.4012309528072
30
79.98483835336019
 70
     32
  0
VERTEX
  8
MY3DLAYER
10
1801.329134606565
20
696.3872563402307
30
79.98483835336015
 70
     32
  0
VERTEX
  8
MY3DLAYER
10
1801.6722355462543
20
696.3772731224998
30
79.98483835336006
 70
     32
  0
VERTEX
  8
MY3DLAYER
10
1802.0154294181482
20
696.371282651183
30
79.98483835335998
 70
     32
  0
VERTEX
  8
MY3DLAYER
10
1802.3586697592848
20
696.3692857372939
30
79.98483835335989
 70
     32
  0
VERTEX
  8
MY3DLAYER
10
1802.7468983269387
20
696.3181744767276
30
79.98483835335986
 70
     32
  0
VERTEX
  8
MY3DLAYER
10
1803.1086697592846
20
696.1683238429705
30
79.98483835335983
 70
     32
  0
VERTEX
  8
MY3DLAYER
10
1803.4193299310646
20
695.9299459090738
30
79.98483835335972
 70
     32
  0
VERTEX
  8
MY3DLAYER
10
1803.6577078649611
20
695.6192857372941
30
79.98483835335959
 70
     32
  0
VERTEX
  8
MY3DLAYER
10
1803.8075584987182
20
695.2575143049479
30
79.98483835335948
 70
     32
  0
SEQEND
  0
POLYLINE
 8
Différence
 66
     1
70
    8
 10
0.0
 20
 0.0
 30
0.0
  0
VERTEX
  8
MY3DLAYER
10
1785.7191175577168
20
677.21660262812
30
79.98483835335162
 70
     32
  0
VERTEX
  8
MY3DLAYER
10
1785.7519899454512
20
677.4755770545532
30
79.98483835335179
 70
     32
  0
VERTEX
  8
MY3DLAYER
10
1785.8507697474906
20
677.71721914139
30
79.98483835335189
 70
     32
  0
VERTEX
  8
MY3DLAYER
10
1786.0087252835683
20
677.9250613797449
30
79.9848383533519
 70
     32
  0
VERTEX
  8
MY3DLAYER
10
1786.215092144934
20
678.0849396645496
30
79.98483835335196
 70
     32
  0
VERTEX
  8
MY3DLAYER
10
1786.4558067710213
20
678.185958554905
30
79.98483835335207
 70
     32
  0
VERTEX
  8
MY3DLAYER
10
1786.7144648578653
20
678.2212337803762
30
79.98483835335202
 70
     32
  0
VERTEX
  8
MY3DLAYER
10
1786.973439284299
20
678.1883613926424
30
79.98483835335207
 70
     32
  0
VERTEX
  8
MY3DLAYER
10
1787.2150813711373
20
678.0895815906023
30
79.984838353352
 70
     32
  0
VERTEX
  8
MY3DLAYER
10
1787.422923609492
20
677.9316260545248
30
79.98483835335196
 70
     32
  0
VERTEX
  8
MY3DLAYER
10
1787.5828018942962
20
677.7252591931591
30
79.98483835335193
 70
     32
  0
VERTEX
  8
MY3DLAYER
10
1787.6838207846522
20
677.4845445670702
30
79.98483835335185
 70
     32
  0
VERTEX
  8
MY3DLAYER
10
1787.7190960101236
20
677.2258864802261
30
79.98483835335172
 70
     32
  0
VERTEX
  8
MY3DLAYER
10
1787.6862236223892
20
676.9669120537927
30
79.98483835335162
 70
     32
  0
VERTEX
  8
MY3DLAYER
10
1787.5874438203493
20
676.7252699669559
30
79.98483835335159
 70
     32
  0
VERTEX
  8
MY3DLAYER
10
1787.4294882842705
20
676.5174277286012
30
79.98483835335144
 70
     32
  0
VERTEX
  8
MY3DLAYER
10
1787.2231214229048
20
676.3575494437969
30
79.98483835335138
 70
     32
  0
VERTEX
  8
MY3DLAYER
10
1786.9824067968157
20
676.2565305534414
30
79.98483835335142
 70
     32
  0
VERTEX
  8
MY3DLAYER
10
1786.7237487099717
20
676.2212553279699
30
79.98483835335131
 70
     32
  0
VERTEX
  8
MY3DLAYER
10
1786.4647742835384
20
676.254127715704
30
79.98483835335142
 70
     32
  0
VERTEX
  8
MY3DLAYER
10
1786.2231321967017
20
676.3529075177441
30
79.98483835335134
 70
     32
  0
VERTEX
  8
MY3DLAYER
10
1786.0152899583468
20
676.5108630538214
30
79.98483835335139
 70
     32
  0
VERTEX
  8
MY3DLAYER
10
1785.8554116735438
20
676.7172299151869
30
79.98483835335153
 70
     32
  0
VERTEX
  8
MY3DLAYER
10
1785.7543927831882
20
676.9579445412759
30
79.98483835335163
 70
     32
  0
VERTEX
  8
MY3DLAYER
10
1785.7191175577168
20
677.21660262812
30
79.98483835335162
 70
     32
  0
SEQEND
  0
POLYLINE
 8
Différence
 66
     1
70
    8
 10
0.0
 20
 0.0
 30
0.0
  0
VERTEX
  8
MY3DLAYER
10
1671.8757690500213
20
684.5111804717309
30
79.98483835335593
 70
     32
  0
VERTEX
  8
MY3DLAYER
10
1671.6345880951237
20
684.6110808942351
30
79.98483835335604
 70
     32
  0
VERTEX
  8
MY3DLAYER
10
1671.4274813139368
20
684.769999516833
30
79.98483835335603
 70
     32
  0
VERTEX
  8
MY3DLAYER
10
1671.2685626913394
20
684.9771062980195
30
79.98483835335611
 70
     32
  0
VERTEX
  8
MY3DLAYER
10
1671.1686622688346
20
685.2182872529169
30
79.9848383533562
 70
     32
  0
VERTEX
  8
MY3DLAYER
10
1671.1345880951235
20
685.4771062980199
30
79.9848383533563
 70
     32
  0
VERTEX
  8
MY3DLAYER
10
1671.1686622688346
20
685.735925343122
30
79.9848383533564
 70
     32
  0
VERTEX
  8
MY3DLAYER
10
1671.268562691339
20
685.9771062980195
30
79.9848383533565
 70
     32
  0
VERTEX
  8
MY3DLAYER
10
1671.4274813139368
20
686.1842130792061
30
79.98483835335664
 70
     32
  0
VERTEX
  8
MY3DLAYER
10
1671.6345880951249
20
686.3431317018039
30
79.98483835335664
 70
     32
  0
VERTEX
  8
MY3DLAYER
10
1671.8757690500224
20
686.4430321243091
30
79.98483835335666
 70
     32
  0
VERTEX
  8
MY3DLAYER
10
1672.1345880951249
20
686.4771062980196
30
79.98483835335675
 70
     32
  0
VERTEX
  8
MY3DLAYER
10
1672.3934071402275
20
686.4430321243087
30
79.98483835335666
 70
     32
  0
VERTEX
  8
MY3DLAYER
10
1672.634588095125
20
686.3431317018045
30
79.98483835335664
 70
     32
  0
VERTEX
  8
MY3DLAYER
10
1672.8416948763102
20
686.1842130792062
30
79.98483835335664
 70
     32
  0
VERTEX
  8
MY3DLAYER
10
1673.000613498908
20
685.9771062980197
30
79.9848383533565
 70
     32
  0
VERTEX
  8
MY3DLAYER
10
1673.1005139214124
20
685.7359253431223
30
79.9848383533564
 70
     32
  0
VERTEX
  8
MY3DLAYER
10
1673.1345880951235
20
685.4771062980197
30
79.9848383533563
 70
     32
  0
VERTEX
  8
MY3DLAYER
10
1673.1005139214128
20
685.2182872529172
30
79.9848383533562
 70
     32
  0
VERTEX
  8
MY3DLAYER
10
1673.000613498908
20
684.9771062980196
30
79.98483835335611
 70
     32
  0
VERTEX
  8
MY3DLAYER
10
1672.8416948763102
20
684.7699995168331
30
79.98483835335603
 70
     32
  0
VERTEX
  8
MY3DLAYER
10
1672.6345880951235
20
684.6110808942356
30
79.98483835335604
 70
     32
  0
VERTEX
  8
MY3DLAYER
10
1672.3934071402261
20
684.5111804717305
30
79.98483835335593
 70
     32
  0
VERTEX
  8
MY3DLAYER
10
1672.1345880951237
20
684.4771062980196
30
79.98483835335594
 70
     32
  0
VERTEX
  8
MY3DLAYER
10
1671.8757690500213
20
684.5111804717309
30
79.98483835335593
 70
     32
  0
SEQEND
  0
POLYLINE
 8
Différence
 66
     1
70
    8
 10
0.0
 20
 0.0
 30
0.0
  0
VERTEX
  8
MY3DLAYER
10
1571.168662268835
20
685.7359253431107
30
79.98483835335693
 70
     32
  0
VERTEX
  8
MY3DLAYER
10
1571.2685626913396
20
685.9771062980083
30
79.98483835335703
 70
     32
  0
VERTEX
  8
MY3DLAYER
10
1571.4274813139377
20
686.1842130791948
30
79.98483835335718
 70
     32
  0
VERTEX
  8
MY3DLAYER
10
1571.6345880951242
20
686.3431317017927
30
79.98483835335718
 70
     32
  0
VERTEX
  8
MY3DLAYER
10
1571.8757690500217
20
686.4430321242977
30
79.98483835335722
 70
     32
  0
VERTEX
  8
MY3DLAYER
10
1572.1345880951242
20
686.4771062980083
30
79.98483835335729
 70
     32
  0
VERTEX
  8
MY3DLAYER
10
1572.3934071402268
20
686.4430321242974
30
79.98483835335722
 70
     32
  0
VERTEX
  8
MY3DLAYER
10
1572.6345880951244
20
686.3431317017931
30
79.98483835335718
 70
     32
  0
VERTEX
  8
MY3DLAYER
10
1572.8416948763108
20
686.1842130791949
30
79.98483835335718
 70
     32
  0
VERTEX
  8
MY3DLAYER
10
1573.0006134989087
20
685.9771062980084
30
79.98483835335703
 70
     32
  0
VERTEX
  8
MY3DLAYER
10
1573.1005139214133
20
685.735925343111
30
79.98483835335693
 70
     32
  0
VERTEX
  8
MY3DLAYER
10
1573.1345880951249
20
685.4771062980085
30
79.98483835335684
 70
     32
  0
VERTEX
  8
MY3DLAYER
10
1573.1005139214128
20
685.218287252906
30
79.98483835335674
 70
     32
  0
VERTEX
  8
MY3DLAYER
10
1573.0006134989087
20
684.9771062980084
30
79.98483835335665
 70
     32
  0
VERTEX
  8
MY3DLAYER
10
1572.8416948763108
20
684.7699995168218
30
79.98483835335657
 70
     32
  0
VERTEX
  8
MY3DLAYER
10
1572.6345880951244
20
684.6110808942243
30
79.98483835335658
 70
     32
  0
VERTEX
  8
MY3DLAYER
10
1572.393407140227
20
684.5111804717192
30
79.98483835335647
 70
     32
  0
VERTEX
  8
MY3DLAYER
10
1572.1345880951244
20
684.4771062980083
30
79.98483835335648
 70
     32
  0
VERTEX
  8
MY3DLAYER
10
1571.875769050022
20
684.5111804717196
30
79.98483835335647
 70
     32
  0
VERTEX
  8
MY3DLAYER
10
1571.6345880951244
20
684.6110808942237
30
79.98483835335658
 70
     32
  0
VERTEX
  8
MY3DLAYER
10
1571.4274813139377
20
684.7699995168217
30
79.98483835335657
 70
     32
  0
VERTEX
  8
MY3DLAYER
10
1571.2685626913399
20
684.9771062980082
30
79.98483835335665
 70
     32
  0
VERTEX
  8
MY3DLAYER
10
1571.1686622688346
20
685.2182872529056
30
79.98483835335674
 70
     32
  0
VERTEX
  8
MY3DLAYER
10
1571.134588095125
20
685.4771062980085
30
79.98483835335684
 70
     32
  0
VERTEX
  8
MY3DLAYER
10
1571.168662268835
20
685.7359253431107
30
79.98483835335693
 70
     32
  0
SEQEND
  0
POLYLINE
 8
Différence
 66
     1
70
    8
 10
0.0
 20
 0.0
 30
0.0
  0
VERTEX
  8
MY3DLAYER
10
1472.1345880951244
20
684.477106297997
30
79.98483835335702
 70
     32
  0
VERTEX
  8
MY3DLAYER
10
1471.875769050022
20
684.5111804717083
30
79.984838353357
 70
     32
  0
VERTEX
  8
MY3DLAYER
10
1471.6345880951244
20
684.6110808942125
30
79.98483835335712
 70
     32
  0
VERTEX
  8
MY3DLAYER
10
1471.4274813139377
20
684.7699995168103
30
79.9848383533571
 70
     32
  0
VERTEX
  8
MY3DLAYER
10
1471.2685626913399
20
684.9771062979969
30
79.98483835335719
 70
     32
  0
VERTEX
  8
MY3DLAYER
10
1471.1686622688346
20
685.2182872528947
30
79.98483835335728
 70
     32
  0
VERTEX
  8
MY3DLAYER
10
1471.134588095125
20
685.4771062979972
30
79.98483835335738
 70
     32
  0
VERTEX
  8
MY3DLAYER
10
1471.168662268835
20
685.7359253430998
30
79.98483835335749
 70
     32
  0
VERTEX
  8
MY3DLAYER
10
1471.2685626913396
20
685.977106297997
30
79.98483835335757
 70
     32
  0
VERTEX
  8
MY3DLAYER
10
1471.4274813139377
20
686.1842130791835
30
79.98483835335772
 70
     32
  0
VERTEX
  8
MY3DLAYER
10
1471.6345880951242
20
686.3431317017813
30
79.98483835335772
 70
     32
  0
VERTEX
  8
MY3DLAYER
10
1471.8757690500217
20
686.4430321242864
30
79.98483835335776
 70
     32
  0
VERTEX
  8
MY3DLAYER
10
1472.1345880951242
20
686.477106297997
30
79.98483835335783
 70
     32
  0
VERTEX
  8
MY3DLAYER
10
1472.3934071402268
20
686.4430321242861
30
79.98483835335776
 70
     32
  0
VERTEX
  8
MY3DLAYER
10
1472.6345880951244
20
686.3431317017819
30
79.98483835335772
 70
     32
  0
VERTEX
  8
MY3DLAYER
10
1472.8416948763108
20
686.1842130791837
30
79.98483835335772
 70
     32
  0
VERTEX
  8
MY3DLAYER
10
1473.0006134989087
20
685.9771062979971
30
79.98483835335757
 70
     32
  0
VERTEX
  8
MY3DLAYER
10
1473.1005139214133
20
685.7359253430997
30
79.98483835335749
 70
     32
  0
VERTEX
  8
MY3DLAYER
10
1473.1345880951249
20
685.4771062979971
30
79.98483835335738
 70
     32
  0
VERTEX
  8
MY3DLAYER
10
1473.1005139214128
20
685.2182872528946
30
79.98483835335728
 70
     32
  0
VERTEX
  8
MY3DLAYER
10
1473.0006134989087
20
684.9771062979971
30
79.98483835335719
 70
     32
  0
VERTEX
  8
MY3DLAYER
10
1472.8416948763108
20
684.7699995168106
30
79.9848383533571
 70
     32
  0
VERTEX
  8
MY3DLAYER
10
1472.6345880951244
20
684.611080894213
30
79.98483835335712
 70
     32
  0
VERTEX
  8
MY3DLAYER
10
1472.393407140227
20
684.5111804717079
30
79.984838353357
 70
     32
  0
VERTEX
  8
MY3DLAYER
10
1472.1345880951244
20
684.477106297997
30
79.98483835335702
 70
     32
  0
SEQEND
  0
POLYLINE
 8
Différence
 66
     1
70
    8
 10
0.0
 20
 0.0
 30
0.0
  0
VERTEX
  8
MY3DLAYER
10
1522.6345880951242
20
686.3431317017871
30
79.98483835335745
 70
     32
  0
VERTEX
  8
MY3DLAYER
10
1522.8416948763106
20
686.1842130791892
30
79.98483835335745
 70
     32
  0
VERTEX
  8
MY3DLAYER
10
1523.0006134989087
20
685.9771062980027
30
79.9848383533573
 70
     32
  0
VERTEX
  8
MY3DLAYER
10
1523.1005139214133
20
685.7359253431057
30
79.98483835335722
 70
     32
  0
VERTEX
  8
MY3DLAYER
10
1523.134588095125
20
685.4771062980032
30
79.9848383533571
 70
     32
  0
VERTEX
  8
MY3DLAYER
10
1523.1005139214126
20
685.2182872529006
30
79.984838353357
 70
     32
  0
VERTEX
  8
MY3DLAYER
10
1523.0006134989087
20
684.9771062980028
30
79.98483835335692
 70
     32
  0
VERTEX
  8
MY3DLAYER
10
1522.841694876311
20
684.7699995168161
30
79.98483835335684
 70
     32
  0
VERTEX
  8
MY3DLAYER
10
1522.6345880951244
20
684.6110808942183
30
79.98483835335685
 70
     32
  0
VERTEX
  8
MY3DLAYER
10
1522.393407140227
20
684.5111804717136
30
79.98483835335674
 70
     32
  0
VERTEX
  8
MY3DLAYER
10
1522.1345880951244
20
684.4771062980026
30
79.98483835335675
 70
     32
  0
VERTEX
  8
MY3DLAYER
10
1521.875769050022
20
684.5111804717135
30
79.98483835335674
 70
     32
  0
VERTEX
  8
MY3DLAYER
10
1521.6345880951244
20
684.6110808942182
30
79.98483835335685
 70
     32
  0
VERTEX
  8
MY3DLAYER
10
1521.4274813139377
20
684.7699995168165
30
79.98483835335684
 70
     32
  0
VERTEX
  8
MY3DLAYER
10
1521.2685626913399
20
684.9771062980026
30
79.98483835335692
 70
     32
  0
VERTEX
  8
MY3DLAYER
10
1521.1686622688344
20
685.2182872529
30
79.984838353357
 70
     32
  0
VERTEX
  8
MY3DLAYER
10
1521.1345880951249
20
685.4771062980026
30
79.9848383533571
 70
     32
  0
VERTEX
  8
MY3DLAYER
10
1521.168662268835
20
685.7359253431051
30
79.98483835335722
 70
     32
  0
VERTEX
  8
MY3DLAYER
10
1521.2685626913399
20
685.9771062980026
30
79.9848383533573
 70
     32
  0
VERTEX
  8
MY3DLAYER
10
1521.4274813139377
20
686.1842130791896
30
79.98483835335745
 70
     32
  0
VERTEX
  8
MY3DLAYER
10
1521.6345880951242
20
686.343131701787
30
79.98483835335745
 70
     32
  0
VERTEX
  8
MY3DLAYER
10
1521.8757690500217
20
686.4430321242917
30
79.98483835335749
 70
     32
  0
VERTEX
  8
MY3DLAYER
10
1522.1345880951242
20
686.4771062980026
30
79.98483835335756
 70
     32
  0
VERTEX
  8
MY3DLAYER
10
1522.3934071402268
20
686.4430321242918
30
79.98483835335749
 70
     32
  0
VERTEX
  8
MY3DLAYER
10
1522.6345880951242
20
686.3431317017871
30
79.98483835335745
 70
     32
  0
SEQEND
  0
POLYLINE
 8
Différence
 66
     1
70
    8
 10
0.0
 20
 0.0
 30
0.0
  0
VERTEX
  8
MY3DLAYER
10
1496.875769050022
20
684.5111804717108
30
79.98483835335688
 70
     32
  0
VERTEX
  8
MY3DLAYER
10
1496.6345880951244
20
684.6110808942158
30
79.98483835335699
 70
     32
  0
VERTEX
  8
MY3DLAYER
10
1496.427481313938
20
684.7699995168132
30
79.98483835335698
 70
     32
  0
VERTEX
  8
MY3DLAYER
10
1496.2685626913399
20
684.9771062979999
30
79.98483835335705
 70
     32
  0
VERTEX
  8
MY3DLAYER
10
1496.1686622688346
20
685.2182872528972
30
79.98483835335715
 70
     32
  0
VERTEX
  8
MY3DLAYER
10
1496.134588095125
20
685.4771062979997
30
79.98483835335725
 70
     32
  0
VERTEX
  8
MY3DLAYER
10
1496.1686622688353
20
685.7359253431023
30
79.98483835335735
 70
     32
  0
VERTEX
  8
MY3DLAYER
10
1496.2685626913399
20
685.9771062979997
30
79.98483835335743
 70
     32
  0
VERTEX
  8
MY3DLAYER
10
1496.4274813139377
20
686.1842130791863
30
79.98483835335759
 70
     32
  0
VERTEX
  8
MY3DLAYER
10
1496.6345880951242
20
686.3431317017846
30
79.98483835335759
 70
     32
  0
VERTEX
  8
MY3DLAYER
10
1496.8757690500217
20
686.443032124289
30
79.98483835335762
 70
     32
  0
VERTEX
  8
MY3DLAYER
10
1497.1345880951244
20
686.4771062979999
30
79.9848383533577
 70
     32
  0
VERTEX
  8
MY3DLAYER
10
1497.3934071402268
20
686.443032124289
30
79.98483835335762
 70
     32
  0
VERTEX
  8
MY3DLAYER
10
1497.6345880951244
20
686.3431317017844
30
79.98483835335759
 70
     32
  0
VERTEX
  8
MY3DLAYER
10
1497.8416948763108
20
686.1842130791865
30
79.98483835335759
 70
     32
  0
VERTEX
  8
MY3DLAYER
10
1498.0006134989087
20
685.977106298
30
79.98483835335743
 70
     32
  0
VERTEX
  8
MY3DLAYER
10
1498.1005139214135
20
685.7359253431025
30
79.98483835335735
 70
     32
  0
VERTEX
  8
MY3DLAYER
10
1498.134588095125
20
685.477106298
30
79.98483835335725
 70
     32
  0
VERTEX
  8
MY3DLAYER
10
1498.1005139214128
20
685.2182872528974
30
79.98483835335715
 70
     32
  0
VERTEX
  8
MY3DLAYER
10
1498.000613498909
20
684.9771062979999
30
79.98483835335705
 70
     32
  0
VERTEX
  8
MY3DLAYER
10
1497.8416948763108
20
684.7699995168134
30
79.98483835335698
 70
     32
  0
VERTEX
  8
MY3DLAYER
10
1497.6345880951244
20
684.6110808942154
30
79.98483835335699
 70
     32
  0
VERTEX
  8
MY3DLAYER
10
1497.393407140227
20
684.5111804717109
30
79.98483835335688
 70
     32
  0
VERTEX
  8
MY3DLAYER
10
1497.1345880951244
20
684.4771062979999
30
79.98483835335689
 70
     32
  0
VERTEX
  8
MY3DLAYER
10
1496.875769050022
20
684.5111804717108
30
79.98483835335688
 70
     32
  0
SEQEND
  0
POLYLINE
 8
Différence
 66
     1
70
    8
 10
0.0
 20
 0.0
 30
0.0
  0
VERTEX
  8
MY3DLAYER
10
1546.875769050022
20
684.5111804717163
30
79.98483835335661
 70
     32
  0
VERTEX
  8
MY3DLAYER
10
1546.6345880951244
20
684.611080894221
30
79.98483835335672
 70
     32
  0
VERTEX
  8
MY3DLAYER
10
1546.427481313938
20
684.7699995168189
30
79.98483835335671
 70
     32
  0
VERTEX
  8
MY3DLAYER
10
1546.2685626913399
20
684.9771062980058
30
79.98483835335678
 70
     32
  0
VERTEX
  8
MY3DLAYER
10
1546.1686622688344
20
685.2182872529029
30
79.98483835335688
 70
     32
  0
VERTEX
  8
MY3DLAYER
10
1546.1345880951249
20
685.4771062980054
30
79.98483835335698
 70
     32
  0
VERTEX
  8
MY3DLAYER
10
1546.1686622688353
20
685.735925343108
30
79.98483835335708
 70
     32
  0
VERTEX
  8
MY3DLAYER
10
1546.2685626913399
20
685.9771062980058
30
79.98483835335716
 70
     32
  0
VERTEX
  8
MY3DLAYER
10
1546.4274813139377
20
686.184213079192
30
79.98483835335732
 70
     32
  0
VERTEX
  8
MY3DLAYER
10
1546.6345880951242
20
686.3431317017898
30
79.98483835335732
 70
     32
  0
VERTEX
  8
MY3DLAYER
10
1546.8757690500217
20
686.4430321242945
30
79.98483835335735
 70
     32
  0
VERTEX
  8
MY3DLAYER
10
1547.1345880951244
20
686.4771062980059
30
79.98483835335743
 70
     32
  0
VERTEX
  8
MY3DLAYER
10
1547.3934071402268
20
686.4430321242946
30
79.98483835335735
 70
     32
  0
VERTEX
  8
MY3DLAYER
10
1547.6345880951242
20
686.34313170179
30
79.98483835335732
 70
     32
  0
VERTEX
  8
MY3DLAYER
10
1547.8416948763108
20
686.1842130791925
30
79.98483835335732
 70
     32
  0
VERTEX
  8
MY3DLAYER
10
1548.0006134989087
20
685.9771062980055
30
79.98483835335716
 70
     32
  0
VERTEX
  8
MY3DLAYER
10
1548.1005139214135
20
685.7359253431081
30
79.98483835335708
 70
     32
  0
VERTEX
  8
MY3DLAYER
10
1548.134588095125
20
685.4771062980055
30
79.98483835335698
 70
     32
  0
VERTEX
  8
MY3DLAYER
10
1548.1005139214128
20
685.218287252903
30
79.98483835335688
 70
     32
  0
VERTEX
  8
MY3DLAYER
10
1548.000613498909
20
684.9771062980055
30
79.98483835335678
 70
     32
  0
VERTEX
  8
MY3DLAYER
10
1547.841694876311
20
684.7699995168194
30
79.98483835335671
 70
     32
  0
VERTEX
  8
MY3DLAYER
10
1547.6345880951244
20
684.6110808942211
30
79.98483835335672
 70
     32
  0
VERTEX
  8
MY3DLAYER
10
1547.393407140227
20
684.5111804717164
30
79.98483835335661
 70
     32
  0
VERTEX
  8
MY3DLAYER
10
1547.1345880951244
20
684.4771062980059
30
79.98483835335661
 70
     32
  0
VERTEX
  8
MY3DLAYER
10
1546.875769050022
20
684.5111804717163
30
79.98483835335661
 70
     32
  0
SEQEND
  0
POLYLINE
 8
Différence
 66
     1
70
    8
 10
0.0
 20
 0.0
 30
0.0
  0
VERTEX
  8
MY3DLAYER
10
1621.875769050022
20
684.5111804717249
30
79.9848383533562
 70
     32
  0
VERTEX
  8
MY3DLAYER
10
1621.6345880951244
20
684.6110808942294
30
79.98483835335631
 70
     32
  0
VERTEX
  8
MY3DLAYER
10
1621.4274813139377
20
684.7699995168277
30
79.9848383533563
 70
     32
  0
VERTEX
  8
MY3DLAYER
10
1621.2685626913399
20
684.9771062980138
30
79.98483835335638
 70
     32
  0
VERTEX
  8
MY3DLAYER
10
1621.1686622688353
20
685.2182872529113
30
79.98483835335647
 70
     32
  0
VERTEX
  8
MY3DLAYER
10
1621.1345880951242
20
685.4771062980138
30
79.98483835335657
 70
     32
  0
VERTEX
  8
MY3DLAYER
10
1621.168662268835
20
685.7359253431164
30
79.98483835335666
 70
     32
  0
VERTEX
  8
MY3DLAYER
10
1621.2685626913399
20
685.9771062980138
30
79.98483835335676
 70
     32
  0
VERTEX
  8
MY3DLAYER
10
1621.4274813139377
20
686.1842130792008
30
79.9848383533569
 70
     32
  0
VERTEX
  8
MY3DLAYER
10
1621.6345880951242
20
686.3431317017984
30
79.9848383533569
 70
     32
  0
VERTEX
  8
MY3DLAYER
10
1621.8757690500217
20
686.4430321243029
30
79.98483835335693
 70
     32
  0
VERTEX
  8
MY3DLAYER
10
1622.1345880951242
20
686.477106298014
30
79.98483835335702
 70
     32
  0
VERTEX
  8
MY3DLAYER
10
1622.3934071402268
20
686.443032124303
30
79.98483835335693
 70
     32
  0
VERTEX
  8
MY3DLAYER
10
1622.6345880951242
20
686.3431317017985
30
79.9848383533569
 70
     32
  0
VERTEX
  8
MY3DLAYER
10
1622.8416948763106
20
686.1842130792005
30
79.9848383533569
 70
     32
  0
VERTEX
  8
MY3DLAYER
10
1623.0006134989087
20
685.9771062980144
30
79.98483835335676
 70
     32
  0
VERTEX
  8
MY3DLAYER
10
1623.1005139214133
20
685.735925343117
30
79.98483835335666
 70
     32
  0
VERTEX
  8
MY3DLAYER
10
1623.1345880951242
20
685.4771062980144
30
79.98483835335657
 70
     32
  0
VERTEX
  8
MY3DLAYER
10
1623.1005139214133
20
685.2182872529119
30
79.98483835335647
 70
     32
  0
VERTEX
  8
MY3DLAYER
10
1623.0006134989087
20
684.9771062980144
30
79.98483835335638
 70
     32
  0
VERTEX
  8
MY3DLAYER
10
1622.8416948763108
20
684.7699995168274
30
79.9848383533563
 70
     32
  0
VERTEX
  8
MY3DLAYER
10
1622.6345880951244
20
684.6110808942295
30
79.98483835335631
 70
     32
  0
VERTEX
  8
MY3DLAYER
10
1622.393407140227
20
684.5111804717249
30
79.9848383533562
 70
     32
  0
VERTEX
  8
MY3DLAYER
10
1622.1345880951244
20
684.477106298014
30
79.98483835335621
 70
     32
  0
VERTEX
  8
MY3DLAYER
10
1621.875769050022
20
684.5111804717249
30
79.9848383533562
 70
     32
  0
SEQEND
  0
POLYLINE
 8
Différence
 66
     1
70
    8
 10
0.0
 20
 0.0
 30
0.0
  0
VERTEX
  8
MY3DLAYER
10
1596.8757690500217
20
686.4430321243002
30
79.98483835335708
 70
     32
  0
VERTEX
  8
MY3DLAYER
10
1597.1345880951244
20
686.4771062980111
30
79.98483835335716
 70
     32
  0
VERTEX
  8
MY3DLAYER
10
1597.3934071402268
20
686.4430321243007
30
79.98483835335708
 70
     32
  0
VERTEX
  8
MY3DLAYER
10
1597.6345880951244
20
686.3431317017956
30
79.98483835335705
 70
     32
  0
VERTEX
  8
MY3DLAYER
10
1597.8416948763108
20
686.1842130791978
30
79.98483835335705
 70
     32
  0
VERTEX
  8
MY3DLAYER
10
1598.0006134989087
20
685.9771062980112
30
79.98483835335689
 70
     32
  0
VERTEX
  8
MY3DLAYER
10
1598.1005139214135
20
685.7359253431138
30
79.9848383533568
 70
     32
  0
VERTEX
  8
MY3DLAYER
10
1598.134588095125
20
685.4771062980112
30
79.98483835335671
 70
     32
  0
VERTEX
  8
MY3DLAYER
10
1598.1005139214128
20
685.2182872529087
30
79.98483835335661
 70
     32
  0
VERTEX
  8
MY3DLAYER
10
1598.000613498909
20
684.9771062980112
30
79.98483835335651
 70
     32
  0
VERTEX
  8
MY3DLAYER
10
1597.8416948763108
20
684.7699995168247
30
79.98483835335644
 70
     32
  0
VERTEX
  8
MY3DLAYER
10
1597.6345880951244
20
684.6110808942268
30
79.98483835335645
 70
     32
  0
VERTEX
  8
MY3DLAYER
10
1597.393407140227
20
684.5111804717225
30
79.98483835335634
 70
     32
  0
VERTEX
  8
MY3DLAYER
10
1597.1345880951244
20
684.4771062980111
30
79.98483835335634
 70
     32
  0
VERTEX
  8
MY3DLAYER
10
1596.875769050022
20
684.511180471722
30
79.98483835335634
 70
     32
  0
VERTEX
  8
MY3DLAYER
10
1596.6345880951244
20
684.611080894227
30
79.98483835335645
 70
     32
  0
VERTEX
  8
MY3DLAYER
10
1596.427481313938
20
684.7699995168244
30
79.98483835335644
 70
     32
  0
VERTEX
  8
MY3DLAYER
10
1596.2685626913399
20
684.9771062980111
30
79.98483835335651
 70
     32
  0
VERTEX
  8
MY3DLAYER
10
1596.1686622688346
20
685.2182872529085
30
79.98483835335661
 70
     32
  0
VERTEX
  8
MY3DLAYER
10
1596.134588095125
20
685.477106298011
30
79.98483835335671
 70
     32
  0
VERTEX
  8
MY3DLAYER
10
1596.1686622688353
20
685.7359253431135
30
79.9848383533568
 70
     32
  0
VERTEX
  8
MY3DLAYER
10
1596.2685626913399
20
685.977106298011
30
79.98483835335689
 70
     32
  0
VERTEX
  8
MY3DLAYER
10
1596.4274813139377
20
686.1842130791975
30
79.98483835335705
 70
     32
  0
VERTEX
  8
MY3DLAYER
10
1596.6345880951242
20
686.3431317017959
30
79.98483835335705
 70
     32
  0
VERTEX
  8
MY3DLAYER
10
1596.8757690500217
20
686.4430321243002
30
79.98483835335708
 70
     32
  0
SEQEND
  0
POLYLINE
 8
Différence
 66
     1
70
    8
 10
0.0
 20
 0.0
 30
0.0
  0
VERTEX
  8
MY3DLAYER
10
1455.1264412420921
20
694.557564989975
30
79.98483835336076
 70
     32
  0
VERTEX
  8
MY3DLAYER
10
1455.3236145558446
20
694.5442208641917
30
79.98483835336083
 70
     32
  0
VERTEX
  8
MY3DLAYER
10
1455.5706341152083
20
694.4597834038225
30
79.98483835336071
 70
     32
  0
VERTEX
  8
MY3DLAYER
10
1455.7873826643327
20
694.3142897136693
30
79.98483835336073
 70
     32
  0
VERTEX
  8
MY3DLAYER
10
1455.9590891477885
20
694.1176549482769
30
79.98483835336059
 70
     32
  0
VERTEX
  8
MY3DLAYER
10
1456.074052052487
20
693.8832794419515
30
79.9848383533605
 70
     32
  0
VERTEX
  8
MY3DLAYER
10
1456.1244368464581
20
693.6271354981261
30
79.98483835336039
 70
     32
  0
VERTEX
  8
MY3DLAYER
10
1456.1201540150407
20
693.563852217027
30
79.98483835336037
 70
     32
  0
VERTEX
  8
MY3DLAYER
10
1456.1068098892565
20
693.3666789032745
30
79.98483835336032
 70
     32
  0
VERTEX
  8
MY3DLAYER
10
1456.0223724288878
20
693.1196593439108
30
79.9848383533602
 70
     32
  0
VERTEX
  8
MY3DLAYER
10
1455.8768787387346
20
692.902910794787
30
79.98483835336017
 70
     32
  0
VERTEX
  8
MY3DLAYER
10
1455.680243973342
20
692.7312043113307
30
79.9848383533601
 70
     32
  0
VERTEX
  8
MY3DLAYER
10
1455.445868467017
20
692.6162414066322
30
79.98483835336008
 70
     32
  0
VERTEX
  8
MY3DLAYER
10
1455.1897245231917
20
692.5658566126615
30
79.98483835336006
 70
     32
  0
VERTEX
  8
MY3DLAYER
10
1455.1264412420924
20
692.5701394440796
30
79.98483835335999
 70
     32
  0
VERTEX
  8
MY3DLAYER
10
1454.9292679283399
20
692.583483569862
30
79.98483835335999
 70
     32
  0
VERTEX
  8
MY3DLAYER
10
1454.6822483689762
20
692.6679210302315
30
79.98483835336009
 70
     32
  0
VERTEX
  8
MY3DLAYER
10
1454.4654998198519
20
692.8134147203846
30
79.98483835336008
 70
     32
  0
VERTEX
  8
MY3DLAYER
10
1454.293793336396
20
693.0100494857777
30
79.98483835336017
 70
     32
  0
VERTEX
  8
MY3DLAYER
10
1454.178830431697
20
693.2444249921024
30
79.98483835336027
 70
     32
  0
VERTEX
  8
MY3DLAYER
10
1454.128445637727
20
693.5005689359276
30
79.98483835336042
 70
     32
  0
VERTEX
  8
MY3DLAYER
10
1454.1327284691451
20
693.5638522170268
30
79.98483835336037
 70
     32
  0
VERTEX
  8
MY3DLAYER
10
1454.1460725949275
20
693.7610255307793
30
79.98483835336044
 70
     32
  0
VERTEX
  8
MY3DLAYER
10
1454.230510055297
20
694.008045090143
30
79.98483835336054
 70
     32
  0
VERTEX
  8
MY3DLAYER
10
1454.37600374545
20
694.2247936392677
30
79.98483835336062
 70
     32
  0
VERTEX
  8
MY3DLAYER
10
1454.5726385108428
20
694.3965001227232
30
79.98483835336067
 70
     32
  0
VERTEX
  8
MY3DLAYER
10
1454.8070140171678
20
694.5114630274218
30
79.98483835336073
 70
     32
  0
VERTEX
  8
MY3DLAYER
10
1455.063157960993
20
694.561847821393
30
79.98483835336076
 70
     32
  0
VERTEX
  8
MY3DLAYER
10
1455.1264412420921
20
694.557564989975
30
79.98483835336076
 70
     32
  0
SEQEND
  0
POLYLINE
 8
Différence
 66
     1
70
    8
 10
0.0
 20
 0.0
 30
0.0
  0
VERTEX
  8
MY3DLAYER
10
1698.0006134989083
20
684.9771062980225
30
79.98483835335597
 70
     32
  0
VERTEX
  8
MY3DLAYER
10
1697.8416948763102
20
684.7699995168359
30
79.9848383533559
 70
     32
  0
VERTEX
  8
MY3DLAYER
10
1697.6345880951237
20
684.6110808942381
30
79.9848383533559
 70
     32
  0
VERTEX
  8
MY3DLAYER
10
1697.3934071402261
20
684.5111804717337
30
79.9848383533558
 70
     32
  0
VERTEX
  8
MY3DLAYER
10
1697.1345880951237
20
684.4771062980224
30
79.9848383533558
 70
     32
  0
VERTEX
  8
MY3DLAYER
10
1696.8757690500215
20
684.5111804717333
30
79.9848383533558
 70
     32
  0
VERTEX
  8
MY3DLAYER
10
1696.634588095124
20
684.6110808942383
30
79.9848383533559
 70
     32
  0
VERTEX
  8
MY3DLAYER
10
1696.427481313937
20
684.7699995168357
30
79.9848383533559
 70
     32
  0
VERTEX
  8
MY3DLAYER
10
1696.268562691339
20
684.9771062980224
30
79.98483835335597
 70
     32
  0
VERTEX
  8
MY3DLAYER
10
1696.1686622688346
20
685.2182872529198
30
79.98483835335607
 70
     32
  0
VERTEX
  8
MY3DLAYER
10
1696.1345880951237
20
685.4771062980222
30
79.98483835335617
 70
     32
  0
VERTEX
  8
MY3DLAYER
10
1696.1686622688346
20
685.7359253431249
30
79.98483835335627
 70
     32
  0
VERTEX
  8
MY3DLAYER
10
1696.268562691339
20
685.9771062980224
30
79.98483835335635
 70
     32
  0
VERTEX
  8
MY3DLAYER
10
1696.427481313937
20
686.1842130792088
30
79.98483835335651
 70
     32
  0
VERTEX
  8
MY3DLAYER
10
1696.634588095125
20
686.3431317018072
30
79.98483835335651
 70
     32
  0
VERTEX
  8
MY3DLAYER
10
1696.8757690500224
20
686.4430321243115
30
79.98483835335654
 70
     32
  0
VERTEX
  8
MY3DLAYER
10
1697.1345880951249
20
686.4771062980224
30
79.98483835335661
 70
     32
  0
VERTEX
  8
MY3DLAYER
10
1697.3934071402275
20
686.4430321243119
30
79.98483835335654
 70
     32
  0
VERTEX
  8
MY3DLAYER
10
1697.6345880951249
20
686.3431317018069
30
79.98483835335651
 70
     32
  0
VERTEX
  8
MY3DLAYER
10
1697.84169487631
20
686.184213079209
30
79.98483835335651
 70
     32
  0
VERTEX
  8
MY3DLAYER
10
1698.0006134989083
20
685.9771062980225
30
79.98483835335635
 70
     32
  0
VERTEX
  8
MY3DLAYER
10
1698.1005139214126
20
685.735925343125
30
79.98483835335627
 70
     32
  0
VERTEX
  8
MY3DLAYER
10
1698.1345880951235
20
685.4771062980225
30
79.98483835335617
 70
     32
  0
VERTEX
  8
MY3DLAYER
10
1698.1005139214126
20
685.2182872529199
30
79.98483835335607
 70
     32
  0
VERTEX
  8
MY3DLAYER
10
1698.0006134989083
20
684.9771062980225
30
79.98483835335597
 70
     32
  0
SEQEND
  0
POLYLINE
 8
Différence
 66
     1
70
    8
 10
0.0
 20
 0.0
 30
0.0
  0
VERTEX
  8
MY3DLAYER
10
1647.6345880951235
20
684.6110808942324
30
79.98483835335618
 70
     32
  0
VERTEX
  8
MY3DLAYER
10
1647.3934071402266
20
684.5111804717277
30
79.98483835335607
 70
     32
  0
VERTEX
  8
MY3DLAYER
10
1647.1345880951235
20
684.4771062980171
30
79.98483835335607
 70
     32
  0
VERTEX
  8
MY3DLAYER
10
1646.8757690500213
20
684.5111804717276
30
79.98483835335607
 70
     32
  0
VERTEX
  8
MY3DLAYER
10
1646.6345880951237
20
684.6110808942323
30
79.98483835335618
 70
     32
  0
VERTEX
  8
MY3DLAYER
10
1646.4274813139373
20
684.7699995168301
30
79.98483835335617
 70
     32
  0
VERTEX
  8
MY3DLAYER
10
1646.2685626913392
20
684.977106298017
30
79.98483835335624
 70
     32
  0
VERTEX
  8
MY3DLAYER
10
1646.1686622688344
20
685.2182872529143
30
79.98483835335634
 70
     32
  0
VERTEX
  8
MY3DLAYER
10
1646.1345880951235
20
685.4771062980167
30
79.98483835335644
 70
     32
  0
VERTEX
  8
MY3DLAYER
10
1646.1686622688344
20
685.7359253431193
30
79.98483835335654
 70
     32
  0
VERTEX
  8
MY3DLAYER
10
1646.2685626913392
20
685.9771062980171
30
79.98483835335662
 70
     32
  0
VERTEX
  8
MY3DLAYER
10
1646.4274813139368
20
686.1842130792032
30
79.98483835335678
 70
     32
  0
VERTEX
  8
MY3DLAYER
10
1646.6345880951249
20
686.3431317018011
30
79.98483835335678
 70
     32
  0
VERTEX
  8
MY3DLAYER
10
1646.8757690500224
20
686.4430321243058
30
79.9848383533568
 70
     32
  0
VERTEX
  8
MY3DLAYER
10
1647.134588095125
20
686.4771062980171
30
79.98483835335689
 70
     32
  0
VERTEX
  8
MY3DLAYER
10
1647.3934071402275
20
686.4430321243059
30
79.9848383533568
 70
     32
  0
VERTEX
  8
MY3DLAYER
10
1647.6345880951249
20
686.3431317018012
30
79.98483835335678
 70
     32
  0
VERTEX
  8
MY3DLAYER
10
1647.84169487631
20
686.1842130792038
30
79.98483835335678
 70
     32
  0
VERTEX
  8
MY3DLAYER
10
1648.000613498908
20
685.9771062980168
30
79.98483835335662
 70
     32
  0
VERTEX
  8
MY3DLAYER
10
1648.1005139214128
20
685.7359253431193
30
79.98483835335654
 70
     32
  0
VERTEX
  8
MY3DLAYER
10
1648.1345880951237
20
685.4771062980168
30
79.98483835335644
 70
     32
  0
VERTEX
  8
MY3DLAYER
10
1648.1005139214128
20
685.2182872529143
30
79.98483835335634
 70
     32
  0
VERTEX
  8
MY3DLAYER
10
1648.000613498908
20
684.9771062980169
30
79.98483835335624
 70
     32
  0
VERTEX
  8
MY3DLAYER
10
1647.8416948763104
20
684.7699995168307
30
79.98483835335617
 70
     32
  0
VERTEX
  8
MY3DLAYER
10
1647.6345880951235
20
684.6110808942324
30
79.98483835335618
 70
     32
  0
SEQEND
  0
POLYLINE
 8
Différence
 66
     1
70
    8
 10
0.0
 20
 0.0
 30
0.0
  0
VERTEX
  8
MY3DLAYER
10
1788.7079673173444
20
682.2212445542061
30
79.98483835336053
 70
     32
  0
VERTEX
  8
MY3DLAYER
10
1788.6860297648752
20
672.2212445542064
30
79.98483835336542
 70
     32
  0
VERTEX
  8
MY3DLAYER
10
1807.537281975627
20
672.2012445542102
30
79.98483835336076
 70
     32
  0
VERTEX
  8
MY3DLAYER
10
1807.5372819756242
20
682.2212445542102
30
79.98483835334704
 70
     32
  0
VERTEX
  8
MY3DLAYER
10
1788.7079673173444
20
682.2212445542061
30
79.98483835336053
 70
     32
  0
SEQEND
  0
POLYLINE
 8
Différence
 66
     1
70
    8
 10
0.0
 20
 0.0
 30
0.0
  0
VERTEX
  8
MY3DLAYER
10
1767.4191067839186
20
678.2212445541709
30
79.98483835335219
 70
     32
  0
VERTEX
  8
MY3DLAYER
10
1767.6779258290214
20
678.1871703804599
30
79.98483835335225
 70
     32
  0
VERTEX
  8
MY3DLAYER
10
1767.91910678392
20
678.0872699579553
30
79.98483835335213
 70
     32
  0
VERTEX
  8
MY3DLAYER
10
1768.1262135651066
20
677.9283513353574
30
79.98483835335207
 70
     32
  0
VERTEX
  8
MY3DLAYER
10
1768.2851321877044
20
677.721244554171
30
79.98483835335207
 70
     32
  0
VERTEX
  8
MY3DLAYER
10
1768.3850326102092
20
677.4800635992735
30
79.98483835335202
 70
     32
  0
VERTEX
  8
MY3DLAYER
10
1768.4191067839201
20
677.221244554171
30
79.98483835335185
 70
     32
  0
VERTEX
  8
MY3DLAYER
10
1768.3850326102092
20
676.9624255090685
30
79.98483835335182
 70
     32
  0
VERTEX
  8
MY3DLAYER
10
1768.285132187705
20
676.721244554171
30
79.98483835335173
 70
     32
  0
VERTEX
  8
MY3DLAYER
10
1768.1262135651054
20
676.5141377729843
30
79.9848383533516
 70
     32
  0
VERTEX
  8
MY3DLAYER
10
1767.9191067839188
20
676.3552191503865
30
79.98483835335156
 70
     32
  0
VERTEX
  8
MY3DLAYER
10
1767.6779258290214
20
676.2553187278818
30
79.98483835335159
 70
     32
  0
VERTEX
  8
MY3DLAYER
10
1767.419106783919
20
676.2212445541709
30
79.98483835335149
 70
     32
  0
VERTEX
  8
MY3DLAYER
10
1767.1602877388164
20
676.2553187278818
30
79.98483835335159
 70
     32
  0
VERTEX
  8
MY3DLAYER
10
1766.9191067839188
20
676.3552191503863
30
79.98483835335156
 70
     32
  0
VERTEX
  8
MY3DLAYER
10
1766.712000002732
20
676.5141377729842
30
79.9848383533516
 70
     32
  0
VERTEX
  8
MY3DLAYER
10
1766.5530813801356
20
676.7212445541708
30
79.98483835335178
 70
     32
  0
VERTEX
  8
MY3DLAYER
10
1766.4531809576313
20
676.9624255090681
30
79.98483835335182
 70
     32
  0
VERTEX
  8
MY3DLAYER
10
1766.4191067839204
20
677.2212445541707
30
79.98483835335185
 70
     32
  0
VERTEX
  8
MY3DLAYER
10
1766.453180957631
20
677.4800635992732
30
79.98483835335202
 70
     32
  0
VERTEX
  8
MY3DLAYER
10
1766.5530813801356
20
677.7212445541708
30
79.98483835335212
 70
     32
  0
VERTEX
  8
MY3DLAYER
10
1766.7120000027337
20
677.9283513353573
30
79.98483835335207
 70
     32
  0
VERTEX
  8
MY3DLAYER
10
1766.9191067839201
20
678.0872699579552
30
79.98483835335213
 70
     32
  0
VERTEX
  8
MY3DLAYER
10
1767.160287738816
20
678.1871703804599
30
79.98483835335225
 70
     32
  0
VERTEX
  8
MY3DLAYER
10
1767.4191067839186
20
678.2212445541709
30
79.98483835335219
 70
     32
  0
SEQEND
  0
LINE
 8
Différence
10
1456.1264412420946
20
677.5638522170274
30
79.98483835335432
11
1456.0923670683826
21
677.3050331719248
31
79.9848383533543
  0
LINE
 8
Différence
10
1456.0923670683826
20
677.3050331719248
30
79.9848383533543
11
1455.9924666458787
21
677.0638522170276
31
79.9848383533542
  0
LINE
 8
Différence
10
1455.9924666458787
20
677.0638522170276
30
79.9848383533542
11
1455.8335480232809
21
676.856745435841
31
79.98483835335405
  0
LINE
 8
Différence
10
1455.8335480232809
20
676.856745435841
30
79.98483835335405
11
1455.6264412420942
21
676.6978268132427
31
79.984838353354
  0
LINE
 8
Différence
10
1455.6264412420942
20
676.6978268132427
30
79.984838353354
11
1455.3852602871968
21
676.5979263907382
31
79.98483835335402
  0
LINE
 8
Différence
10
1455.3852602871968
20
676.5979263907382
30
79.98483835335402
11
1455.1264412420942
21
676.5638522170276
31
79.98483835335394
  0
LINE
 8
Différence
10
1455.1264412420942
20
676.5638522170276
30
79.98483835335394
11
1454.8676221969918
21
676.597926390738
31
79.98483835335402
  0
LINE
 8
Différence
10
1454.8676221969918
20
676.597926390738
30
79.98483835335402
11
1454.6264412420944
21
676.6978268132427
31
79.984838353354
  0
LINE
 8
Différence
10
1454.6264412420944
20
676.6978268132427
30
79.984838353354
11
1454.4193344609077
21
676.8567454358406
31
79.98483835335405
  0
LINE
 8
Différence
10
1454.4193344609077
20
676.8567454358406
30
79.98483835335405
11
1454.2604158383097
21
677.0638522170275
31
79.9848383533542
  0
LINE
 8
Différence
10
1454.2604158383097
20
677.0638522170275
30
79.9848383533542
11
1454.1605154158044
21
677.3050331719245
31
79.9848383533543
  0
LINE
 8
Différence
10
1454.1605154158044
20
677.3050331719245
30
79.9848383533543
11
1454.1264412420949
21
677.563852217027
31
79.98483835335432
  0
LINE
 8
Différence
10
1454.1264412420949
20
677.563852217027
30
79.98483835335432
11
1454.1605154158049
21
677.8226712621296
31
79.98483835335449
  0
LINE
 8
Différence
10
1454.1605154158049
20
677.8226712621296
30
79.98483835335449
11
1454.2604158383094
21
678.0638522170275
31
79.98483835335459
  0
LINE
 8
Différence
10
1454.2604158383094
20
678.0638522170275
30
79.98483835335459
11
1454.4193344609075
21
678.2709589982137
31
79.98483835335459
  0
LINE
 8
Différence
10
1454.4193344609075
20
678.2709589982137
30
79.98483835335459
11
1454.626441242094
21
678.4298776208117
31
79.98483835335466
  0
LINE
 8
Différence
10
1454.626441242094
20
678.4298776208117
30
79.98483835335466
11
1454.8676221969915
21
678.5297780433162
31
79.98483835335476
  0
LINE
 8
Différence
10
1454.8676221969915
20
678.5297780433162
30
79.98483835335476
11
1455.126441242094
21
678.5638522170276
31
79.9848383533547
  0
LINE
 8
Différence
10
1456.0923670683833
20
677.8226712621299
30
79.98483835335449
11
1456.1264412420946
21
677.5638522170274
31
79.98483835335432
  0
LINE
 8
Différence
10
1455.9924666458787
20
678.0638522170277
30
79.98483835335459
11
1456.0923670683833
21
677.8226712621299
31
79.98483835335449
  0
LINE
 8
Différence
10
1455.8335480232806
20
678.2709589982143
30
79.98483835335459
11
1455.9924666458787
21
678.0638522170277
31
79.98483835335459
  0
LINE
 8
Différence
10
1455.626441242094
20
678.4298776208117
30
79.98483835335466
11
1455.8335480232806
21
678.2709589982143
31
79.98483835335459
  0
LINE
 8
Différence
10
1455.3852602871966
20
678.5297780433164
30
79.98483835335476
11
1455.626441242094
21
678.4298776208117
31
79.98483835335466
  0
LINE
 8
Différence
10
1455.126441242094
20
678.5638522170276
30
79.9848383533547
11
1455.3852602871966
21
678.5297780433164
31
79.98483835335476
  0
LINE
 8
Différence
10
1414.460097043741
20
675.1013530024392
30
79.98483835335342
11
1414.4107273024597
21
675.4763532971439
31
79.98483835335352
  0
LINE
 8
Différence
10
1414.6048418457572
20
674.751908413902
30
79.98483835335328
11
1414.460097043741
21
675.1013530024392
31
79.98483835335342
  0
LINE
 8
Différence
10
1414.835097539931
20
674.4518336548683
30
79.9848383533532
11
1414.6048418457572
21
674.751908413902
31
79.98483835335328
  0
LINE
 8
Différence
10
1415.1351725131387
20
674.2215783420343
30
79.98483835335308
11
1414.835097539931
21
674.4518336548683
31
79.9848383533532
  0
LINE
 8
Différence
10
1415.4846170864582
20
674.0768339745653
30
79.98483835335306
11
1415.1351725131387
21
674.2215783420343
31
79.98483835335308
  0
LINE
 8
Différence
10
1415.8596171456202
20
674.027464592843
30
79.98483835335298
11
1415.4846170864582
21
674.0768339745653
31
79.98483835335306
  0
LINE
 8
Différence
10
1416.2346170438943
20
674.0768345765645
30
79.98483835335306
11
1415.8596171456202
21
674.027464592843
31
79.98483835335298
  0
LINE
 8
Différence
10
1416.5840611773583
20
674.2215793855612
30
79.98483835335308
11
1416.2346170438943
21
674.0768345765645
31
79.98483835335306
  0
LINE
 8
Différence
10
1416.8841355488576
20
674.4518348615686
30
79.98483835335315
11
1416.5840611773583
21
674.2215793855612
31
79.98483835335308
  0
LINE
 8
Différence
10
1417.1143906399234
20
674.7519094615362
30
79.98483835335328
11
1416.8841355488576
21
674.4518348615686
31
79.98483835335315
  0
LINE
 8
Différence
10
1417.259134998631
20
675.1013536107986
30
79.98483835335342
11
1417.1143906399234
21
674.7519094615362
31
79.98483835335328
  0
LINE
 8
Différence
10
1417.308504575329
20
675.4763533030984
30
79.98483835335352
11
1417.259134998631
21
675.1013536107986
31
79.98483835335342
  0
LINE
 8
Différence
10
1417.2591349338318
20
675.8513529778236
30
79.9848383533537
11
1417.308504575329
21
675.4763533030984
31
79.98483835335352
  0
LINE
 8
Différence
10
1417.1143905282202
20
676.2007970793344
30
79.98483835335382
11
1417.2591349338318
21
675.8513529778236
31
79.9848383533537
  0
LINE
 8
Différence
10
1416.884135420856
20
676.5008716147936
30
79.98483835335396
11
1417.1143905282202
21
676.2007970793344
31
79.98483835335382
  0
LINE
 8
Différence
10
1416.584061067628
20
676.7311270274114
30
79.98483835335404
11
1416.884135420856
21
676.5008716147936
31
79.98483835335396
  0
LINE
 8
Différence
10
1416.234616981334
20
676.8758717912854
30
79.9848383533541
11
1416.584061067628
21
676.7311270274114
31
79.98483835335404
  0
LINE
 8
Différence
10
1415.8596171457464
20
676.9252417598177
30
79.98483835335408
11
1416.234616981334
21
676.8758717912854
31
79.9848383533541
  0
LINE
 8
Différence
10
1415.4846171476886
20
676.8758723960752
30
79.98483835335406
11
1415.8596171457464
21
676.9252417598177
31
79.98483835335408
  0
LINE
 8
Différence
10
1415.1351726178204
20
676.731128074105
30
79.98483835335404
11
1415.4846171476886
21
676.8758723960752
31
79.98483835335406
  0
LINE
 8
Différence
10
1414.8350976595116
20
676.5008728216719
30
79.98483835335396
11
1415.1351726178204
21
676.731128074105
31
79.98483835335404
  0
LINE
 8
Différence
10
1414.6048419484657
20
676.2007981219207
30
79.98483835335388
11
1414.8350976595116
21
676.5008728216719
31
79.98483835335396
  0
LINE
 8
Différence
10
1414.4600969812227
20
675.8513532573285
30
79.9848383533537
11
1414.6048419484657
21
676.2007981219207
31
79.98483835335388
  0
LINE
 8
Différence
10
1414.4107273024597
20
675.4763532971439
30
79.98483835335352
11
1414.4600969812227
21
675.8513532573285
31
79.9848383533537
  0
LINE
 8
Différence
10
1434.4554489713048
20
675.1013530024417
30
79.98483835335333
11
1434.4060792300231
21
675.4763532971464
31
79.98483835335344
  0
LINE
 8
Différence
10
1434.6001937733206
20
674.7519084139046
30
79.9848383533532
11
1434.4554489713048
21
675.1013530024417
31
79.98483835335333
  0
LINE
 8
Différence
10
1434.8304494674946
20
674.4518336548709
30
79.98483835335311
11
1434.6001937733206
21
674.7519084139046
31
79.9848383533532
  0
LINE
 8
Différence
10
1435.1305244407022
20
674.2215783420368
30
79.984838353353
11
1434.8304494674946
21
674.4518336548709
31
79.98483835335311
  0
LINE
 8
Différence
10
1435.4799690140217
20
674.0768339745679
30
79.98483835335296
11
1435.1305244407022
21
674.2215783420368
31
79.984838353353
  0
LINE
 8
Différence
10
1435.8549690731836
20
674.0274645928454
30
79.98483835335294
11
1435.4799690140217
21
674.0768339745679
31
79.98483835335296
  0
LINE
 8
Différence
10
1436.2299689714575
20
674.0768345765669
30
79.98483835335291
11
1435.8549690731836
21
674.0274645928454
31
79.98483835335294
  0
LINE
 8
Différence
10
1436.5794131049217
20
674.2215793855637
30
79.984838353353
11
1436.2299689714575
21
674.0768345765669
31
79.98483835335291
  0
LINE
 8
Différence
10
1436.879487476421
20
674.4518348615712
30
79.98483835335311
11
1436.5794131049217
21
674.2215793855637
31
79.984838353353
  0
LINE
 8
Différence
10
1437.109742567487
20
674.7519094615387
30
79.98483835335315
11
1436.879487476421
21
674.4518348615712
31
79.98483835335311
  0
LINE
 8
Différence
10
1437.254486926194
20
675.1013536108011
30
79.98483835335328
11
1437.109742567487
21
674.7519094615387
31
79.98483835335315
  0
LINE
 8
Différence
10
1437.3038565028928
20
675.4763533031008
30
79.98483835335344
11
1437.254486926194
21
675.1013536108011
31
79.98483835335328
  0
LINE
 8
Différence
10
1437.2544868613952
20
675.8513529778261
30
79.98483835335361
11
1437.3038565028928
21
675.4763533031008
31
79.98483835335344
  0
LINE
 8
Différence
10
1437.1097424557836
20
676.2007970793369
30
79.98483835335374
11
1437.2544868613952
21
675.8513529778261
31
79.98483835335361
  0
LINE
 8
Différence
10
1436.8794873484194
20
676.5008716147961
30
79.98483835335382
11
1437.1097424557836
21
676.2007970793369
31
79.98483835335374
  0
LINE
 8
Différence
10
1436.5794129951914
20
676.7311270274139
30
79.98483835335394
11
1436.8794873484194
21
676.5008716147961
31
79.98483835335382
  0
LINE
 8
Différence
10
1436.2299689088977
20
676.8758717912878
30
79.98483835335398
11
1436.5794129951914
21
676.7311270274139
31
79.98483835335394
  0
LINE
 8
Différence
10
1435.8549690733103
20
676.9252417598201
30
79.984838353354
11
1436.2299689088977
21
676.8758717912878
31
79.98483835335398
  0
LINE
 8
Différence
10
1435.4799690752523
20
676.8758723960777
30
79.98483835335398
11
1435.8549690733103
21
676.9252417598201
31
79.984838353354
  0
LINE
 8
Différence
10
1435.1305245453839
20
676.7311280741073
30
79.98483835335394
11
1435.4799690752523
21
676.8758723960777
31
79.98483835335398
  0
LINE
 8
Différence
10
1434.830449587075
20
676.5008728216744
30
79.98483835335382
11
1435.1305245453839
21
676.7311280741073
31
79.98483835335394
  0
LINE
 8
Différence
10
1434.6001938760294
20
676.2007981219232
30
79.98483835335378
11
1434.830449587075
21
676.5008728216744
31
79.98483835335382
  0
LINE
 8
Différence
10
1434.4554489087861
20
675.851353257331
30
79.98483835335361
11
1434.6001938760294
21
676.2007981219232
31
79.98483835335378
  0
LINE
 8
Différence
10
1434.4060792300231
20
675.4763532971464
30
79.98483835335344
11
1434.4554489087861
21
675.851353257331
31
79.98483835335361
  0
LINE
 8
Différence
10
1414.4600970437386
20
690.1021010943728
30
79.98483835335911
11
1414.4107273024579
21
690.4771013890775
31
79.98483835335922
  0
LINE
 8
Différence
10
1414.6048418457556
20
689.7526565058357
30
79.98483835335897
11
1414.4600970437386
21
690.1021010943728
31
79.98483835335911
  0
LINE
 8
Différence
10
1414.8350975399294
20
689.452581746802
30
79.98483835335885
11
1414.6048418457556
21
689.7526565058357
31
79.98483835335897
  0
LINE
 8
Différence
10
1415.1351725131367
20
689.2223264339679
30
79.98483835335875
11
1414.8350975399294
21
689.452581746802
31
79.98483835335885
  0
LINE
 8
Différence
10
1417.2591349338293
20
690.8521010697573
30
79.98483835335936
11
1417.308504575327
21
690.477101395032
31
79.98483835335922
  0
LINE
 8
Différence
10
1417.308504575327
20
690.477101395032
30
79.98483835335922
11
1417.2591349986287
21
690.1021017027323
31
79.98483835335911
  0
LINE
 8
Différence
10
1416.234616981333
20
691.876619883219
30
79.98483835335976
11
1416.584061067626
21
691.731875119345
31
79.98483835335973
  0
LINE
 8
Différence
10
1437.303856502891
20
690.4771013950345
30
79.98483835335912
11
1437.2544869261926
21
690.1021017027348
31
79.98483835335902
  0
LINE
 8
Différence
10
1436.5794129951898
20
691.7318751193476
30
79.98483835335963
11
1436.879487348418
21
691.5016197067298
31
79.98483835335955
  0
LINE
 8
Différence
10
1437.1097425674857
20
689.7526575534723
30
79.98483835335888
11
1436.8794874764196
21
689.4525829535048
31
79.98483835335875
  0
LINE
 8
Différence
10
1415.8596171456188
20
689.0282126847766
30
79.98483835335867
11
1415.4846170864569
21
689.077582066499
31
79.98483835335868
  0
LINE
 8
Différence
10
1437.1097424557825
20
691.2015451712706
30
79.98483835335941
11
1437.2544868613932
21
690.8521010697597
31
79.98483835335928
  0
LINE
 8
Différence
10
1416.8841354208544
20
691.5016197067273
30
79.98483835335963
11
1417.1143905282186
21
691.2015451712681
31
79.9848383533595
  0
LINE
 8
Différence
10
1434.8304494674933
20
689.4525817468046
30
79.98483835335875
11
1434.6001937733195
21
689.7526565058383
31
79.98483835335888
  0
LINE
 8
Différence
10
1414.83509765951
20
691.5016209136054
30
79.98483835335963
11
1415.1351726178184
21
691.7318761660385
31
79.98483835335973
  0
LINE
 8
Différence
10
1414.46009698122
20
690.8521013492622
30
79.98483835335936
11
1414.6048419484641
21
691.2015462138544
31
79.9848383533595
  0
LINE
 8
Différence
10
1416.584061067626
20
691.731875119345
30
79.98483835335973
11
1416.8841354208544
21
691.5016197067273
31
79.98483835335963
  0
LINE
 8
Différence
10
1436.5794131049201
20
689.2223274774974
30
79.98483835335867
11
1436.2299689714566
21
689.0775826685004
31
79.98483835335858
  0
LINE
 8
Différence
10
1437.2544869261926
20
690.1021017027348
30
79.98483835335902
11
1437.1097425674857
21
689.7526575534723
31
79.98483835335888
  0
LINE
 8
Différence
10
1435.1305244407006
20
689.2223264339705
30
79.98483835335867
11
1434.8304494674933
21
689.4525817468046
31
79.98483835335875
  0
LINE
 8
Différence
10
1435.8549690731827
20
689.028212684779
30
79.98483835335858
11
1435.4799690140208
21
689.0775820665015
31
79.98483835335858
  0
LINE
 8
Différence
10
1417.1143905282186
20
691.2015451712681
30
79.9848383533595
11
1417.2591349338293
21
690.8521010697573
31
79.98483835335936
  0
LINE
 8
Différence
10
1729.994940542554
20
691.2015450670988
30
79.98483835335797
11
1730.1396848570464
21
690.8521008457105
31
79.98483835335783
  0
LINE
 8
Différence
10
1727.4853914258822
20
691.201545999495
30
79.98483835335801
11
1727.7156470683801
21
691.5016208602156
31
79.9848383533581
  0
LINE
 8
Différence
10
1748.011074181528
20
689.2223264340076
30
79.98483835335713
11
1747.7109992083215
21
689.452581746842
31
79.98483835335722
  0
LINE
 8
Différence
10
1730.1396846373927
20
690.1021014348848
30
79.98483835335757
11
1729.9949401571332
21
689.752657371499
31
79.98483835335743
  0
LINE
 8
Différence
10
1749.4599629719503
20
691.7318753114176
30
79.9848383533581
11
1749.7600373833588
21
691.5016197541038
31
79.98483835335801
  0
LINE
 8
Différence
10
1729.7646854557947
20
691.5016197541013
30
79.9848383533581
11
1729.994940542554
21
691.2015450670988
31
79.98483835335797
  0
LINE
 8
Différence
10
1728.740166835987
20
691.9259901660852
30
79.98483835335827
11
1729.1151668329496
21
691.8766201740434
31
79.98483835335823
  0
LINE
 8
Différence
10
1748.3605188160784
20
691.8766204880488
30
79.98483835335814
11
1748.735518763551
21
691.9259901660877
31
79.98483835335819
  0
LINE
 8
Différence
10
1747.710999327901
20
691.5016209136455
30
79.98483835335806
11
1748.011073976611
21
691.7318762840356
31
79.9848383533581
  0
LINE
 8
Différence
10
1749.990292196611
20
676.2007970793744
30
79.98483835335225
11
1750.1350366022225
21
675.8513529778636
31
79.98483835335212
  0
LINE
 8
Différence
10
1730.1396848570464
20
690.8521008457105
30
79.98483835335783
11
1730.1890543617405
21
690.4771011118396
31
79.98483835335769
  0
LINE
 8
Différence
10
1730.1890543617405
20
690.4771011118396
30
79.98483835335769
11
1730.1396846373927
21
690.1021014348848
31
79.98483835335757
  0
LINE
 8
Différence
10
1729.4646110443864
20
691.7318753114153
30
79.9848383533582
11
1729.7646854557947
21
691.5016197541013
31
79.9848383533581
  0
LINE
 8
Différence
10
1728.365166683224
20
691.8766207402682
30
79.98483835335823
11
1728.740166835987
21
691.9259901660852
31
79.98483835335827
  0
LINE
 8
Différence
10
1727.7156470683801
20
691.5016208602156
30
79.9848383533581
11
1728.015722049047
21
691.7318762840331
31
79.98483835335824
  0
LINE
 8
Différence
10
1728.015722049047
20
691.7318762840331
30
79.98483835335824
11
1728.365166683224
21
691.8766207402682
31
79.98483835335823
  0
LINE
 8
Différence
10
1727.4853914258822
20
691.201545999495
30
79.98483835335801
11
1727.3406468435587
21
690.8521016682243
31
79.98483835335787
  0
LINE
 8
Différence
10
1747.4807436168553
20
691.2015462138943
30
79.98483835335787
11
1747.710999327901
21
691.5016209136455
31
79.98483835335806
  0
LINE
 8
Différence
10
1729.1151668329496
20
691.8766201740434
30
79.98483835335823
11
1729.4646110443864
21
691.7318753114153
31
79.9848383533582
  0
LINE
 8
Différence
10
1750.1350365649566
20
690.1021014348873
30
79.98483835335749
11
1749.9902923083139
21
689.7526575535098
31
79.98483835335735
  0
LINE
 8
Différence
10
1747.3359987711226
20
690.8521016682269
30
79.98483835335774
11
1747.4807436168553
21
691.2015462138943
31
79.98483835335787
  0
LINE
 8
Différence
10
1747.2866290250486
20
690.4771010523681
30
79.98483835335765
11
1747.3359987711226
21
690.8521016682269
31
79.98483835335774
  0
LINE
 8
Différence
10
1747.3359987121312
20
690.1021010944128
30
79.98483835335753
11
1747.2866290250486
21
690.4771010523681
31
79.98483835335765
  0
LINE
 8
Différence
10
1747.4807438274488
20
689.752656386508
30
79.98483835335735
11
1747.3359987121312
21
690.1021010944128
31
79.98483835335753
  0
LINE
 8
Différence
10
1747.7109992083215
20
689.452581746842
30
79.98483835335722
11
1747.4807438274488
21
689.752656386508
31
79.98483835335735
  0
LINE
 8
Différence
10
1749.459962568537
20
689.2223275831524
30
79.98483835335713
11
1749.1105187122844
21
689.0775826685381
31
79.98483835335705
  0
LINE
 8
Différence
10
1749.9902923083139
20
689.7526575535098
30
79.98483835335735
11
1749.7600372172474
21
689.4525829535423
31
79.98483835335722
  0
LINE
 8
Différence
10
1749.7600372172474
20
689.4525829535423
30
79.98483835335722
11
1749.459962568537
21
689.2223275831524
31
79.98483835335713
  0
LINE
 8
Différence
10
1436.2299689714566
20
689.0775826685004
30
79.98483835335858
11
1435.8549690731827
21
689.028212684779
31
79.98483835335858
  0
LINE
 8
Différence
10
1435.4799690140208
20
689.0775820665015
30
79.98483835335858
11
1435.1305244407006
21
689.2223264339705
31
79.98483835335867
  0
LINE
 8
Différence
10
1417.2591349986287
20
690.1021017027323
30
79.98483835335911
11
1417.1143906399218
21
689.7526575534699
31
79.98483835335897
  0
LINE
 8
Différence
10
1415.859617145745
20
691.9259898517513
30
79.9848383533598
11
1416.234616981333
21
691.876619883219
31
79.98483835335976
  0
LINE
 8
Différence
10
1417.1143906399218
20
689.7526575534699
30
79.98483835335897
11
1416.8841355488555
21
689.4525829535023
31
79.98483835335885
  0
LINE
 8
Différence
10
1436.879487348418
20
691.5016197067298
30
79.98483835335955
11
1437.1097424557825
21
691.2015451712706
31
79.98483835335941
  0
LINE
 8
Différence
10
1434.6001937733195
20
689.7526565058383
30
79.98483835335888
11
1434.4554489713025
21
690.1021010943753
31
79.98483835335902
  0
LINE
 8
Différence
10
1414.4107273024579
20
690.4771013890775
30
79.98483835335922
11
1414.46009698122
21
690.8521013492622
31
79.98483835335936
  0
LINE
 8
Différence
10
1416.2346170438932
20
689.077582668498
30
79.98483835335868
11
1415.8596171456188
21
689.0282126847766
31
79.98483835335867
  0
LINE
 8
Différence
10
1416.8841355488555
20
689.4525829535023
30
79.98483835335885
11
1416.5840611773563
21
689.2223274774948
31
79.98483835335875
  0
LINE
 8
Différence
10
1436.8794874764196
20
689.4525829535048
30
79.98483835335875
11
1436.5794131049201
21
689.2223274774974
31
79.98483835335867
  0
LINE
 8
Différence
10
1437.2544868613932
20
690.8521010697597
30
79.98483835335928
11
1437.303856502891
21
690.4771013950345
31
79.98483835335912
  0
LINE
 8
Différence
10
1415.4846171476875
20
691.8766204880088
30
79.98483835335976
11
1415.859617145745
21
691.9259898517513
31
79.9848383533598
  0
LINE
 8
Différence
10
1728.7401668865743
20
676.9252417598549
30
79.98483835335254
11
1729.1151667221618
21
676.8758717913227
31
79.98483835335257
  0
LINE
 8
Différence
10
1728.3651668885168
20
676.8758723961128
30
79.98483835335253
11
1728.7401668865743
21
676.9252417598549
31
79.98483835335254
  0
LINE
 8
Différence
10
1416.5840611773563
20
689.2223274774948
30
79.98483835335875
11
1416.2346170438932
21
689.077582668498
31
79.98483835335868
  0
LINE
 8
Différence
10
1415.1351726178184
20
691.7318761660385
30
79.98483835335973
11
1415.4846171476875
21
691.8766204880088
31
79.98483835335976
  0
LINE
 8
Différence
10
1727.340646784568
20
675.1013530024767
30
79.98483835335193
11
1727.291277043287
21
675.4763532971813
31
79.98483835335203
  0
LINE
 8
Différence
10
1434.4060792300218
20
690.47710138908
30
79.98483835335912
11
1434.4554489087843
21
690.8521013492647
31
79.98483835335928
  0
LINE
 8
Différence
10
1434.4554489087843
20
690.8521013492647
30
79.98483835335928
11
1434.600193876028
21
691.2015462138568
31
79.98483835335941
  0
LINE
 8
Différence
10
1727.7156474003389
20
676.5008728217093
30
79.98483835335247
11
1728.0157223586482
21
676.7311280741422
31
79.98483835335254
  0
LINE
 8
Différence
10
1436.2299689088968
20
691.8766198832213
30
79.98483835335968
11
1436.5794129951898
21
691.7318751193476
31
79.98483835335963
  0
LINE
 8
Différence
10
1435.854969073309
20
691.9259898517538
30
79.98483835335972
11
1436.2299689088968
21
691.8766198832213
31
79.98483835335968
  0
LINE
 8
Différence
10
1435.4799690752513
20
691.8766204880114
30
79.98483835335968
11
1435.854969073309
21
691.9259898517538
31
79.98483835335972
  0
LINE
 8
Différence
10
1435.1305245453827
20
691.7318761660409
30
79.98483835335963
11
1435.4799690752513
21
691.8766204880114
31
79.98483835335968
  0
LINE
 8
Différence
10
1434.8304495870739
20
691.5016209136079
30
79.98483835335955
11
1435.1305245453827
21
691.7318761660409
31
79.98483835335963
  0
LINE
 8
Différence
10
1434.4554489713025
20
690.1021010943753
30
79.98483835335902
11
1434.4060792300218
21
690.47710138908
31
79.98483835335912
  0
LINE
 8
Différence
10
1730.1396847394578
20
675.1013536108361
30
79.98483835335189
11
1729.9949403807514
21
674.7519094615736
31
79.98483835335175
  0
LINE
 8
Différence
10
1730.1890543161562
20
675.4763533031361
30
79.98483835335199
11
1730.1396847394578
21
675.1013536108361
31
79.98483835335189
  0
LINE
 8
Différence
10
1730.1396846746586
20
675.8513529778611
30
79.9848383533522
11
1730.1890543161562
21
675.4763533031361
31
79.98483835335199
  0
LINE
 8
Différence
10
1729.9949402690472
20
676.2007970793719
30
79.98483835335234
11
1730.1396846746586
21
675.8513529778611
31
79.9848383533522
  0
LINE
 8
Différence
10
1729.7646851616832
20
676.5008716148311
30
79.98483835335243
11
1729.9949402690472
21
676.2007970793719
31
79.98483835335234
  0
LINE
 8
Différence
10
1729.464610808456
20
676.731127027449
30
79.98483835335254
11
1729.7646851616832
21
676.5008716148311
31
79.98483835335243
  0
LINE
 8
Différence
10
1729.1151667221618
20
676.8758717913227
30
79.98483835335257
11
1729.464610808456
21
676.731127027449
31
79.98483835335254
  0
LINE
 8
Différence
10
1728.0157222539663
20
674.2215783420716
30
79.98483835335159
11
1727.715647280759
21
674.4518336549058
31
79.9848383533517
  0
LINE
 8
Différence
10
1728.7401668372477
20
689.0282129904967
30
79.98483835335713
11
1728.3651669400688
21
689.077582362559
31
79.98483835335719
  0
LINE
 8
Différence
10
1729.115166593606
20
689.07758290334
30
79.98483835335719
11
1728.7401668372477
21
689.0282129904967
31
79.98483835335713
  0
LINE
 8
Différence
10
1728.0157225050575
20
689.2223266383777
30
79.98483835335722
11
1727.7156476066236
21
689.4525817992866
31
79.98483835335736
  0
LINE
 8
Différence
10
1728.3651669400688
20
689.077582362559
30
79.98483835335719
11
1728.0157225050575
21
689.2223266383777
31
79.98483835335722
  0
LINE
 8
Différence
10
1727.2912770974847
20
690.4771010523656
30
79.98483835335773
11
1727.3406468435587
21
690.8521016682243
31
79.98483835335787
  0
LINE
 8
Différence
10
1727.3406469985837
20
690.1021008314682
30
79.98483835335762
11
1727.2912770974847
21
690.4771010523656
31
79.98483835335773
  0
LINE
 8
Différence
10
1727.485391899885
20
689.7526563865055
30
79.98483835335749
11
1727.3406469985837
21
690.1021008314682
31
79.98483835335762
  0
LINE
 8
Différence
10
1727.7156476066236
20
689.4525817992866
30
79.98483835335736
11
1727.485391899885
21
689.7526563865055
31
79.98483835335749
  0
LINE
 8
Différence
10
1747.7109993279028
20
676.5008728217118
30
79.98483835335239
11
1748.011074286212
21
676.7311280741447
31
79.98483835335246
  0
LINE
 8
Différence
10
1747.4807436168571
20
676.2007981219607
30
79.98483835335229
11
1747.7109993279028
21
676.5008728217118
31
79.98483835335239
  0
LINE
 8
Différence
10
1747.3359986496134
20
675.8513532573685
30
79.98483835335207
11
1747.4807436168571
21
676.2007981219607
31
79.98483835335229
  0
LINE
 8
Différence
10
1747.2866289708509
20
675.4763532971837
30
79.9848383533519
11
1747.3359986496134
21
675.8513532573685
31
79.98483835335207
  0
LINE
 8
Différence
10
1749.4599627360199
20
676.7311270274516
30
79.9848383533524
11
1749.7600370892471
21
676.5008716148336
31
79.98483835335234
  0
LINE
 8
Différence
10
1749.1105186497257
20
676.8758717913252
30
79.98483835335249
11
1749.4599627360199
21
676.7311270274516
31
79.9848383533524
  0
LINE
 8
Différence
10
1748.7355188141382
20
676.9252417598574
30
79.9848383533525
11
1749.1105186497257
21
676.8758717913252
31
79.98483835335249
  0
LINE
 8
Différence
10
1748.011074286212
20
676.7311280741447
30
79.98483835335246
11
1748.3605188160807
21
676.8758723961153
31
79.98483835335249
  0
LINE
 8
Différence
10
1749.1105187122866
20
674.0768345766044
30
79.98483835335142
11
1748.7355188140123
21
674.0274645928826
31
79.9848383533514
  0
LINE
 8
Différence
10
1749.4599628457502
20
674.2215793856013
30
79.98483835335146
11
1749.1105187122866
21
674.0768345766044
31
79.98483835335142
  0
LINE
 8
Différence
10
1415.4846170864569
20
689.077582066499
30
79.98483835335868
11
1415.1351725131367
21
689.2223264339679
31
79.98483835335875
  0
LINE
 8
Différence
10
1434.600193876028
20
691.2015462138568
30
79.98483835335941
11
1434.8304495870739
21
691.5016209136079
31
79.98483835335955
  0
LINE
 8
Différence
10
1728.0157223586482
20
676.7311280741422
30
79.98483835335254
11
1728.3651668885168
21
676.8758723961128
31
79.98483835335253
  0
LINE
 8
Différence
10
1727.715647280759
20
674.4518336549058
30
79.9848383533517
11
1727.4853915865851
21
674.7519084139396
31
79.9848383533518
  0
LINE
 8
Différence
10
1727.4853915865851
20
674.7519084139396
30
79.9848383533518
11
1727.340646784568
21
675.1013530024767
31
79.98483835335193
  0
LINE
 8
Différence
10
1729.7646852896853
20
674.4518348616062
30
79.98483835335166
11
1729.4646109181863
21
674.221579385599
31
79.9848383533515
  0
LINE
 8
Différence
10
1728.7401668864484
20
674.0274645928802
30
79.98483835335149
11
1728.3651668272864
21
674.0768339746028
31
79.98483835335152
  0
LINE
 8
Différence
10
1729.1151667847228
20
674.0768345766019
30
79.98483835335152
11
1728.7401668864484
21
674.0274645928802
31
79.98483835335149
  0
LINE
 8
Différence
10
1729.4646109181863
20
674.221579385599
30
79.9848383533515
11
1729.1151667847228
21
674.0768345766019
31
79.98483835335152
  0
LINE
 8
Différence
10
1729.764685001661
20
689.4525829071836
30
79.98483835335732
11
1729.4646106409732
21
689.2223275831498
31
79.98483835335722
  0
LINE
 8
Différence
10
1729.4646106409732
20
689.2223275831498
30
79.98483835335722
11
1729.115166593606
21
689.07758290334
31
79.98483835335719
  0
LINE
 8
Différence
10
1728.3651668272864
20
674.0768339746028
30
79.98483835335152
11
1728.0157222539663
21
674.2215783420716
31
79.98483835335159
  0
LINE
 8
Différence
10
1749.7600370892471
20
676.5008716148336
30
79.98483835335234
11
1749.990292196611
21
676.2007970793744
31
79.98483835335225
  0
LINE
 8
Différence
10
1750.1350366670217
20
675.1013536108386
30
79.9848383533518
11
1749.9902923083152
21
674.7519094615761
31
79.98483835335166
  0
LINE
 8
Différence
10
1749.7600372172492
20
674.4518348616087
30
79.98483835335158
11
1749.4599628457502
21
674.2215793856013
31
79.98483835335146
  0
LINE
 8
Différence
10
1749.9902923083152
20
674.7519094615761
30
79.98483835335166
11
1749.7600372172492
21
674.4518348616087
31
79.98483835335158
  0
LINE
 8
Différence
10
1748.3605188160807
20
676.8758723961153
30
79.98483835335249
11
1748.7355188141382
21
676.9252417598574
31
79.9848383533525
  0
LINE
 8
Différence
10
1727.3406467220495
20
675.8513532573661
30
79.9848383533522
11
1727.4853916892932
21
676.2007981219581
31
79.98483835335239
  0
LINE
 8
Différence
10
1750.1350366022225
20
675.8513529778636
30
79.98483835335212
11
1750.18440624372
21
675.4763533031386
31
79.9848383533519
  0
LINE
 8
Différence
10
1748.7355188140123
20
674.0274645928826
30
79.9848383533514
11
1748.3605187548503
21
674.0768339746053
31
79.98483835335142
  0
LINE
 8
Différence
10
1750.18440624372
20
675.4763533031386
30
79.9848383533519
11
1750.1350366670217
21
675.1013536108386
31
79.9848383533518
  0
LINE
 8
Différence
10
1747.480743514149
20
674.7519084139421
30
79.9848383533517
11
1747.3359987121319
21
675.1013530024792
31
79.9848383533518
  0
LINE
 8
Différence
10
1748.0110741815301
20
674.221578342074
30
79.98483835335146
11
1747.7109992083228
21
674.4518336549083
31
79.98483835335158
  0
LINE
 8
Différence
10
1747.3359987121319
20
675.1013530024792
30
79.9848383533518
11
1747.2866289708509
21
675.4763532971837
31
79.9848383533519
  0
LINE
 8
Différence
10
1747.7109992083228
20
674.4518336549083
30
79.98483835335158
11
1747.480743514149
21
674.7519084139421
31
79.9848383533517
  0
LINE
 8
Différence
10
1727.291277043287
20
675.4763532971813
30
79.98483835335203
11
1727.3406467220495
21
675.8513532573661
31
79.9848383533522
  0
LINE
 8
Différence
10
1729.9949403807514
20
674.7519094615736
30
79.98483835335175
11
1729.7646852896853
21
674.4518348616062
31
79.98483835335166
  0
LINE
 8
Différence
10
1727.4853916892932
20
676.2007981219581
30
79.98483835335239
11
1727.7156474003389
21
676.5008728217093
31
79.98483835335247
  0
LINE
 8
Différence
10
1748.3605187548503
20
674.0768339746053
30
79.98483835335142
11
1748.0110741815301
21
674.221578342074
31
79.98483835335146
  0
LINE
 8
Différence
10
1729.9949401571332
20
689.752657371499
30
79.98483835335743
11
1729.764685001661
21
689.4525829071836
31
79.98483835335732
  0
LINE
 8
Différence
10
1414.6048419484641
20
691.2015462138544
30
79.9848383533595
11
1414.83509765951
21
691.5016209136054
31
79.98483835335963
  0
LINE
 8
Différence
10
1750.1844062437192
20
690.4771013950723
30
79.9848383533576
11
1750.1350365649566
21
690.1021014348873
31
79.98483835335749
  0
LINE
 8
Différence
10
1750.1350367846103
20
690.8521008457132
30
79.98483835335774
11
1750.1844062437192
21
690.4771013950723
31
79.9848383533576
  0
LINE
 8
Différence
10
1749.990292470118
20
691.2015450671013
30
79.98483835335787
11
1750.1350367846103
21
690.8521008457132
31
79.98483835335774
  0
LINE
 8
Différence
10
1749.7600373833588
20
691.5016197541038
30
79.98483835335801
11
1749.990292470118
21
691.2015450671013
31
79.98483835335787
  0
LINE
 8
Différence
10
1749.1105186497236
20
691.8766198832589
30
79.98483835335814
11
1749.4599629719503
21
691.7318753114176
31
79.9848383533581
  0
LINE
 8
Différence
10
1748.735518763551
20
691.9259901660877
30
79.98483835335819
11
1749.1105186497236
21
691.8766198832589
31
79.98483835335814
  0
LINE
 8
Différence
10
1748.011073976611
20
691.7318762840356
30
79.9848383533581
11
1748.3605188160784
21
691.8766204880488
31
79.98483835335814
  0
LINE
 8
Différence
10
1748.6111833930636
20
689.0043093529072
30
79.99944943125617
11
1748.011074181528
21
689.2223264340076
31
79.98483835335713
  0
LINE
 8
Différence
10
1749.1105187122844
20
689.0775826685381
30
79.98483835335705
11
1748.6812142252627
21
689.0147186896515
31
79.99027454509812
  0
POLYLINE
 8
Différence
 66
     1
70
    8
 10
0.0
 20
 0.0
 30
0.0
  0
VERTEX
  8
MY3DLAYER
10
1462.375528294728
20
688.4771062979963
30
79.98483835335865
 70
     32
  0
VERTEX
  8
MY3DLAYER
10
1709.175528294728
20
688.4771062980237
30
79.98483835335765
 70
     32
  0
VERTEX
  8
MY3DLAYER
10
1709.1755282947288
20
682.4771062980237
30
79.98483835335563
 70
     32
  0
VERTEX
  8
MY3DLAYER
10
1462.3755282947293
20
682.4771062979963
30
79.98483835335627
 70
     32
  0
VERTEX
  8
MY3DLAYER
10
1462.375528294728
20
688.4771062979963
30
79.98483835335865
 70
     32
  0
SEQEND
  0
POLYLINE
 8
Différence
 66
     1
70
    8
 10
0.0
 20
 0.0
 30
0.0
  0
VERTEX
  8
MY3DLAYER
10
1671.6345880951237
20
684.6110808942351
30
79.98483835335604
 70
     32
  0
VERTEX
  8
MY3DLAYER
10
1671.8757690500213
20
684.5111804717309
30
79.98483835335593
 70
     32
  0
VERTEX
  8
MY3DLAYER
10
1672.1345880951237
20
684.4771062980196
30
79.98483835335594
 70
     32
  0
VERTEX
  8
MY3DLAYER
10
1672.3934071402261
20
684.5111804717305
30
79.98483835335593
 70
     32
  0
VERTEX
  8
MY3DLAYER
10
1672.6345880951235
20
684.6110808942356
30
79.98483835335604
 70
     32
  0
VERTEX
  8
MY3DLAYER
10
1672.8416948763102
20
684.7699995168331
30
79.98483835335603
 70
     32
  0
VERTEX
  8
MY3DLAYER
10
1673.000613498908
20
684.9771062980196
30
79.98483835335611
 70
     32
  0
VERTEX
  8
MY3DLAYER
10
1673.1005139214128
20
685.2182872529172
30
79.9848383533562
 70
     32
  0
VERTEX
  8
MY3DLAYER
10
1673.1345880951235
20
685.4771062980197
30
79.9848383533563
 70
     32
  0
VERTEX
  8
MY3DLAYER
10
1673.1005139214124
20
685.7359253431223
30
79.9848383533564
 70
     32
  0
VERTEX
  8
MY3DLAYER
10
1673.000613498908
20
685.9771062980197
30
79.9848383533565
 70
     32
  0
VERTEX
  8
MY3DLAYER
10
1672.8416948763102
20
686.1842130792062
30
79.98483835335664
 70
     32
  0
VERTEX
  8
MY3DLAYER
10
1672.634588095125
20
686.3431317018045
30
79.98483835335664
 70
     32
  0
VERTEX
  8
MY3DLAYER
10
1672.3934071402275
20
686.4430321243087
30
79.98483835335666
 70
     32
  0
VERTEX
  8
MY3DLAYER
10
1672.1345880951249
20
686.4771062980196
30
79.98483835335675
 70
     32
  0
VERTEX
  8
MY3DLAYER
10
1671.8757690500224
20
686.4430321243091
30
79.98483835335666
 70
     32
  0
VERTEX
  8
MY3DLAYER
10
1671.6345880951249
20
686.3431317018039
30
79.98483835335664
 70
     32
  0
VERTEX
  8
MY3DLAYER
10
1671.4274813139368
20
686.1842130792061
30
79.98483835335664
 70
     32
  0
VERTEX
  8
MY3DLAYER
10
1671.268562691339
20
685.9771062980195
30
79.9848383533565
 70
     32
  0
VERTEX
  8
MY3DLAYER
10
1671.1686622688346
20
685.735925343122
30
79.9848383533564
 70
     32
  0
VERTEX
  8
MY3DLAYER
10
1671.1345880951235
20
685.4771062980199
30
79.9848383533563
 70
     32
  0
VERTEX
  8
MY3DLAYER
10
1671.1686622688346
20
685.2182872529169
30
79.9848383533562
 70
     32
  0
VERTEX
  8
MY3DLAYER
10
1671.2685626913394
20
684.9771062980195
30
79.98483835335611
 70
     32
  0
VERTEX
  8
MY3DLAYER
10
1671.4274813139368
20
684.769999516833
30
79.98483835335603
 70
     32
  0
VERTEX
  8
MY3DLAYER
10
1671.6345880951237
20
684.6110808942351
30
79.98483835335604
 70
     32
  0
SEQEND
  0
POLYLINE
 8
Différence
 66
     1
70
    8
 10
0.0
 20
 0.0
 30
0.0
  0
VERTEX
  8
MY3DLAYER
10
1571.2685626913396
20
685.9771062980083
30
79.98483835335703
 70
     32
  0
VERTEX
  8
MY3DLAYER
10
1571.168662268835
20
685.7359253431107
30
79.98483835335693
 70
     32
  0
VERTEX
  8
MY3DLAYER
10
1571.134588095125
20
685.4771062980085
30
79.98483835335684
 70
     32
  0
VERTEX
  8
MY3DLAYER
10
1571.1686622688346
20
685.2182872529056
30
79.98483835335674
 70
     32
  0
VERTEX
  8
MY3DLAYER
10
1571.2685626913399
20
684.9771062980082
30
79.98483835335665
 70
     32
  0
VERTEX
  8
MY3DLAYER
10
1571.4274813139377
20
684.7699995168217
30
79.98483835335657
 70
     32
  0
VERTEX
  8
MY3DLAYER
10
1571.6345880951244
20
684.6110808942237
30
79.98483835335658
 70
     32
  0
VERTEX
  8
MY3DLAYER
10
1571.875769050022
20
684.5111804717196
30
79.98483835335647
 70
     32
  0
VERTEX
  8
MY3DLAYER
10
1572.1345880951244
20
684.4771062980083
30
79.98483835335648
 70
     32
  0
VERTEX
  8
MY3DLAYER
10
1572.393407140227
20
684.5111804717192
30
79.98483835335647
 70
     32
  0
VERTEX
  8
MY3DLAYER
10
1572.6345880951244
20
684.6110808942243
30
79.98483835335658
 70
     32
  0
VERTEX
  8
MY3DLAYER
10
1572.8416948763108
20
684.7699995168218
30
79.98483835335657
 70
     32
  0
VERTEX
  8
MY3DLAYER
10
1573.0006134989087
20
684.9771062980084
30
79.98483835335665
 70
     32
  0
VERTEX
  8
MY3DLAYER
10
1573.1005139214128
20
685.218287252906
30
79.98483835335674
 70
     32
  0
VERTEX
  8
MY3DLAYER
10
1573.1345880951249
20
685.4771062980085
30
79.98483835335684
 70
     32
  0
VERTEX
  8
MY3DLAYER
10
1573.1005139214133
20
685.735925343111
30
79.98483835335693
 70
     32
  0
VERTEX
  8
MY3DLAYER
10
1573.0006134989087
20
685.9771062980084
30
79.98483835335703
 70
     32
  0
VERTEX
  8
MY3DLAYER
10
1572.8416948763108
20
686.1842130791949
30
79.98483835335718
 70
     32
  0
VERTEX
  8
MY3DLAYER
10
1572.6345880951244
20
686.3431317017931
30
79.98483835335718
 70
     32
  0
VERTEX
  8
MY3DLAYER
10
1572.3934071402268
20
686.4430321242974
30
79.98483835335722
 70
     32
  0
VERTEX
  8
MY3DLAYER
10
1572.1345880951242
20
686.4771062980083
30
79.98483835335729
 70
     32
  0
VERTEX
  8
MY3DLAYER
10
1571.8757690500217
20
686.4430321242977
30
79.98483835335722
 70
     32
  0
VERTEX
  8
MY3DLAYER
10
1571.6345880951242
20
686.3431317017927
30
79.98483835335718
 70
     32
  0
VERTEX
  8
MY3DLAYER
10
1571.4274813139377
20
686.1842130791948
30
79.98483835335718
 70
     32
  0
VERTEX
  8
MY3DLAYER
10
1571.2685626913396
20
685.9771062980083
30
79.98483835335703
 70
     32
  0
SEQEND
  0
POLYLINE
 8
Différence
 66
     1
70
    8
 10
0.0
 20
 0.0
 30
0.0
  0
VERTEX
  8
MY3DLAYER
10
1471.875769050022
20
684.5111804717083
30
79.984838353357
 70
     32
  0
VERTEX
  8
MY3DLAYER
10
1472.1345880951244
20
684.477106297997
30
79.98483835335702
 70
     32
  0
VERTEX
  8
MY3DLAYER
10
1472.393407140227
20
684.5111804717079
30
79.984838353357
 70
     32
  0
VERTEX
  8
MY3DLAYER
10
1472.6345880951244
20
684.611080894213
30
79.98483835335712
 70
     32
  0
VERTEX
  8
MY3DLAYER
10
1472.8416948763108
20
684.7699995168106
30
79.9848383533571
 70
     32
  0
VERTEX
  8
MY3DLAYER
10
1473.0006134989087
20
684.9771062979971
30
79.98483835335719
 70
     32
  0
VERTEX
  8
MY3DLAYER
10
1473.1005139214128
20
685.2182872528946
30
79.98483835335728
 70
     32
  0
VERTEX
  8
MY3DLAYER
10
1473.1345880951249
20
685.4771062979971
30
79.98483835335738
 70
     32
  0
VERTEX
  8
MY3DLAYER
10
1473.1005139214133
20
685.7359253430997
30
79.98483835335749
 70
     32
  0
VERTEX
  8
MY3DLAYER
10
1473.0006134989087
20
685.9771062979971
30
79.98483835335757
 70
     32
  0
VERTEX
  8
MY3DLAYER
10
1472.8416948763108
20
686.1842130791837
30
79.98483835335772
 70
     32
  0
VERTEX
  8
MY3DLAYER
10
1472.6345880951244
20
686.3431317017819
30
79.98483835335772
 70
     32
  0
VERTEX
  8
MY3DLAYER
10
1472.3934071402268
20
686.4430321242861
30
79.98483835335776
 70
     32
  0
VERTEX
  8
MY3DLAYER
10
1472.1345880951242
20
686.477106297997
30
79.98483835335783
 70
     32
  0
VERTEX
  8
MY3DLAYER
10
1471.8757690500217
20
686.4430321242864
30
79.98483835335776
 70
     32
  0
VERTEX
  8
MY3DLAYER
10
1471.6345880951242
20
686.3431317017813
30
79.98483835335772
 70
     32
  0
VERTEX
  8
MY3DLAYER
10
1471.4274813139377
20
686.1842130791835
30
79.98483835335772
 70
     32
  0
VERTEX
  8
MY3DLAYER
10
1471.2685626913396
20
685.977106297997
30
79.98483835335757
 70
     32
  0
VERTEX
  8
MY3DLAYER
10
1471.168662268835
20
685.7359253430998
30
79.98483835335749
 70
     32
  0
VERTEX
  8
MY3DLAYER
10
1471.134588095125
20
685.4771062979972
30
79.98483835335738
 70
     32
  0
VERTEX
  8
MY3DLAYER
10
1471.1686622688346
20
685.2182872528947
30
79.98483835335728
 70
     32
  0
VERTEX
  8
MY3DLAYER
10
1471.2685626913399
20
684.9771062979969
30
79.98483835335719
 70
     32
  0
VERTEX
  8
MY3DLAYER
10
1471.4274813139377
20
684.7699995168103
30
79.9848383533571
 70
     32
  0
VERTEX
  8
MY3DLAYER
10
1471.6345880951244
20
684.6110808942125
30
79.98483835335712
 70
     32
  0
VERTEX
  8
MY3DLAYER
10
1471.875769050022
20
684.5111804717083
30
79.984838353357
 70
     32
  0
SEQEND
  0
POLYLINE
 8
Différence
 66
     1
70
    8
 10
0.0
 20
 0.0
 30
0.0
  0
VERTEX
  8
MY3DLAYER
10
1522.8416948763106
20
686.1842130791892
30
79.98483835335745
 70
     32
  0
VERTEX
  8
MY3DLAYER
10
1522.6345880951242
20
686.3431317017871
30
79.98483835335745
 70
     32
  0
VERTEX
  8
MY3DLAYER
10
1522.3934071402268
20
686.4430321242918
30
79.98483835335749
 70
     32
  0
VERTEX
  8
MY3DLAYER
10
1522.1345880951242
20
686.4771062980026
30
79.98483835335756
 70
     32
  0
VERTEX
  8
MY3DLAYER
10
1521.8757690500217
20
686.4430321242917
30
79.98483835335749
 70
     32
  0
VERTEX
  8
MY3DLAYER
10
1521.6345880951242
20
686.343131701787
30
79.98483835335745
 70
     32
  0
VERTEX
  8
MY3DLAYER
10
1521.4274813139377
20
686.1842130791896
30
79.98483835335745
 70
     32
  0
VERTEX
  8
MY3DLAYER
10
1521.2685626913399
20
685.9771062980026
30
79.9848383533573
 70
     32
  0
VERTEX
  8
MY3DLAYER
10
1521.168662268835
20
685.7359253431051
30
79.98483835335722
 70
     32
  0
VERTEX
  8
MY3DLAYER
10
1521.1345880951249
20
685.4771062980026
30
79.9848383533571
 70
     32
  0
VERTEX
  8
MY3DLAYER
10
1521.1686622688344
20
685.2182872529
30
79.984838353357
 70
     32
  0
VERTEX
  8
MY3DLAYER
10
1521.2685626913399
20
684.9771062980026
30
79.98483835335692
 70
     32
  0
VERTEX
  8
MY3DLAYER
10
1521.4274813139377
20
684.7699995168165
30
79.98483835335684
 70
     32
  0
VERTEX
  8
MY3DLAYER
10
1521.6345880951244
20
684.6110808942182
30
79.98483835335685
 70
     32
  0
VERTEX
  8
MY3DLAYER
10
1521.875769050022
20
684.5111804717135
30
79.98483835335674
 70
     32
  0
VERTEX
  8
MY3DLAYER
10
1522.1345880951244
20
684.4771062980026
30
79.98483835335675
 70
     32
  0
VERTEX
  8
MY3DLAYER
10
1522.393407140227
20
684.5111804717136
30
79.98483835335674
 70
     32
  0
VERTEX
  8
MY3DLAYER
10
1522.6345880951244
20
684.6110808942183
30
79.98483835335685
 70
     32
  0
VERTEX
  8
MY3DLAYER
10
1522.841694876311
20
684.7699995168161
30
79.98483835335684
 70
     32
  0
VERTEX
  8
MY3DLAYER
10
1523.0006134989087
20
684.9771062980028
30
79.98483835335692
 70
     32
  0
VERTEX
  8
MY3DLAYER
10
1523.1005139214126
20
685.2182872529006
30
79.984838353357
 70
     32
  0
VERTEX
  8
MY3DLAYER
10
1523.134588095125
20
685.4771062980032
30
79.9848383533571
 70
     32
  0
VERTEX
  8
MY3DLAYER
10
1523.1005139214133
20
685.7359253431057
30
79.98483835335722
 70
     32
  0
VERTEX
  8
MY3DLAYER
10
1523.0006134989087
20
685.9771062980027
30
79.9848383533573
 70
     32
  0
VERTEX
  8
MY3DLAYER
10
1522.8416948763106
20
686.1842130791892
30
79.98483835335745
 70
     32
  0
SEQEND
  0
POLYLINE
 8
Différence
 66
     1
70
    8
 10
0.0
 20
 0.0
 30
0.0
  0
VERTEX
  8
MY3DLAYER
10
1496.6345880951244
20
684.6110808942158
30
79.98483835335699
 70
     32
  0
VERTEX
  8
MY3DLAYER
10
1496.875769050022
20
684.5111804717108
30
79.98483835335688
 70
     32
  0
VERTEX
  8
MY3DLAYER
10
1497.1345880951244
20
684.4771062979999
30
79.98483835335689
 70
     32
  0
VERTEX
  8
MY3DLAYER
10
1497.393407140227
20
684.5111804717109
30
79.98483835335688
 70
     32
  0
VERTEX
  8
MY3DLAYER
10
1497.6345880951244
20
684.6110808942154
30
79.98483835335699
 70
     32
  0
VERTEX
  8
MY3DLAYER
10
1497.8416948763108
20
684.7699995168134
30
79.98483835335698
 70
     32
  0
VERTEX
  8
MY3DLAYER
10
1498.000613498909
20
684.9771062979999
30
79.98483835335705
 70
     32
  0
VERTEX
  8
MY3DLAYER
10
1498.1005139214128
20
685.2182872528974
30
79.98483835335715
 70
     32
  0
VERTEX
  8
MY3DLAYER
10
1498.134588095125
20
685.477106298
30
79.98483835335725
 70
     32
  0
VERTEX
  8
MY3DLAYER
10
1498.1005139214135
20
685.7359253431025
30
79.98483835335735
 70
     32
  0
VERTEX
  8
MY3DLAYER
10
1498.0006134989087
20
685.977106298
30
79.98483835335743
 70
     32
  0
VERTEX
  8
MY3DLAYER
10
1497.8416948763108
20
686.1842130791865
30
79.98483835335759
 70
     32
  0
VERTEX
  8
MY3DLAYER
10
1497.6345880951244
20
686.3431317017844
30
79.98483835335759
 70
     32
  0
VERTEX
  8
MY3DLAYER
10
1497.3934071402268
20
686.443032124289
30
79.98483835335762
 70
     32
  0
VERTEX
  8
MY3DLAYER
10
1497.1345880951244
20
686.4771062979999
30
79.9848383533577
 70
     32
  0
VERTEX
  8
MY3DLAYER
10
1496.8757690500217
20
686.443032124289
30
79.98483835335762
 70
     32
  0
VERTEX
  8
MY3DLAYER
10
1496.6345880951242
20
686.3431317017846
30
79.98483835335759
 70
     32
  0
VERTEX
  8
MY3DLAYER
10
1496.4274813139377
20
686.1842130791863
30
79.98483835335759
 70
     32
  0
VERTEX
  8
MY3DLAYER
10
1496.2685626913399
20
685.9771062979997
30
79.98483835335743
 70
     32
  0
VERTEX
  8
MY3DLAYER
10
1496.1686622688353
20
685.7359253431023
30
79.98483835335735
 70
     32
  0
VERTEX
  8
MY3DLAYER
10
1496.134588095125
20
685.4771062979997
30
79.98483835335725
 70
     32
  0
VERTEX
  8
MY3DLAYER
10
1496.1686622688346
20
685.2182872528972
30
79.98483835335715
 70
     32
  0
VERTEX
  8
MY3DLAYER
10
1496.2685626913399
20
684.9771062979999
30
79.98483835335705
 70
     32
  0
VERTEX
  8
MY3DLAYER
10
1496.427481313938
20
684.7699995168132
30
79.98483835335698
 70
     32
  0
VERTEX
  8
MY3DLAYER
10
1496.6345880951244
20
684.6110808942158
30
79.98483835335699
 70
     32
  0
SEQEND
  0
POLYLINE
 8
Différence
 66
     1
70
    8
 10
0.0
 20
 0.0
 30
0.0
  0
VERTEX
  8
MY3DLAYER
10
1546.6345880951244
20
684.611080894221
30
79.98483835335672
 70
     32
  0
VERTEX
  8
MY3DLAYER
10
1546.875769050022
20
684.5111804717163
30
79.98483835335661
 70
     32
  0
VERTEX
  8
MY3DLAYER
10
1547.1345880951244
20
684.4771062980059
30
79.98483835335661
 70
     32
  0
VERTEX
  8
MY3DLAYER
10
1547.393407140227
20
684.5111804717164
30
79.98483835335661
 70
     32
  0
VERTEX
  8
MY3DLAYER
10
1547.6345880951244
20
684.6110808942211
30
79.98483835335672
 70
     32
  0
VERTEX
  8
MY3DLAYER
10
1547.841694876311
20
684.7699995168194
30
79.98483835335671
 70
     32
  0
VERTEX
  8
MY3DLAYER
10
1548.000613498909
20
684.9771062980055
30
79.98483835335678
 70
     32
  0
VERTEX
  8
MY3DLAYER
10
1548.1005139214128
20
685.218287252903
30
79.98483835335688
 70
     32
  0
VERTEX
  8
MY3DLAYER
10
1548.134588095125
20
685.4771062980055
30
79.98483835335698
 70
     32
  0
VERTEX
  8
MY3DLAYER
10
1548.1005139214135
20
685.7359253431081
30
79.98483835335708
 70
     32
  0
VERTEX
  8
MY3DLAYER
10
1548.0006134989087
20
685.9771062980055
30
79.98483835335716
 70
     32
  0
VERTEX
  8
MY3DLAYER
10
1547.8416948763108
20
686.1842130791925
30
79.98483835335732
 70
     32
  0
VERTEX
  8
MY3DLAYER
10
1547.6345880951242
20
686.34313170179
30
79.98483835335732
 70
     32
  0
VERTEX
  8
MY3DLAYER
10
1547.3934071402268
20
686.4430321242946
30
79.98483835335735
 70
     32
  0
VERTEX
  8
MY3DLAYER
10
1547.1345880951244
20
686.4771062980059
30
79.98483835335743
 70
     32
  0
VERTEX
  8
MY3DLAYER
10
1546.8757690500217
20
686.4430321242945
30
79.98483835335735
 70
     32
  0
VERTEX
  8
MY3DLAYER
10
1546.6345880951242
20
686.3431317017898
30
79.98483835335732
 70
     32
  0
VERTEX
  8
MY3DLAYER
10
1546.4274813139377
20
686.184213079192
30
79.98483835335732
 70
     32
  0
VERTEX
  8
MY3DLAYER
10
1546.2685626913399
20
685.9771062980058
30
79.98483835335716
 70
     32
  0
VERTEX
  8
MY3DLAYER
10
1546.1686622688353
20
685.735925343108
30
79.98483835335708
 70
     32
  0
VERTEX
  8
MY3DLAYER
10
1546.1345880951249
20
685.4771062980054
30
79.98483835335698
 70
     32
  0
VERTEX
  8
MY3DLAYER
10
1546.1686622688344
20
685.2182872529029
30
79.98483835335688
 70
     32
  0
VERTEX
  8
MY3DLAYER
10
1546.2685626913399
20
684.9771062980058
30
79.98483835335678
 70
     32
  0
VERTEX
  8
MY3DLAYER
10
1546.427481313938
20
684.7699995168189
30
79.98483835335671
 70
     32
  0
VERTEX
  8
MY3DLAYER
10
1546.6345880951244
20
684.611080894221
30
79.98483835335672
 70
     32
  0
SEQEND
  0
POLYLINE
 8
Différence
 66
     1
70
    8
 10
0.0
 20
 0.0
 30
0.0
  0
VERTEX
  8
MY3DLAYER
10
1621.6345880951244
20
684.6110808942294
30
79.98483835335631
 70
     32
  0
VERTEX
  8
MY3DLAYER
10
1621.875769050022
20
684.5111804717249
30
79.9848383533562
 70
     32
  0
VERTEX
  8
MY3DLAYER
10
1622.1345880951244
20
684.477106298014
30
79.98483835335621
 70
     32
  0
VERTEX
  8
MY3DLAYER
10
1622.393407140227
20
684.5111804717249
30
79.9848383533562
 70
     32
  0
VERTEX
  8
MY3DLAYER
10
1622.6345880951244
20
684.6110808942295
30
79.98483835335631
 70
     32
  0
VERTEX
  8
MY3DLAYER
10
1622.8416948763108
20
684.7699995168274
30
79.9848383533563
 70
     32
  0
VERTEX
  8
MY3DLAYER
10
1623.0006134989087
20
684.9771062980144
30
79.98483835335638
 70
     32
  0
VERTEX
  8
MY3DLAYER
10
1623.1005139214133
20
685.2182872529119
30
79.98483835335647
 70
     32
  0
VERTEX
  8
MY3DLAYER
10
1623.1345880951242
20
685.4771062980144
30
79.98483835335657
 70
     32
  0
VERTEX
  8
MY3DLAYER
10
1623.1005139214133
20
685.735925343117
30
79.98483835335666
 70
     32
  0
VERTEX
  8
MY3DLAYER
10
1623.0006134989087
20
685.9771062980144
30
79.98483835335676
 70
     32
  0
VERTEX
  8
MY3DLAYER
10
1622.8416948763106
20
686.1842130792005
30
79.9848383533569
 70
     32
  0
VERTEX
  8
MY3DLAYER
10
1622.6345880951242
20
686.3431317017985
30
79.9848383533569
 70
     32
  0
VERTEX
  8
MY3DLAYER
10
1622.3934071402268
20
686.443032124303
30
79.98483835335693
 70
     32
  0
VERTEX
  8
MY3DLAYER
10
1622.1345880951242
20
686.477106298014
30
79.98483835335702
 70
     32
  0
VERTEX
  8
MY3DLAYER
10
1621.8757690500217
20
686.4430321243029
30
79.98483835335693
 70
     32
  0
VERTEX
  8
MY3DLAYER
10
1621.6345880951242
20
686.3431317017984
30
79.9848383533569
 70
     32
  0
VERTEX
  8
MY3DLAYER
10
1621.4274813139377
20
686.1842130792008
30
79.9848383533569
 70
     32
  0
VERTEX
  8
MY3DLAYER
10
1621.2685626913399
20
685.9771062980138
30
79.98483835335676
 70
     32
  0
VERTEX
  8
MY3DLAYER
10
1621.168662268835
20
685.7359253431164
30
79.98483835335666
 70
     32
  0
VERTEX
  8
MY3DLAYER
10
1621.1345880951242
20
685.4771062980138
30
79.98483835335657
 70
     32
  0
VERTEX
  8
MY3DLAYER
10
1621.1686622688353
20
685.2182872529113
30
79.98483835335647
 70
     32
  0
VERTEX
  8
MY3DLAYER
10
1621.2685626913399
20
684.9771062980138
30
79.98483835335638
 70
     32
  0
VERTEX
  8
MY3DLAYER
10
1621.4274813139377
20
684.7699995168277
30
79.9848383533563
 70
     32
  0
VERTEX
  8
MY3DLAYER
10
1621.6345880951244
20
684.6110808942294
30
79.98483835335631
 70
     32
  0
SEQEND
  0
POLYLINE
 8
Différence
 66
     1
70
    8
 10
0.0
 20
 0.0
 30
0.0
  0
VERTEX
  8
MY3DLAYER
10
1597.1345880951244
20
686.4771062980111
30
79.98483835335716
 70
     32
  0
VERTEX
  8
MY3DLAYER
10
1596.8757690500217
20
686.4430321243002
30
79.98483835335708
 70
     32
  0
VERTEX
  8
MY3DLAYER
10
1596.6345880951242
20
686.3431317017959
30
79.98483835335705
 70
     32
  0
VERTEX
  8
MY3DLAYER
10
1596.4274813139377
20
686.1842130791975
30
79.98483835335705
 70
     32
  0
VERTEX
  8
MY3DLAYER
10
1596.2685626913399
20
685.977106298011
30
79.98483835335689
 70
     32
  0
VERTEX
  8
MY3DLAYER
10
1596.1686622688353
20
685.7359253431135
30
79.9848383533568
 70
     32
  0
VERTEX
  8
MY3DLAYER
10
1596.134588095125
20
685.477106298011
30
79.98483835335671
 70
     32
  0
VERTEX
  8
MY3DLAYER
10
1596.1686622688346
20
685.2182872529085
30
79.98483835335661
 70
     32
  0
VERTEX
  8
MY3DLAYER
10
1596.2685626913399
20
684.9771062980111
30
79.98483835335651
 70
     32
  0
VERTEX
  8
MY3DLAYER
10
1596.427481313938
20
684.7699995168244
30
79.98483835335644
 70
     32
  0
VERTEX
  8
MY3DLAYER
10
1596.6345880951244
20
684.611080894227
30
79.98483835335645
 70
     32
  0
VERTEX
  8
MY3DLAYER
10
1596.875769050022
20
684.511180471722
30
79.98483835335634
 70
     32
  0
VERTEX
  8
MY3DLAYER
10
1597.1345880951244
20
684.4771062980111
30
79.98483835335634
 70
     32
  0
VERTEX
  8
MY3DLAYER
10
1597.393407140227
20
684.5111804717225
30
79.98483835335634
 70
     32
  0
VERTEX
  8
MY3DLAYER
10
1597.6345880951244
20
684.6110808942268
30
79.98483835335645
 70
     32
  0
VERTEX
  8
MY3DLAYER
10
1597.8416948763108
20
684.7699995168247
30
79.98483835335644
 70
     32
  0
VERTEX
  8
MY3DLAYER
10
1598.000613498909
20
684.9771062980112
30
79.98483835335651
 70
     32
  0
VERTEX
  8
MY3DLAYER
10
1598.1005139214128
20
685.2182872529087
30
79.98483835335661
 70
     32
  0
VERTEX
  8
MY3DLAYER
10
1598.134588095125
20
685.4771062980112
30
79.98483835335671
 70
     32
  0
VERTEX
  8
MY3DLAYER
10
1598.1005139214135
20
685.7359253431138
30
79.9848383533568
 70
     32
  0
VERTEX
  8
MY3DLAYER
10
1598.0006134989087
20
685.9771062980112
30
79.98483835335689
 70
     32
  0
VERTEX
  8
MY3DLAYER
10
1597.8416948763108
20
686.1842130791978
30
79.98483835335705
 70
     32
  0
VERTEX
  8
MY3DLAYER
10
1597.6345880951244
20
686.3431317017956
30
79.98483835335705
 70
     32
  0
VERTEX
  8
MY3DLAYER
10
1597.3934071402268
20
686.4430321243007
30
79.98483835335708
 70
     32
  0
VERTEX
  8
MY3DLAYER
10
1597.1345880951244
20
686.4771062980111
30
79.98483835335716
 70
     32
  0
SEQEND
  0
POLYLINE
 8
Différence
 66
     1
70
    8
 10
0.0
 20
 0.0
 30
0.0
  0
VERTEX
  8
MY3DLAYER
10
1697.8416948763102
20
684.7699995168359
30
79.9848383533559
 70
     32
  0
VERTEX
  8
MY3DLAYER
10
1698.0006134989083
20
684.9771062980225
30
79.98483835335597
 70
     32
  0
VERTEX
  8
MY3DLAYER
10
1698.1005139214126
20
685.2182872529199
30
79.98483835335607
 70
     32
  0
VERTEX
  8
MY3DLAYER
10
1698.1345880951235
20
685.4771062980225
30
79.98483835335617
 70
     32
  0
VERTEX
  8
MY3DLAYER
10
1698.1005139214126
20
685.735925343125
30
79.98483835335627
 70
     32
  0
VERTEX
  8
MY3DLAYER
10
1698.0006134989083
20
685.9771062980225
30
79.98483835335635
 70
     32
  0
VERTEX
  8
MY3DLAYER
10
1697.84169487631
20
686.184213079209
30
79.98483835335651
 70
     32
  0
VERTEX
  8
MY3DLAYER
10
1697.6345880951249
20
686.3431317018069
30
79.98483835335651
 70
     32
  0
VERTEX
  8
MY3DLAYER
10
1697.3934071402275
20
686.4430321243119
30
79.98483835335654
 70
     32
  0
VERTEX
  8
MY3DLAYER
10
1697.1345880951249
20
686.4771062980224
30
79.98483835335661
 70
     32
  0
VERTEX
  8
MY3DLAYER
10
1696.8757690500224
20
686.4430321243115
30
79.98483835335654
 70
     32
  0
VERTEX
  8
MY3DLAYER
10
1696.634588095125
20
686.3431317018072
30
79.98483835335651
 70
     32
  0
VERTEX
  8
MY3DLAYER
10
1696.427481313937
20
686.1842130792088
30
79.98483835335651
 70
     32
  0
VERTEX
  8
MY3DLAYER
10
1696.268562691339
20
685.9771062980224
30
79.98483835335635
 70
     32
  0
VERTEX
  8
MY3DLAYER
10
1696.1686622688346
20
685.7359253431249
30
79.98483835335627
 70
     32
  0
VERTEX
  8
MY3DLAYER
10
1696.1345880951237
20
685.4771062980222
30
79.98483835335617
 70
     32
  0
VERTEX
  8
MY3DLAYER
10
1696.1686622688346
20
685.2182872529198
30
79.98483835335607
 70
     32
  0
VERTEX
  8
MY3DLAYER
10
1696.268562691339
20
684.9771062980224
30
79.98483835335597
 70
     32
  0
VERTEX
  8
MY3DLAYER
10
1696.427481313937
20
684.7699995168357
30
79.9848383533559
 70
     32
  0
VERTEX
  8
MY3DLAYER
10
1696.634588095124
20
684.6110808942383
30
79.9848383533559
 70
     32
  0
VERTEX
  8
MY3DLAYER
10
1696.8757690500215
20
684.5111804717333
30
79.9848383533558
 70
     32
  0
VERTEX
  8
MY3DLAYER
10
1697.1345880951237
20
684.4771062980224
30
79.9848383533558
 70
     32
  0
VERTEX
  8
MY3DLAYER
10
1697.3934071402261
20
684.5111804717337
30
79.9848383533558
 70
     32
  0
VERTEX
  8
MY3DLAYER
10
1697.6345880951237
20
684.6110808942381
30
79.9848383533559
 70
     32
  0
VERTEX
  8
MY3DLAYER
10
1697.8416948763102
20
684.7699995168359
30
79.9848383533559
 70
     32
  0
SEQEND
  0
POLYLINE
 8
Différence
 66
     1
70
    8
 10
0.0
 20
 0.0
 30
0.0
  0
VERTEX
  8
MY3DLAYER
10
1647.3934071402266
20
684.5111804717277
30
79.98483835335607
 70
     32
  0
VERTEX
  8
MY3DLAYER
10
1647.6345880951235
20
684.6110808942324
30
79.98483835335618
 70
     32
  0
VERTEX
  8
MY3DLAYER
10
1647.8416948763104
20
684.7699995168307
30
79.98483835335617
 70
     32
  0
VERTEX
  8
MY3DLAYER
10
1648.000613498908
20
684.9771062980169
30
79.98483835335624
 70
     32
  0
VERTEX
  8
MY3DLAYER
10
1648.1005139214128
20
685.2182872529143
30
79.98483835335634
 70
     32
  0
VERTEX
  8
MY3DLAYER
10
1648.1345880951237
20
685.4771062980168
30
79.98483835335644
 70
     32
  0
VERTEX
  8
MY3DLAYER
10
1648.1005139214128
20
685.7359253431193
30
79.98483835335654
 70
     32
  0
VERTEX
  8
MY3DLAYER
10
1648.000613498908
20
685.9771062980168
30
79.98483835335662
 70
     32
  0
VERTEX
  8
MY3DLAYER
10
1647.84169487631
20
686.1842130792038
30
79.98483835335678
 70
     32
  0
VERTEX
  8
MY3DLAYER
10
1647.6345880951249
20
686.3431317018012
30
79.98483835335678
 70
     32
  0
VERTEX
  8
MY3DLAYER
10
1647.3934071402275
20
686.4430321243059
30
79.9848383533568
 70
     32
  0
VERTEX
  8
MY3DLAYER
10
1647.134588095125
20
686.4771062980171
30
79.98483835335689
 70
     32
  0
VERTEX
  8
MY3DLAYER
10
1646.8757690500224
20
686.4430321243058
30
79.9848383533568
 70
     32
  0
VERTEX
  8
MY3DLAYER
10
1646.6345880951249
20
686.3431317018011
30
79.98483835335678
 70
     32
  0
VERTEX
  8
MY3DLAYER
10
1646.4274813139368
20
686.1842130792032
30
79.98483835335678
 70
     32
  0
VERTEX
  8
MY3DLAYER
10
1646.2685626913392
20
685.9771062980171
30
79.98483835335662
 70
     32
  0
VERTEX
  8
MY3DLAYER
10
1646.1686622688344
20
685.7359253431193
30
79.98483835335654
 70
     32
  0
VERTEX
  8
MY3DLAYER
10
1646.1345880951235
20
685.4771062980167
30
79.98483835335644
 70
     32
  0
VERTEX
  8
MY3DLAYER
10
1646.1686622688344
20
685.2182872529143
30
79.98483835335634
 70
     32
  0
VERTEX
  8
MY3DLAYER
10
1646.2685626913392
20
684.977106298017
30
79.98483835335624
 70
     32
  0
VERTEX
  8
MY3DLAYER
10
1646.4274813139373
20
684.7699995168301
30
79.98483835335617
 70
     32
  0
VERTEX
  8
MY3DLAYER
10
1646.6345880951237
20
684.6110808942323
30
79.98483835335618
 70
     32
  0
VERTEX
  8
MY3DLAYER
10
1646.8757690500213
20
684.5111804717276
30
79.98483835335607
 70
     32
  0
VERTEX
  8
MY3DLAYER
10
1647.1345880951235
20
684.4771062980171
30
79.98483835335607
 70
     32
  0
VERTEX
  8
MY3DLAYER
10
1647.3934071402266
20
684.5111804717277
30
79.98483835335607
 70
     32
  0
SEQEND
  0
POLYLINE
 8
Différence
 66
     1
70
    8
 10
0.0
 20
 0.0
 30
0.0
  0
VERTEX
  8
MY3DLAYER
10
1412.046729679223
20
709.1233652945092
30
79.98483835336687
 70
     32
  0
VERTEX
  8
MY3DLAYER
10
1412.046729679221
20
714.0453652945101
30
79.98483835336877
 70
     32
  0
VERTEX
  8
MY3DLAYER
10
1416.3093067166496
20
716.5063652945103
30
79.98483835336974
 70
     32
  0
VERTEX
  8
MY3DLAYER
10
1420.5718837540787
20
714.0453652945106
30
79.98483835336877
 70
     32
  0
VERTEX
  8
MY3DLAYER
10
1420.571883754079
20
709.123365294511
30
79.98483835336687
 70
     32
  0
VERTEX
  8
MY3DLAYER
10
1416.3093067166515
20
706.6623652945099
30
79.98483835336592
 70
     32
  0
VERTEX
  8
MY3DLAYER
10
1412.046729679223
20
709.1233652945092
30
79.98483835336687
 70
     32
  0
SEQEND
  0
POLYLINE
 8
Différence
 66
     1
70
    8
 10
0.0
 20
 0.0
 30
0.0
  0
VERTEX
  8
MY3DLAYER
10
1414.3526328748094
20
710.0327585451282
30
79.98483835336667
 70
     32
  0
VERTEX
  8
MY3DLAYER
10
1414.7844698413353
20
709.6003533645082
30
79.98483835336647
 70
     32
  0
VERTEX
  8
MY3DLAYER
10
1415.3494501678879
20
709.2736663552857
30
79.98483835336637
 70
     32
  0
VERTEX
  8
MY3DLAYER
10
1415.9797320764258
20
709.104338604585
30
79.9848383533663
 70
     32
  0
VERTEX
  8
MY3DLAYER
10
1416.6323628964706
20
709.1039095187886
30
79.9848383533663
 70
     32
  0
VERTEX
  8
MY3DLAYER
10
1417.262866916159
20
709.2724083393845
30
79.98483835336637
 70
     32
  0
VERTEX
  8
MY3DLAYER
10
1417.8282763285088
20
709.5983521502066
30
79.98483835336646
 70
     32
  0
VERTEX
  8
MY3DLAYER
10
1418.2900594164503
20
710.0595284191953
30
79.98483835336663
 70
     32
  0
VERTEX
  8
MY3DLAYER
10
1418.6167464256728
20
710.6245087457481
30
79.9848383533669
 70
     32
  0
VERTEX
  8
MY3DLAYER
10
1418.7860741763736
20
711.2547906542854
30
79.98483835336712
 70
     32
  0
VERTEX
  8
MY3DLAYER
10
1418.7865032621698
20
711.90742147433
30
79.9848383533674
 70
     32
  0
VERTEX
  8
MY3DLAYER
10
1418.6180044415737
20
712.5379254940192
30
79.98483835336762
 70
     32
  0
VERTEX
  8
MY3DLAYER
10
1418.2920606307518
20
713.1033349063689
30
79.98483835336782
 70
     32
  0
VERTEX
  8
MY3DLAYER
10
1418.2623452925864
20
713.1330893441834
30
79.98483835336786
 70
     32
  0
VERTEX
  8
MY3DLAYER
10
1417.8308843617635
20
713.5651179943098
30
79.98483835336799
 70
     32
  0
VERTEX
  8
MY3DLAYER
10
1417.2659040352105
20
713.8918050035323
30
79.98483835336815
 70
     32
  0
VERTEX
  8
MY3DLAYER
10
1416.635622126673
20
714.0611327542333
30
79.9848383533682
 70
     32
  0
VERTEX
  8
MY3DLAYER
10
1415.9829913066283
20
714.0615618400298
30
79.9848383533682
 70
     32
  0
VERTEX
  8
MY3DLAYER
10
1415.3524872869393
20
713.8930630194336
30
79.98483835336815
 70
     32
  0
VERTEX
  8
MY3DLAYER
10
1414.78707787459
20
713.5671192086115
30
79.98483835336799
 70
     32
  0
VERTEX
  8
MY3DLAYER
10
1414.3252947866486
20
713.1059429396231
30
79.98483835336782
 70
     32
  0
VERTEX
  8
MY3DLAYER
10
1413.9986077774256
20
712.54096261307
30
79.98483835336762
 70
     32
  0
VERTEX
  8
MY3DLAYER
10
1413.8292800267254
20
711.9106807045328
30
79.9848383533674
 70
     32
  0
VERTEX
  8
MY3DLAYER
10
1413.828850940929
20
711.2580498844881
30
79.98483835336711
 70
     32
  0
VERTEX
  8
MY3DLAYER
10
1413.9973497615247
20
710.6275458647989
30
79.9848383533669
 70
     32
  0
VERTEX
  8
MY3DLAYER
10
1414.323293572347
20
710.0621364524495
30
79.98483835336664
 70
     32
  0
VERTEX
  8
MY3DLAYER
10
1414.3526328748094
20
710.0327585451282
30
79.98483835336667
 70
     32
  0
SEQEND
  0
POLYLINE
 8
Différence
 66
     1
70
    8
 10
0.0
 20
 0.0
 30
0.0
  0
VERTEX
  8
MY3DLAYER
10
1454.5487152781457
20
714.7771038801874
30
79.98483835336836
 70
     32
  0
VERTEX
  8
MY3DLAYER
10
1454.548715278147
20
701.9771038801873
30
79.98483835336346
 70
     32
  0
VERTEX
  8
MY3DLAYER
10
1746.7663575322815
20
701.9771038802205
30
79.98483835336225
 70
     32
  0
VERTEX
  8
MY3DLAYER
10
1747.418988493382
20
702.0198795733515
30
79.98483835336225
 70
     32
  0
VERTEX
  8
MY3DLAYER
10
1748.0604527577943
20
702.1474747487753
30
79.9848383533623
 70
     32
  0
VERTEX
  8
MY3DLAYER
10
1748.679774694108
20
702.3577062176644
30
79.9848383533624
 70
     32
  0
VERTEX
  8
MY3DLAYER
10
1749.2663575322824
20
702.6469768612985
30
79.98483835336252
 70
     32
  0
VERTEX
  8
MY3DLAYER
10
1749.810164677326
20
703.0103371787646
30
79.9848383533627
 70
     32
  0
VERTEX
  8
MY3DLAYER
10
1750.301891438215
20
703.4415699742883
30
79.98483835336292
 70
     32
  0
VERTEX
  8
MY3DLAYER
10
1750.7331242337375
20
703.9332967351772
30
79.98483835336316
 70
     32
  0
VERTEX
  8
MY3DLAYER
10
1751.0964845512035
20
704.4771038802211
30
79.98483835336343
 70
     32
  0
VERTEX
  8
MY3DLAYER
10
1751.3857551948377
20
705.0636867183955
30
79.98483835336371
 70
     32
  0
VERTEX
  8
MY3DLAYER
10
1751.595986663727
20
705.6830086547084
30
79.98483835336395
 70
     32
  0
VERTEX
  8
MY3DLAYER
10
1751.723581839151
20
706.3244729191208
30
79.98483835336425
 70
     32
  0
VERTEX
  8
MY3DLAYER
10
1751.766357532281
20
706.9771038802212
30
79.9848383533646
 70
     32
  0
VERTEX
  8
MY3DLAYER
10
1751.7663575322815
20
708.9556868798952
30
79.98483835336545
 70
     32
  0
VERTEX
  8
MY3DLAYER
10
1751.8091332254123
20
709.6083178409956
30
79.98483835336573
 70
     32
  0
VERTEX
  8
MY3DLAYER
10
1751.9367284008354
20
710.2497821054077
30
79.98483835336596
 70
     32
  0
VERTEX
  8
MY3DLAYER
10
1752.1469598697242
20
710.8691040417206
30
79.98483835336614
 70
     32
  0
VERTEX
  8
MY3DLAYER
10
1752.4362305133584
20
711.4556868798951
30
79.98483835336633
 70
     32
  0
VERTEX
  8
MY3DLAYER
10
1752.7995908308253
20
711.9994940249387
30
79.98483835336654
 70
     32
  0
VERTEX
  8
MY3DLAYER
10
1753.2308236263486
20
712.491220785828
30
79.98483835336667
 70
     32
  0
VERTEX
  8
MY3DLAYER
10
1753.7225503872376
20
712.9224535813515
30
79.98483835336675
 70
     32
  0
VERTEX
  8
MY3DLAYER
10
1754.2663575322813
20
713.2858138988178
30
79.98483835336685
 70
     32
  0
VERTEX
  8
MY3DLAYER
10
1754.852940370455
20
713.5750845424518
30
79.98483835336692
 70
     32
  0
VERTEX
  8
MY3DLAYER
10
1755.4722623067678
20
713.7853160113408
30
79.98483835336691
 70
     32
  0
VERTEX
  8
MY3DLAYER
10
1756.1137265711802
20
713.9129111867646
30
79.98483835336691
 70
     32
  0
VERTEX
  8
MY3DLAYER
10
1756.7663575322804
20
713.9556868798956
30
79.98483835336687
 70
     32
  0
VERTEX
  8
MY3DLAYER
10
1757.223708807865
20
713.9556868798943
30
79.9848383533667
 70
     32
  0
VERTEX
  8
MY3DLAYER
10
1762.223708807865
20
713.9556868798965
30
79.98483835336687
 70
     32
  0
VERTEX
  8
MY3DLAYER
10
1762.2237088078682
20
684.792376104921
30
79.98483835335551
 70
     32
  0
VERTEX
  8
MY3DLAYER
10
1807.5372819756253
20
684.792376104926
30
79.9848383533553
 70
     32
  0
VERTEX
  8
MY3DLAYER
10
1807.5372819756242
20
682.2212445542102
30
79.98483835334704
 70
     32
  0
VERTEX
  8
MY3DLAYER
10
1788.7079673173444
20
682.2212445542061
30
79.98483835336053
 70
     32
  0
VERTEX
  8
MY3DLAYER
10
1788.6860297648752
20
672.2212445542064
30
79.98483835336542
 70
     32
  0
VERTEX
  8
MY3DLAYER
10
1807.537281975627
20
672.2012445542102
30
79.98483835336076
 70
     32
  0
VERTEX
  8
MY3DLAYER
10
1807.537281975627
20
671.9771038802273
30
79.9848383533503
 70
     32
  0
VERTEX
  8
MY3DLAYER
10
1807.4945062824968
20
671.324472919127
30
79.98483835335003
 70
     32
  0
VERTEX
  8
MY3DLAYER
10
1807.3669111070733
20
670.6830086547147
30
79.98483835334977
 70
     32
  0
VERTEX
  8
MY3DLAYER
10
1807.156679638184
20
670.0636867184018
30
79.98483835334956
 70
     32
  0
VERTEX
  8
MY3DLAYER
10
1806.8674089945496
20
669.4771038802272
30
79.98483835334935
 70
     32
  0
VERTEX
  8
MY3DLAYER
10
1806.5040486770833
20
668.9332967351836
30
79.98483835334912
 70
     32
  0
VERTEX
  8
MY3DLAYER
10
1806.0728158815607
20
668.4415699742945
30
79.9848383533489
 70
     32
  0
VERTEX
  8
MY3DLAYER
10
1805.5810891206718
20
668.0103371787709
30
79.98483835334875
 70
     32
  0
VERTEX
  8
MY3DLAYER
10
1805.037281975628
20
667.6469768613048
30
79.98483835334864
 70
     32
  0
VERTEX
  8
MY3DLAYER
10
1804.4506991374535
20
667.3577062176705
30
79.9848383533485
 70
     32
  0
VERTEX
  8
MY3DLAYER
10
1803.8313772011409
20
667.1474747487817
30
79.98483835334844
 70
     32
  0
VERTEX
  8
MY3DLAYER
10
1803.1899129367284
20
667.0198795733577
30
79.9848383533484
 70
     32
  0
VERTEX
  8
MY3DLAYER
10
1802.5372819756276
20
666.9771038802268
30
79.98483835334835
 70
     32
  0
VERTEX
  8
MY3DLAYER
10
1407.807645107369
20
666.9771038801822
30
79.98483835335043
 70
     32
  0
VERTEX
  8
MY3DLAYER
10
1407.1550141462687
20
667.0198795733132
30
79.98483835335047
 70
     32
  0
VERTEX
  8
MY3DLAYER
10
1406.5135498818563
20
667.1474747487367
30
79.98483835335051
 70
     32
  0
VERTEX
  8
MY3DLAYER
10
1405.894227945544
20
667.3577062176255
30
79.98483835335057
 70
     32
  0
VERTEX
  8
MY3DLAYER
10
1405.3076451073682
20
667.6469768612596
30
79.98483835335071
 70
     32
  0
VERTEX
  8
MY3DLAYER
10
1404.7638379623252
20
668.0103371787259
30
79.98483835335082
 70
     32
  0
VERTEX
  8
MY3DLAYER
10
1404.2721112014362
20
668.441569974249
30
79.98483835335098
 70
     32
  0
VERTEX
  8
MY3DLAYER
10
1403.8408784059125
20
668.9332967351384
30
79.9848383533512
 70
     32
  0
VERTEX
  8
MY3DLAYER
10
1403.4775180884467
20
669.4771038801816
30
79.98483835335142
 70
     32
  0
VERTEX
  8
MY3DLAYER
10
1403.1882474448123
20
670.0636867183563
30
79.98483835335163
 70
     32
  0
VERTEX
  8
MY3DLAYER
10
1402.9780159759237
20
670.6830086546689
30
79.98483835335186
 70
     32
  0
VERTEX
  8
MY3DLAYER
10
1402.8504208004993
20
671.3244729190814
30
79.9848383533521
 70
     32
  0
VERTEX
  8
MY3DLAYER
10
1402.807645107368
20
671.9771038801815
30
79.98483835335237
 70
     32
  0
VERTEX
  8
MY3DLAYER
10
1402.8076451073632
20
714.7771038801817
30
79.98483835336849
 70
     32
  0
VERTEX
  8
MY3DLAYER
10
1402.8504208004942
20
715.429734841282
30
79.98483835336872
 70
     32
  0
VERTEX
  8
MY3DLAYER
10
1402.9780159759184
20
716.0711991056942
30
79.98483835336897
 70
     32
  0
VERTEX
  8
MY3DLAYER
10
1403.188247444807
20
716.6905210420074
30
79.98483835336923
 70
     32
  0
VERTEX
  8
MY3DLAYER
10
1403.4775180884405
20
717.2771038801817
30
79.98483835336944
 70
     32
  0
VERTEX
  8
MY3DLAYER
10
1403.840878405907
20
717.8209110252254
30
79.98483835336964
 70
     32
  0
VERTEX
  8
MY3DLAYER
10
1404.2721112014306
20
718.3126377861146
30
79.98483835336984
 70
     32
  0
VERTEX
  8
MY3DLAYER
10
1404.7638379623197
20
718.7438705816382
30
79.98483835337002
 70
     32
  0
VERTEX
  8
MY3DLAYER
10
1405.3076451073632
20
719.1072308991041
30
79.98483835337014
 70
     32
  0
VERTEX
  8
MY3DLAYER
10
1405.894227945538
20
719.3965015427384
30
79.98483835337025
 70
     32
  0
VERTEX
  8
MY3DLAYER
10
1406.5135498818504
20
719.6067330116274
30
79.98483835337034
 70
     32
  0
VERTEX
  8
MY3DLAYER
10
1407.1550141462628
20
719.7343281870513
30
79.9848383533704
 70
     32
  0
VERTEX
  8
MY3DLAYER
10
1407.807645107363
20
719.7771038801822
30
79.98483835337042
 70
     32
  0
VERTEX
  8
MY3DLAYER
10
1424.3487152781454
20
719.777103880184
30
79.98483835337038
 70
     32
  0
VERTEX
  8
MY3DLAYER
10
1449.548715278145
20
719.777103880187
30
79.98483835337038
 70
     32
  0
VERTEX
  8
MY3DLAYER
10
1450.2013462392451
20
719.734328187056
30
79.98483835337036
 70
     32
  0
VERTEX
  8
MY3DLAYER
10
1450.8428105036576
20
719.6067330116323
30
79.9848383533703
 70
     32
  0
VERTEX
  8
MY3DLAYER
10
1451.4621324399707
20
719.3965015427434
30
79.98483835337021
 70
     32
  0
VERTEX
  8
MY3DLAYER
10
1452.0487152781457
20
719.1072308991093
30
79.9848383533701
 70
     32
  0
VERTEX
  8
MY3DLAYER
10
1452.5925224231887
20
718.7438705816434
30
79.98483835336998
 70
     32
  0
VERTEX
  8
MY3DLAYER
10
1453.0842491840779
20
718.3126377861199
30
79.98483835336974
 70
     32
  0
VERTEX
  8
MY3DLAYER
10
1453.5154819796014
20
717.820911025231
30
79.98483835336955
 70
     32
  0
VERTEX
  8
MY3DLAYER
10
1453.878842297067
20
717.2771038801873
30
79.98483835336935
 70
     32
  0
VERTEX
  8
MY3DLAYER
10
1454.1681129407018
20
716.6905210420127
30
79.98483835336914
 70
     32
  0
VERTEX
  8
MY3DLAYER
10
1454.3783444095907
20
716.0711991057001
30
79.98483835336887
 70
     32
  0
VERTEX
  8
MY3DLAYER
10
1454.5059395850146
20
715.4297348412875
30
79.98483835336859
 70
     32
  0
VERTEX
  8
MY3DLAYER
10
1454.5487152781457
20
714.7771038801874
30
79.98483835336836
 70
     32
  0
SEQEND
  0
POLYLINE
 8
Différence
 66
     1
70
    8
 10
0.0
 20
 0.0
 30
0.0
  0
VERTEX
  8
MY3DLAYER
10
1455.3236145558446
20
694.5442208641917
30
79.98483835336083
 70
     32
  0
VERTEX
  8
MY3DLAYER
10
1455.1264412420921
20
694.557564989975
30
79.98483835336076
 70
     32
  0
VERTEX
  8
MY3DLAYER
10
1455.063157960993
20
694.561847821393
30
79.98483835336076
 70
     32
  0
VERTEX
  8
MY3DLAYER
10
1454.8070140171678
20
694.5114630274218
30
79.98483835336073
 70
     32
  0
VERTEX
  8
MY3DLAYER
10
1454.5726385108428
20
694.3965001227232
30
79.98483835336067
 70
     32
  0
VERTEX
  8
MY3DLAYER
10
1454.37600374545
20
694.2247936392677
30
79.98483835336062
 70
     32
  0
VERTEX
  8
MY3DLAYER
10
1454.230510055297
20
694.008045090143
30
79.98483835336054
 70
     32
  0
VERTEX
  8
MY3DLAYER
10
1454.1460725949275
20
693.7610255307793
30
79.98483835336044
 70
     32
  0
VERTEX
  8
MY3DLAYER
10
1454.1327284691451
20
693.5638522170268
30
79.98483835336037
 70
     32
  0
VERTEX
  8
MY3DLAYER
10
1454.128445637727
20
693.5005689359276
30
79.98483835336042
 70
     32
  0
VERTEX
  8
MY3DLAYER
10
1454.178830431697
20
693.2444249921024
30
79.98483835336027
 70
     32
  0
VERTEX
  8
MY3DLAYER
10
1454.293793336396
20
693.0100494857777
30
79.98483835336017
 70
     32
  0
VERTEX
  8
MY3DLAYER
10
1454.4654998198519
20
692.8134147203846
30
79.98483835336008
 70
     32
  0
VERTEX
  8
MY3DLAYER
10
1454.6822483689762
20
692.6679210302315
30
79.98483835336009
 70
     32
  0
VERTEX
  8
MY3DLAYER
10
1454.9292679283399
20
692.583483569862
30
79.98483835335999
 70
     32
  0
VERTEX
  8
MY3DLAYER
10
1455.1264412420924
20
692.5701394440796
30
79.98483835335999
 70
     32
  0
VERTEX
  8
MY3DLAYER
10
1455.1897245231917
20
692.5658566126615
30
79.98483835336006
 70
     32
  0
VERTEX
  8
MY3DLAYER
10
1455.445868467017
20
692.6162414066322
30
79.98483835336008
 70
     32
  0
VERTEX
  8
MY3DLAYER
10
1455.680243973342
20
692.7312043113307
30
79.9848383533601
 70
     32
  0
VERTEX
  8
MY3DLAYER
10
1455.8768787387346
20
692.902910794787
30
79.98483835336017
 70
     32
  0
VERTEX
  8
MY3DLAYER
10
1456.0223724288878
20
693.1196593439108
30
79.9848383533602
 70
     32
  0
VERTEX
  8
MY3DLAYER
10
1456.1068098892565
20
693.3666789032745
30
79.98483835336032
 70
     32
  0
VERTEX
  8
MY3DLAYER
10
1456.1201540150407
20
693.563852217027
30
79.98483835336037
 70
     32
  0
VERTEX
  8
MY3DLAYER
10
1456.1244368464581
20
693.6271354981261
30
79.98483835336039
 70
     32
  0
VERTEX
  8
MY3DLAYER
10
1456.074052052487
20
693.8832794419515
30
79.9848383533605
 70
     32
  0
VERTEX
  8
MY3DLAYER
10
1455.9590891477885
20
694.1176549482769
30
79.98483835336059
 70
     32
  0
VERTEX
  8
MY3DLAYER
10
1455.7873826643327
20
694.3142897136693
30
79.98483835336073
 70
     32
  0
VERTEX
  8
MY3DLAYER
10
1455.5706341152083
20
694.4597834038225
30
79.98483835336071
 70
     32
  0
VERTEX
  8
MY3DLAYER
10
1455.3236145558446
20
694.5442208641917
30
79.98483835336083
 70
     32
  0
SEQEND
  0
POLYLINE
 8
Différence
 66
     1
70
    8
 10
0.0
 20
 0.0
 30
0.0
  0
VERTEX
  8
MY3DLAYER
10
1709.175528294728
20
688.4771062980237
30
79.98483835335765
 70
     32
  0
VERTEX
  8
MY3DLAYER
10
1462.375528294728
20
688.4771062979963
30
79.98483835335865
 70
     32
  0
VERTEX
  8
MY3DLAYER
10
1462.3755282947293
20
682.4771062979963
30
79.98483835335627
 70
     32
  0
VERTEX
  8
MY3DLAYER
10
1709.1755282947288
20
682.4771062980237
30
79.98483835335563
 70
     32
  0
VERTEX
  8
MY3DLAYER
10
1709.175528294728
20
688.4771062980237
30
79.98483835335765
 70
     32
  0
SEQEND
  0
POLYLINE
 8
Différence
 66
     1
70
    8
 10
0.0
 20
 0.0
 30
0.0
  0
VERTEX
  8
MY3DLAYER
10
1412.046729679221
20
714.0453652945101
30
79.98483835336877
 70
     32
  0
VERTEX
  8
MY3DLAYER
10
1412.046729679223
20
709.1233652945092
30
79.98483835336687
 70
     32
  0
VERTEX
  8
MY3DLAYER
10
1416.3093067166515
20
706.6623652945099
30
79.98483835336592
 70
     32
  0
VERTEX
  8
MY3DLAYER
10
1420.571883754079
20
709.123365294511
30
79.98483835336687
 70
     32
  0
VERTEX
  8
MY3DLAYER
10
1420.5718837540787
20
714.0453652945106
30
79.98483835336877
 70
     32
  0
VERTEX
  8
MY3DLAYER
10
1416.3093067166496
20
716.5063652945103
30
79.98483835336974
 70
     32
  0
VERTEX
  8
MY3DLAYER
10
1412.046729679221
20
714.0453652945101
30
79.98483835336877
 70
     32
  0
SEQEND
  0
POLYLINE
 8
Différence
 66
     1
70
    8
 10
0.0
 20
 0.0
 30
0.0
  0
VERTEX
  8
MY3DLAYER
10
1767.6779258290214
20
678.1871703804599
30
79.98483835335225
 70
     32
  0
VERTEX
  8
MY3DLAYER
10
1767.4191067839186
20
678.2212445541709
30
79.98483835335219
 70
     32
  0
VERTEX
  8
MY3DLAYER
10
1767.160287738816
20
678.1871703804599
30
79.98483835335225
 70
     32
  0
VERTEX
  8
MY3DLAYER
10
1766.9191067839201
20
678.0872699579552
30
79.98483835335213
 70
     32
  0
VERTEX
  8
MY3DLAYER
10
1766.7120000027337
20
677.9283513353573
30
79.98483835335207
 70
     32
  0
VERTEX
  8
MY3DLAYER
10
1766.5530813801356
20
677.7212445541708
30
79.98483835335212
 70
     32
  0
VERTEX
  8
MY3DLAYER
10
1766.453180957631
20
677.4800635992732
30
79.98483835335202
 70
     32
  0
VERTEX
  8
MY3DLAYER
10
1766.4191067839204
20
677.2212445541707
30
79.98483835335185
 70
     32
  0
VERTEX
  8
MY3DLAYER
10
1766.4531809576313
20
676.9624255090681
30
79.98483835335182
 70
     32
  0
VERTEX
  8
MY3DLAYER
10
1766.5530813801356
20
676.7212445541708
30
79.98483835335178
 70
     32
  0
VERTEX
  8
MY3DLAYER
10
1766.712000002732
20
676.5141377729842
30
79.9848383533516
 70
     32
  0
VERTEX
  8
MY3DLAYER
10
1766.9191067839188
20
676.3552191503863
30
79.98483835335156
 70
     32
  0
VERTEX
  8
MY3DLAYER
10
1767.1602877388164
20
676.2553187278818
30
79.98483835335159
 70
     32
  0
VERTEX
  8
MY3DLAYER
10
1767.419106783919
20
676.2212445541709
30
79.98483835335149
 70
     32
  0
VERTEX
  8
MY3DLAYER
10
1767.6779258290214
20
676.2553187278818
30
79.98483835335159
 70
     32
  0
VERTEX
  8
MY3DLAYER
10
1767.9191067839188
20
676.3552191503865
30
79.98483835335156
 70
     32
  0
VERTEX
  8
MY3DLAYER
10
1768.1262135651054
20
676.5141377729843
30
79.9848383533516
 70
     32
  0
VERTEX
  8
MY3DLAYER
10
1768.285132187705
20
676.721244554171
30
79.98483835335173
 70
     32
  0
VERTEX
  8
MY3DLAYER
10
1768.3850326102092
20
676.9624255090685
30
79.98483835335182
 70
     32
  0
VERTEX
  8
MY3DLAYER
10
1768.4191067839201
20
677.221244554171
30
79.98483835335185
 70
     32
  0
VERTEX
  8
MY3DLAYER
10
1768.3850326102092
20
677.4800635992735
30
79.98483835335202
 70
     32
  0
VERTEX
  8
MY3DLAYER
10
1768.2851321877044
20
677.721244554171
30
79.98483835335207
 70
     32
  0
VERTEX
  8
MY3DLAYER
10
1768.1262135651066
20
677.9283513353574
30
79.98483835335207
 70
     32
  0
VERTEX
  8
MY3DLAYER
10
1767.91910678392
20
678.0872699579553
30
79.98483835335213
 70
     32
  0
VERTEX
  8
MY3DLAYER
10
1767.6779258290214
20
678.1871703804599
30
79.98483835335225
 70
     32
  0
SEQEND
  0
POLYLINE
 8
Différence
 66
     1
70
    8
 10
0.0
 20
 0.0
 30
0.0
  0
VERTEX
  8
MY3DLAYER
10
1785.7519899454512
20
677.4755770545532
30
79.98483835335179
 70
     32
  0
VERTEX
  8
MY3DLAYER
10
1785.7191175577168
20
677.21660262812
30
79.98483835335162
 70
     32
  0
VERTEX
  8
MY3DLAYER
10
1785.7543927831882
20
676.9579445412759
30
79.98483835335163
 70
     32
  0
VERTEX
  8
MY3DLAYER
10
1785.8554116735438
20
676.7172299151869
30
79.98483835335153
 70
     32
  0
VERTEX
  8
MY3DLAYER
10
1786.0152899583468
20
676.5108630538214
30
79.98483835335139
 70
     32
  0
VERTEX
  8
MY3DLAYER
10
1786.2231321967017
20
676.3529075177441
30
79.98483835335134
 70
     32
  0
VERTEX
  8
MY3DLAYER
10
1786.4647742835384
20
676.254127715704
30
79.98483835335142
 70
     32
  0
VERTEX
  8
MY3DLAYER
10
1786.7237487099717
20
676.2212553279699
30
79.98483835335131
 70
     32
  0
VERTEX
  8
MY3DLAYER
10
1786.9824067968157
20
676.2565305534414
30
79.98483835335142
 70
     32
  0
VERTEX
  8
MY3DLAYER
10
1787.2231214229048
20
676.3575494437969
30
79.98483835335138
 70
     32
  0
VERTEX
  8
MY3DLAYER
10
1787.4294882842705
20
676.5174277286012
30
79.98483835335144
 70
     32
  0
VERTEX
  8
MY3DLAYER
10
1787.5874438203493
20
676.7252699669559
30
79.98483835335159
 70
     32
  0
VERTEX
  8
MY3DLAYER
10
1787.6862236223892
20
676.9669120537927
30
79.98483835335162
 70
     32
  0
VERTEX
  8
MY3DLAYER
10
1787.7190960101236
20
677.2258864802261
30
79.98483835335172
 70
     32
  0
VERTEX
  8
MY3DLAYER
10
1787.6838207846522
20
677.4845445670702
30
79.98483835335185
 70
     32
  0
VERTEX
  8
MY3DLAYER
10
1787.5828018942962
20
677.7252591931591
30
79.98483835335193
 70
     32
  0
VERTEX
  8
MY3DLAYER
10
1787.422923609492
20
677.9316260545248
30
79.98483835335196
 70
     32
  0
VERTEX
  8
MY3DLAYER
10
1787.2150813711373
20
678.0895815906023
30
79.984838353352
 70
     32
  0
VERTEX
  8
MY3DLAYER
10
1786.973439284299
20
678.1883613926424
30
79.98483835335207
 70
     32
  0
VERTEX
  8
MY3DLAYER
10
1786.7144648578653
20
678.2212337803762
30
79.98483835335202
 70
     32
  0
VERTEX
  8
MY3DLAYER
10
1786.4558067710213
20
678.185958554905
30
79.98483835335207
 70
     32
  0
VERTEX
  8
MY3DLAYER
10
1786.215092144934
20
678.0849396645496
30
79.98483835335196
 70
     32
  0
VERTEX
  8
MY3DLAYER
10
1786.0087252835683
20
677.9250613797449
30
79.9848383533519
 70
     32
  0
VERTEX
  8
MY3DLAYER
10
1785.8507697474906
20
677.71721914139
30
79.98483835335189
 70
     32
  0
VERTEX
  8
MY3DLAYER
10
1785.7519899454512
20
677.4755770545532
30
79.98483835335179
 70
     32
  0
SEQEND
 0
ENDSEC
 0
EOF
